<svg xmlns="http://www.w3.org/2000/svg" xmlns:xlink="http://www.w3.org/1999/xlink" viewBox="0 0 222.98 27.64"><defs><pattern id="斜线" data-name="斜线" width="2" height="2.4" patternUnits="userSpaceOnUse" viewBox="0 0 2 2.4"><rect width="2" height="2.4" fill="none"/><line x1="0.7" y1="50.07" x2="21.3" y2="0.33" fill="#666" stroke="#666" stroke-miterlimit="10" stroke-width="0.25" opacity="0.15"/><line x1="-1.3" y1="50.07" x2="19.3" y2="0.33" fill="#666" stroke="#666" stroke-miterlimit="10" stroke-width="0.25" opacity="0.15"/><line x1="-3.3" y1="50.07" x2="17.3" y2="0.33" fill="#666" stroke="#666" stroke-miterlimit="10" stroke-width="0.25" opacity="0.15"/><line x1="-5.3" y1="50.07" x2="15.3" y2="0.33" fill="#666" stroke="#666" stroke-miterlimit="10" stroke-width="0.25" opacity="0.15"/><line x1="-7.3" y1="50.07" x2="13.3" y2="0.33" fill="#666" stroke="#666" stroke-miterlimit="10" stroke-width="0.25" opacity="0.15"/><line x1="-9.3" y1="50.07" x2="11.3" y2="0.33" fill="#666" stroke="#666" stroke-miterlimit="10" stroke-width="0.25" opacity="0.15"/><line x1="-11.3" y1="50.07" x2="9.3" y2="0.33" fill="#666" stroke="#666" stroke-miterlimit="10" stroke-width="0.25" opacity="0.15"/><line x1="-13.3" y1="50.07" x2="7.3" y2="0.33" fill="#666" stroke="#666" stroke-miterlimit="10" stroke-width="0.25" opacity="0.15"/><line x1="-15.3" y1="50.07" x2="5.3" y2="0.33" fill="#666" stroke="#666" stroke-miterlimit="10" stroke-width="0.25" opacity="0.15"/><line x1="-17.3" y1="50.07" x2="3.3" y2="0.33" fill="#666" stroke="#666" stroke-miterlimit="10" stroke-width="0.25" opacity="0.15"/><line x1="-19.3" y1="50.07" x2="1.3" y2="0.33" fill="#666" stroke="#666" stroke-miterlimit="10" stroke-width="0.25" opacity="0.15"/><line x1="0.7" y1="47.67" x2="21.3" y2="-2.07" fill="#666" stroke="#666" stroke-miterlimit="10" stroke-width="0.25" opacity="0.15"/><line x1="-1.3" y1="47.67" x2="19.3" y2="-2.07" fill="#666" stroke="#666" stroke-miterlimit="10" stroke-width="0.25" opacity="0.15"/><line x1="-3.3" y1="47.67" x2="17.3" y2="-2.07" fill="#666" stroke="#666" stroke-miterlimit="10" stroke-width="0.25" opacity="0.15"/><line x1="-5.3" y1="47.67" x2="15.3" y2="-2.07" fill="#666" stroke="#666" stroke-miterlimit="10" stroke-width="0.25" opacity="0.15"/><line x1="-7.3" y1="47.67" x2="13.3" y2="-2.07" fill="#666" stroke="#666" stroke-miterlimit="10" stroke-width="0.25" opacity="0.15"/><line x1="-9.3" y1="47.67" x2="11.3" y2="-2.07" fill="#666" stroke="#666" stroke-miterlimit="10" stroke-width="0.25" opacity="0.15"/><line x1="-11.3" y1="47.67" x2="9.3" y2="-2.07" fill="#666" stroke="#666" stroke-miterlimit="10" stroke-width="0.25" opacity="0.15"/><line x1="-13.3" y1="47.67" x2="7.3" y2="-2.07" fill="#666" stroke="#666" stroke-miterlimit="10" stroke-width="0.25" opacity="0.15"/><line x1="-15.3" y1="47.67" x2="5.3" y2="-2.07" fill="#666" stroke="#666" stroke-miterlimit="10" stroke-width="0.25" opacity="0.15"/><line x1="-17.3" y1="47.67" x2="3.3" y2="-2.07" fill="#666" stroke="#666" stroke-miterlimit="10" stroke-width="0.25" opacity="0.15"/><line x1="-19.3" y1="47.67" x2="1.3" y2="-2.07" fill="#666" stroke="#666" stroke-miterlimit="10" stroke-width="0.25" opacity="0.15"/><line x1="0.7" y1="45.27" x2="21.3" y2="-4.47" fill="#666" stroke="#666" stroke-miterlimit="10" stroke-width="0.25" opacity="0.15"/><line x1="-1.3" y1="45.27" x2="19.3" y2="-4.47" fill="#666" stroke="#666" stroke-miterlimit="10" stroke-width="0.25" opacity="0.15"/><line x1="-3.3" y1="45.27" x2="17.3" y2="-4.47" fill="#666" stroke="#666" stroke-miterlimit="10" stroke-width="0.25" opacity="0.15"/><line x1="-5.3" y1="45.27" x2="15.3" y2="-4.47" fill="#666" stroke="#666" stroke-miterlimit="10" stroke-width="0.25" opacity="0.15"/><line x1="-7.3" y1="45.27" x2="13.3" y2="-4.47" fill="#666" stroke="#666" stroke-miterlimit="10" stroke-width="0.25" opacity="0.15"/><line x1="-9.3" y1="45.27" x2="11.3" y2="-4.47" fill="#666" stroke="#666" stroke-miterlimit="10" stroke-width="0.25" opacity="0.15"/><line x1="-11.3" y1="45.27" x2="9.3" y2="-4.47" fill="#666" stroke="#666" stroke-miterlimit="10" stroke-width="0.25" opacity="0.15"/><line x1="-13.3" y1="45.27" x2="7.3" y2="-4.47" fill="#666" stroke="#666" stroke-miterlimit="10" stroke-width="0.25" opacity="0.15"/><line x1="-15.3" y1="45.27" x2="5.3" y2="-4.47" fill="#666" stroke="#666" stroke-miterlimit="10" stroke-width="0.25" opacity="0.15"/><line x1="-17.3" y1="45.27" x2="3.3" y2="-4.47" fill="#666" stroke="#666" stroke-miterlimit="10" stroke-width="0.25" opacity="0.15"/><line x1="-19.3" y1="45.27" x2="1.3" y2="-4.47" fill="#666" stroke="#666" stroke-miterlimit="10" stroke-width="0.25" opacity="0.15"/><line x1="0.7" y1="42.87" x2="21.3" y2="-6.87" fill="#666" stroke="#666" stroke-miterlimit="10" stroke-width="0.25" opacity="0.15"/><line x1="-1.3" y1="42.87" x2="19.3" y2="-6.87" fill="#666" stroke="#666" stroke-miterlimit="10" stroke-width="0.25" opacity="0.15"/><line x1="-3.3" y1="42.87" x2="17.3" y2="-6.87" fill="#666" stroke="#666" stroke-miterlimit="10" stroke-width="0.25" opacity="0.15"/><line x1="-5.3" y1="42.87" x2="15.3" y2="-6.87" fill="#666" stroke="#666" stroke-miterlimit="10" stroke-width="0.25" opacity="0.15"/><line x1="-7.3" y1="42.87" x2="13.3" y2="-6.87" fill="#666" stroke="#666" stroke-miterlimit="10" stroke-width="0.25" opacity="0.15"/><line x1="-9.3" y1="42.87" x2="11.3" y2="-6.87" fill="#666" stroke="#666" stroke-miterlimit="10" stroke-width="0.25" opacity="0.15"/><line x1="-11.3" y1="42.87" x2="9.3" y2="-6.87" fill="#666" stroke="#666" stroke-miterlimit="10" stroke-width="0.25" opacity="0.15"/><line x1="-13.3" y1="42.87" x2="7.3" y2="-6.87" fill="#666" stroke="#666" stroke-miterlimit="10" stroke-width="0.25" opacity="0.15"/><line x1="-15.3" y1="42.87" x2="5.3" y2="-6.87" fill="#666" stroke="#666" stroke-miterlimit="10" stroke-width="0.25" opacity="0.15"/><line x1="-17.3" y1="42.87" x2="3.3" y2="-6.87" fill="#666" stroke="#666" stroke-miterlimit="10" stroke-width="0.25" opacity="0.15"/><line x1="-19.3" y1="42.87" x2="1.3" y2="-6.87" fill="#666" stroke="#666" stroke-miterlimit="10" stroke-width="0.25" opacity="0.15"/><line x1="0.7" y1="40.47" x2="21.3" y2="-9.27" fill="#666" stroke="#666" stroke-miterlimit="10" stroke-width="0.25" opacity="0.15"/><line x1="-1.3" y1="40.47" x2="19.3" y2="-9.27" fill="#666" stroke="#666" stroke-miterlimit="10" stroke-width="0.25" opacity="0.15"/><line x1="-3.3" y1="40.47" x2="17.3" y2="-9.27" fill="#666" stroke="#666" stroke-miterlimit="10" stroke-width="0.25" opacity="0.15"/><line x1="-5.3" y1="40.47" x2="15.3" y2="-9.27" fill="#666" stroke="#666" stroke-miterlimit="10" stroke-width="0.25" opacity="0.15"/><line x1="-7.3" y1="40.47" x2="13.3" y2="-9.27" fill="#666" stroke="#666" stroke-miterlimit="10" stroke-width="0.25" opacity="0.15"/><line x1="-9.3" y1="40.47" x2="11.3" y2="-9.27" fill="#666" stroke="#666" stroke-miterlimit="10" stroke-width="0.25" opacity="0.15"/><line x1="-11.3" y1="40.47" x2="9.3" y2="-9.27" fill="#666" stroke="#666" stroke-miterlimit="10" stroke-width="0.25" opacity="0.15"/><line x1="-13.3" y1="40.47" x2="7.3" y2="-9.27" fill="#666" stroke="#666" stroke-miterlimit="10" stroke-width="0.25" opacity="0.15"/><line x1="-15.3" y1="40.47" x2="5.3" y2="-9.27" fill="#666" stroke="#666" stroke-miterlimit="10" stroke-width="0.25" opacity="0.15"/><line x1="-17.3" y1="40.47" x2="3.3" y2="-9.27" fill="#666" stroke="#666" stroke-miterlimit="10" stroke-width="0.25" opacity="0.15"/><line x1="-19.3" y1="40.47" x2="1.3" y2="-9.27" fill="#666" stroke="#666" stroke-miterlimit="10" stroke-width="0.25" opacity="0.15"/><line x1="0.7" y1="38.07" x2="21.3" y2="-11.67" fill="#666" stroke="#666" stroke-miterlimit="10" stroke-width="0.25" opacity="0.15"/><line x1="-1.3" y1="38.07" x2="19.3" y2="-11.67" fill="#666" stroke="#666" stroke-miterlimit="10" stroke-width="0.25" opacity="0.15"/><line x1="-3.3" y1="38.07" x2="17.3" y2="-11.67" fill="#666" stroke="#666" stroke-miterlimit="10" stroke-width="0.25" opacity="0.15"/><line x1="-5.3" y1="38.07" x2="15.3" y2="-11.67" fill="#666" stroke="#666" stroke-miterlimit="10" stroke-width="0.25" opacity="0.15"/><line x1="-7.3" y1="38.07" x2="13.3" y2="-11.67" fill="#666" stroke="#666" stroke-miterlimit="10" stroke-width="0.25" opacity="0.15"/><line x1="-9.3" y1="38.07" x2="11.3" y2="-11.67" fill="#666" stroke="#666" stroke-miterlimit="10" stroke-width="0.25" opacity="0.15"/><line x1="-11.3" y1="38.07" x2="9.3" y2="-11.67" fill="#666" stroke="#666" stroke-miterlimit="10" stroke-width="0.25" opacity="0.15"/><line x1="-13.3" y1="38.07" x2="7.3" y2="-11.67" fill="#666" stroke="#666" stroke-miterlimit="10" stroke-width="0.25" opacity="0.15"/><line x1="-15.3" y1="38.07" x2="5.3" y2="-11.67" fill="#666" stroke="#666" stroke-miterlimit="10" stroke-width="0.25" opacity="0.15"/><line x1="-17.3" y1="38.07" x2="3.3" y2="-11.67" fill="#666" stroke="#666" stroke-miterlimit="10" stroke-width="0.25" opacity="0.15"/><line x1="-19.3" y1="38.07" x2="1.3" y2="-11.67" fill="#666" stroke="#666" stroke-miterlimit="10" stroke-width="0.25" opacity="0.15"/><line x1="0.7" y1="35.67" x2="21.3" y2="-14.07" fill="#666" stroke="#666" stroke-miterlimit="10" stroke-width="0.25" opacity="0.15"/><line x1="-1.3" y1="35.67" x2="19.3" y2="-14.07" fill="#666" stroke="#666" stroke-miterlimit="10" stroke-width="0.25" opacity="0.15"/><line x1="-3.3" y1="35.67" x2="17.3" y2="-14.07" fill="#666" stroke="#666" stroke-miterlimit="10" stroke-width="0.25" opacity="0.15"/><line x1="-5.3" y1="35.67" x2="15.3" y2="-14.07" fill="#666" stroke="#666" stroke-miterlimit="10" stroke-width="0.25" opacity="0.15"/><line x1="-7.3" y1="35.67" x2="13.3" y2="-14.07" fill="#666" stroke="#666" stroke-miterlimit="10" stroke-width="0.25" opacity="0.15"/><line x1="-9.3" y1="35.67" x2="11.3" y2="-14.07" fill="#666" stroke="#666" stroke-miterlimit="10" stroke-width="0.25" opacity="0.15"/><line x1="-11.3" y1="35.67" x2="9.3" y2="-14.07" fill="#666" stroke="#666" stroke-miterlimit="10" stroke-width="0.25" opacity="0.15"/><line x1="-13.3" y1="35.67" x2="7.3" y2="-14.07" fill="#666" stroke="#666" stroke-miterlimit="10" stroke-width="0.25" opacity="0.15"/><line x1="-15.3" y1="35.67" x2="5.3" y2="-14.07" fill="#666" stroke="#666" stroke-miterlimit="10" stroke-width="0.25" opacity="0.15"/><line x1="-17.3" y1="35.67" x2="3.3" y2="-14.07" fill="#666" stroke="#666" stroke-miterlimit="10" stroke-width="0.25" opacity="0.15"/><line x1="-19.3" y1="35.67" x2="1.3" y2="-14.07" fill="#666" stroke="#666" stroke-miterlimit="10" stroke-width="0.25" opacity="0.15"/><line x1="0.7" y1="33.27" x2="21.3" y2="-16.47" fill="#666" stroke="#666" stroke-miterlimit="10" stroke-width="0.25" opacity="0.15"/><line x1="-1.3" y1="33.27" x2="19.3" y2="-16.47" fill="#666" stroke="#666" stroke-miterlimit="10" stroke-width="0.25" opacity="0.15"/><line x1="-3.3" y1="33.27" x2="17.3" y2="-16.47" fill="#666" stroke="#666" stroke-miterlimit="10" stroke-width="0.25" opacity="0.15"/><line x1="-5.3" y1="33.27" x2="15.3" y2="-16.47" fill="#666" stroke="#666" stroke-miterlimit="10" stroke-width="0.25" opacity="0.15"/><line x1="-7.3" y1="33.27" x2="13.3" y2="-16.47" fill="#666" stroke="#666" stroke-miterlimit="10" stroke-width="0.25" opacity="0.15"/><line x1="-9.3" y1="33.27" x2="11.3" y2="-16.47" fill="#666" stroke="#666" stroke-miterlimit="10" stroke-width="0.25" opacity="0.15"/><line x1="-11.3" y1="33.27" x2="9.3" y2="-16.47" fill="#666" stroke="#666" stroke-miterlimit="10" stroke-width="0.25" opacity="0.15"/><line x1="-13.3" y1="33.27" x2="7.3" y2="-16.47" fill="#666" stroke="#666" stroke-miterlimit="10" stroke-width="0.25" opacity="0.15"/><line x1="-15.3" y1="33.27" x2="5.3" y2="-16.47" fill="#666" stroke="#666" stroke-miterlimit="10" stroke-width="0.25" opacity="0.15"/><line x1="-17.3" y1="33.27" x2="3.3" y2="-16.47" fill="#666" stroke="#666" stroke-miterlimit="10" stroke-width="0.25" opacity="0.15"/><line x1="-19.3" y1="33.27" x2="1.3" y2="-16.47" fill="#666" stroke="#666" stroke-miterlimit="10" stroke-width="0.25" opacity="0.15"/><line x1="0.7" y1="30.87" x2="21.3" y2="-18.87" fill="#666" stroke="#666" stroke-miterlimit="10" stroke-width="0.25" opacity="0.15"/><line x1="-1.3" y1="30.87" x2="19.3" y2="-18.87" fill="#666" stroke="#666" stroke-miterlimit="10" stroke-width="0.25" opacity="0.15"/><line x1="-3.3" y1="30.87" x2="17.3" y2="-18.87" fill="#666" stroke="#666" stroke-miterlimit="10" stroke-width="0.25" opacity="0.15"/><line x1="-5.3" y1="30.87" x2="15.3" y2="-18.87" fill="#666" stroke="#666" stroke-miterlimit="10" stroke-width="0.25" opacity="0.15"/><line x1="-7.3" y1="30.87" x2="13.3" y2="-18.87" fill="#666" stroke="#666" stroke-miterlimit="10" stroke-width="0.25" opacity="0.15"/><line x1="-9.3" y1="30.87" x2="11.3" y2="-18.87" fill="#666" stroke="#666" stroke-miterlimit="10" stroke-width="0.25" opacity="0.15"/><line x1="-11.3" y1="30.87" x2="9.3" y2="-18.87" fill="#666" stroke="#666" stroke-miterlimit="10" stroke-width="0.25" opacity="0.15"/><line x1="-13.3" y1="30.87" x2="7.3" y2="-18.87" fill="#666" stroke="#666" stroke-miterlimit="10" stroke-width="0.25" opacity="0.15"/><line x1="-15.3" y1="30.87" x2="5.3" y2="-18.87" fill="#666" stroke="#666" stroke-miterlimit="10" stroke-width="0.25" opacity="0.15"/><line x1="-17.3" y1="30.87" x2="3.3" y2="-18.87" fill="#666" stroke="#666" stroke-miterlimit="10" stroke-width="0.25" opacity="0.15"/><line x1="-19.3" y1="30.87" x2="1.3" y2="-18.87" fill="#666" stroke="#666" stroke-miterlimit="10" stroke-width="0.25" opacity="0.15"/><line x1="0.7" y1="28.47" x2="21.3" y2="-21.27" fill="#666" stroke="#666" stroke-miterlimit="10" stroke-width="0.25" opacity="0.15"/><line x1="-1.3" y1="28.47" x2="19.3" y2="-21.27" fill="#666" stroke="#666" stroke-miterlimit="10" stroke-width="0.25" opacity="0.15"/><line x1="-3.3" y1="28.47" x2="17.3" y2="-21.27" fill="#666" stroke="#666" stroke-miterlimit="10" stroke-width="0.25" opacity="0.15"/><line x1="-5.3" y1="28.47" x2="15.3" y2="-21.27" fill="#666" stroke="#666" stroke-miterlimit="10" stroke-width="0.25" opacity="0.15"/><line x1="-7.3" y1="28.47" x2="13.3" y2="-21.27" fill="#666" stroke="#666" stroke-miterlimit="10" stroke-width="0.25" opacity="0.15"/><line x1="-9.3" y1="28.47" x2="11.3" y2="-21.27" fill="#666" stroke="#666" stroke-miterlimit="10" stroke-width="0.25" opacity="0.15"/><line x1="-11.3" y1="28.47" x2="9.3" y2="-21.27" fill="#666" stroke="#666" stroke-miterlimit="10" stroke-width="0.25" opacity="0.15"/><line x1="-13.3" y1="28.47" x2="7.3" y2="-21.27" fill="#666" stroke="#666" stroke-miterlimit="10" stroke-width="0.25" opacity="0.15"/><line x1="-15.3" y1="28.47" x2="5.3" y2="-21.27" fill="#666" stroke="#666" stroke-miterlimit="10" stroke-width="0.25" opacity="0.15"/><line x1="-17.3" y1="28.47" x2="3.3" y2="-21.27" fill="#666" stroke="#666" stroke-miterlimit="10" stroke-width="0.25" opacity="0.15"/><line x1="-19.3" y1="28.47" x2="1.3" y2="-21.27" fill="#666" stroke="#666" stroke-miterlimit="10" stroke-width="0.25" opacity="0.15"/><line x1="0.7" y1="26.07" x2="21.3" y2="-23.67" fill="#666" stroke="#666" stroke-miterlimit="10" stroke-width="0.25" opacity="0.15"/><line x1="-1.3" y1="26.07" x2="19.3" y2="-23.67" fill="#666" stroke="#666" stroke-miterlimit="10" stroke-width="0.25" opacity="0.15"/><line x1="-3.3" y1="26.07" x2="17.3" y2="-23.67" fill="#666" stroke="#666" stroke-miterlimit="10" stroke-width="0.25" opacity="0.15"/><line x1="-5.3" y1="26.07" x2="15.3" y2="-23.67" fill="#666" stroke="#666" stroke-miterlimit="10" stroke-width="0.25" opacity="0.15"/><line x1="-7.3" y1="26.07" x2="13.3" y2="-23.67" fill="#666" stroke="#666" stroke-miterlimit="10" stroke-width="0.25" opacity="0.15"/><line x1="-9.3" y1="26.07" x2="11.3" y2="-23.67" fill="#666" stroke="#666" stroke-miterlimit="10" stroke-width="0.25" opacity="0.15"/><line x1="-11.3" y1="26.07" x2="9.3" y2="-23.67" fill="#666" stroke="#666" stroke-miterlimit="10" stroke-width="0.25" opacity="0.15"/><line x1="-13.3" y1="26.07" x2="7.3" y2="-23.67" fill="#666" stroke="#666" stroke-miterlimit="10" stroke-width="0.25" opacity="0.15"/><line x1="-15.3" y1="26.07" x2="5.3" y2="-23.67" fill="#666" stroke="#666" stroke-miterlimit="10" stroke-width="0.25" opacity="0.15"/><line x1="-17.3" y1="26.07" x2="3.3" y2="-23.67" fill="#666" stroke="#666" stroke-miterlimit="10" stroke-width="0.25" opacity="0.15"/><line x1="-19.3" y1="26.07" x2="1.3" y2="-23.67" fill="#666" stroke="#666" stroke-miterlimit="10" stroke-width="0.25" opacity="0.15"/><line x1="0.7" y1="23.67" x2="21.3" y2="-26.07" fill="#666" stroke="#666" stroke-miterlimit="10" stroke-width="0.25" opacity="0.15"/><line x1="-1.3" y1="23.67" x2="19.3" y2="-26.07" fill="#666" stroke="#666" stroke-miterlimit="10" stroke-width="0.25" opacity="0.15"/><line x1="-3.3" y1="23.67" x2="17.3" y2="-26.07" fill="#666" stroke="#666" stroke-miterlimit="10" stroke-width="0.25" opacity="0.15"/><line x1="-5.3" y1="23.67" x2="15.3" y2="-26.07" fill="#666" stroke="#666" stroke-miterlimit="10" stroke-width="0.25" opacity="0.15"/><line x1="-7.3" y1="23.67" x2="13.3" y2="-26.07" fill="#666" stroke="#666" stroke-miterlimit="10" stroke-width="0.25" opacity="0.15"/><line x1="-9.3" y1="23.67" x2="11.3" y2="-26.07" fill="#666" stroke="#666" stroke-miterlimit="10" stroke-width="0.25" opacity="0.15"/><line x1="-11.3" y1="23.67" x2="9.3" y2="-26.07" fill="#666" stroke="#666" stroke-miterlimit="10" stroke-width="0.25" opacity="0.15"/><line x1="-13.3" y1="23.67" x2="7.3" y2="-26.07" fill="#666" stroke="#666" stroke-miterlimit="10" stroke-width="0.25" opacity="0.15"/><line x1="-15.3" y1="23.67" x2="5.3" y2="-26.07" fill="#666" stroke="#666" stroke-miterlimit="10" stroke-width="0.25" opacity="0.15"/><line x1="-17.3" y1="23.67" x2="3.3" y2="-26.07" fill="#666" stroke="#666" stroke-miterlimit="10" stroke-width="0.25" opacity="0.15"/><line x1="-19.3" y1="23.67" x2="1.3" y2="-26.07" fill="#666" stroke="#666" stroke-miterlimit="10" stroke-width="0.25" opacity="0.15"/><line x1="0.7" y1="21.27" x2="21.3" y2="-28.47" fill="#666" stroke="#666" stroke-miterlimit="10" stroke-width="0.25" opacity="0.15"/><line x1="-1.3" y1="21.27" x2="19.3" y2="-28.47" fill="#666" stroke="#666" stroke-miterlimit="10" stroke-width="0.25" opacity="0.15"/><line x1="-3.3" y1="21.27" x2="17.3" y2="-28.47" fill="#666" stroke="#666" stroke-miterlimit="10" stroke-width="0.25" opacity="0.15"/><line x1="-5.3" y1="21.27" x2="15.3" y2="-28.47" fill="#666" stroke="#666" stroke-miterlimit="10" stroke-width="0.25" opacity="0.15"/><line x1="-7.3" y1="21.27" x2="13.3" y2="-28.47" fill="#666" stroke="#666" stroke-miterlimit="10" stroke-width="0.25" opacity="0.15"/><line x1="-9.3" y1="21.27" x2="11.3" y2="-28.47" fill="#666" stroke="#666" stroke-miterlimit="10" stroke-width="0.25" opacity="0.15"/><line x1="-11.3" y1="21.27" x2="9.3" y2="-28.47" fill="#666" stroke="#666" stroke-miterlimit="10" stroke-width="0.25" opacity="0.15"/><line x1="-13.3" y1="21.27" x2="7.3" y2="-28.47" fill="#666" stroke="#666" stroke-miterlimit="10" stroke-width="0.25" opacity="0.15"/><line x1="-15.3" y1="21.27" x2="5.3" y2="-28.47" fill="#666" stroke="#666" stroke-miterlimit="10" stroke-width="0.25" opacity="0.15"/><line x1="-17.3" y1="21.27" x2="3.3" y2="-28.47" fill="#666" stroke="#666" stroke-miterlimit="10" stroke-width="0.25" opacity="0.15"/><line x1="-19.3" y1="21.27" x2="1.3" y2="-28.47" fill="#666" stroke="#666" stroke-miterlimit="10" stroke-width="0.25" opacity="0.15"/><line x1="0.7" y1="18.87" x2="21.3" y2="-30.87" fill="#666" stroke="#666" stroke-miterlimit="10" stroke-width="0.25" opacity="0.15"/><line x1="-1.3" y1="18.87" x2="19.3" y2="-30.87" fill="#666" stroke="#666" stroke-miterlimit="10" stroke-width="0.25" opacity="0.15"/><line x1="-3.3" y1="18.87" x2="17.3" y2="-30.87" fill="#666" stroke="#666" stroke-miterlimit="10" stroke-width="0.25" opacity="0.15"/><line x1="-5.3" y1="18.87" x2="15.3" y2="-30.87" fill="#666" stroke="#666" stroke-miterlimit="10" stroke-width="0.25" opacity="0.15"/><line x1="-7.3" y1="18.87" x2="13.3" y2="-30.87" fill="#666" stroke="#666" stroke-miterlimit="10" stroke-width="0.25" opacity="0.15"/><line x1="-9.3" y1="18.87" x2="11.3" y2="-30.87" fill="#666" stroke="#666" stroke-miterlimit="10" stroke-width="0.25" opacity="0.15"/><line x1="-11.3" y1="18.87" x2="9.3" y2="-30.87" fill="#666" stroke="#666" stroke-miterlimit="10" stroke-width="0.25" opacity="0.15"/><line x1="-13.3" y1="18.87" x2="7.3" y2="-30.87" fill="#666" stroke="#666" stroke-miterlimit="10" stroke-width="0.25" opacity="0.15"/><line x1="-15.3" y1="18.87" x2="5.3" y2="-30.87" fill="#666" stroke="#666" stroke-miterlimit="10" stroke-width="0.25" opacity="0.15"/><line x1="-17.3" y1="18.87" x2="3.3" y2="-30.87" fill="#666" stroke="#666" stroke-miterlimit="10" stroke-width="0.25" opacity="0.15"/><line x1="-19.3" y1="18.87" x2="1.3" y2="-30.87" fill="#666" stroke="#666" stroke-miterlimit="10" stroke-width="0.25" opacity="0.15"/><line x1="0.7" y1="16.47" x2="21.3" y2="-33.27" fill="#666" stroke="#666" stroke-miterlimit="10" stroke-width="0.25" opacity="0.15"/><line x1="-1.3" y1="16.47" x2="19.3" y2="-33.27" fill="#666" stroke="#666" stroke-miterlimit="10" stroke-width="0.25" opacity="0.15"/><line x1="-3.3" y1="16.47" x2="17.3" y2="-33.27" fill="#666" stroke="#666" stroke-miterlimit="10" stroke-width="0.25" opacity="0.15"/><line x1="-5.3" y1="16.47" x2="15.3" y2="-33.27" fill="#666" stroke="#666" stroke-miterlimit="10" stroke-width="0.25" opacity="0.15"/><line x1="-7.3" y1="16.47" x2="13.3" y2="-33.27" fill="#666" stroke="#666" stroke-miterlimit="10" stroke-width="0.25" opacity="0.15"/><line x1="-9.3" y1="16.47" x2="11.3" y2="-33.27" fill="#666" stroke="#666" stroke-miterlimit="10" stroke-width="0.25" opacity="0.15"/><line x1="-11.3" y1="16.47" x2="9.3" y2="-33.27" fill="#666" stroke="#666" stroke-miterlimit="10" stroke-width="0.25" opacity="0.15"/><line x1="-13.3" y1="16.47" x2="7.3" y2="-33.27" fill="#666" stroke="#666" stroke-miterlimit="10" stroke-width="0.25" opacity="0.15"/><line x1="-15.3" y1="16.47" x2="5.3" y2="-33.27" fill="#666" stroke="#666" stroke-miterlimit="10" stroke-width="0.25" opacity="0.15"/><line x1="-17.3" y1="16.47" x2="3.3" y2="-33.27" fill="#666" stroke="#666" stroke-miterlimit="10" stroke-width="0.25" opacity="0.15"/><line x1="-19.3" y1="16.47" x2="1.3" y2="-33.27" fill="#666" stroke="#666" stroke-miterlimit="10" stroke-width="0.25" opacity="0.15"/><line x1="0.7" y1="14.07" x2="21.3" y2="-35.67" fill="#666" stroke="#666" stroke-miterlimit="10" stroke-width="0.25" opacity="0.15"/><line x1="-1.3" y1="14.07" x2="19.3" y2="-35.67" fill="#666" stroke="#666" stroke-miterlimit="10" stroke-width="0.25" opacity="0.15"/><line x1="-3.3" y1="14.07" x2="17.3" y2="-35.67" fill="#666" stroke="#666" stroke-miterlimit="10" stroke-width="0.25" opacity="0.15"/><line x1="-5.3" y1="14.07" x2="15.3" y2="-35.67" fill="#666" stroke="#666" stroke-miterlimit="10" stroke-width="0.25" opacity="0.15"/><line x1="-7.3" y1="14.07" x2="13.3" y2="-35.67" fill="#666" stroke="#666" stroke-miterlimit="10" stroke-width="0.25" opacity="0.15"/><line x1="-9.3" y1="14.07" x2="11.3" y2="-35.67" fill="#666" stroke="#666" stroke-miterlimit="10" stroke-width="0.25" opacity="0.15"/><line x1="-11.3" y1="14.07" x2="9.3" y2="-35.67" fill="#666" stroke="#666" stroke-miterlimit="10" stroke-width="0.25" opacity="0.15"/><line x1="-13.3" y1="14.07" x2="7.3" y2="-35.67" fill="#666" stroke="#666" stroke-miterlimit="10" stroke-width="0.25" opacity="0.15"/><line x1="-15.3" y1="14.07" x2="5.3" y2="-35.67" fill="#666" stroke="#666" stroke-miterlimit="10" stroke-width="0.25" opacity="0.15"/><line x1="-17.3" y1="14.07" x2="3.3" y2="-35.67" fill="#666" stroke="#666" stroke-miterlimit="10" stroke-width="0.25" opacity="0.15"/><line x1="-19.3" y1="14.07" x2="1.3" y2="-35.67" fill="#666" stroke="#666" stroke-miterlimit="10" stroke-width="0.25" opacity="0.15"/><line x1="0.7" y1="11.67" x2="21.3" y2="-38.07" fill="#666" stroke="#666" stroke-miterlimit="10" stroke-width="0.25" opacity="0.15"/><line x1="-1.3" y1="11.67" x2="19.3" y2="-38.07" fill="#666" stroke="#666" stroke-miterlimit="10" stroke-width="0.25" opacity="0.15"/><line x1="-3.3" y1="11.67" x2="17.3" y2="-38.07" fill="#666" stroke="#666" stroke-miterlimit="10" stroke-width="0.25" opacity="0.15"/><line x1="-5.3" y1="11.67" x2="15.3" y2="-38.07" fill="#666" stroke="#666" stroke-miterlimit="10" stroke-width="0.25" opacity="0.15"/><line x1="-7.3" y1="11.67" x2="13.3" y2="-38.07" fill="#666" stroke="#666" stroke-miterlimit="10" stroke-width="0.25" opacity="0.15"/><line x1="-9.3" y1="11.67" x2="11.3" y2="-38.07" fill="#666" stroke="#666" stroke-miterlimit="10" stroke-width="0.25" opacity="0.15"/><line x1="-11.3" y1="11.67" x2="9.3" y2="-38.07" fill="#666" stroke="#666" stroke-miterlimit="10" stroke-width="0.25" opacity="0.15"/><line x1="-13.3" y1="11.67" x2="7.3" y2="-38.07" fill="#666" stroke="#666" stroke-miterlimit="10" stroke-width="0.25" opacity="0.15"/><line x1="-15.3" y1="11.67" x2="5.3" y2="-38.07" fill="#666" stroke="#666" stroke-miterlimit="10" stroke-width="0.25" opacity="0.15"/><line x1="-17.3" y1="11.67" x2="3.3" y2="-38.07" fill="#666" stroke="#666" stroke-miterlimit="10" stroke-width="0.25" opacity="0.15"/><line x1="-19.3" y1="11.67" x2="1.3" y2="-38.07" fill="#666" stroke="#666" stroke-miterlimit="10" stroke-width="0.25" opacity="0.15"/><line x1="0.7" y1="9.27" x2="21.3" y2="-40.47" fill="#666" stroke="#666" stroke-miterlimit="10" stroke-width="0.25" opacity="0.15"/><line x1="-1.3" y1="9.27" x2="19.3" y2="-40.47" fill="#666" stroke="#666" stroke-miterlimit="10" stroke-width="0.25" opacity="0.15"/><line x1="-3.3" y1="9.27" x2="17.3" y2="-40.47" fill="#666" stroke="#666" stroke-miterlimit="10" stroke-width="0.25" opacity="0.15"/><line x1="-5.3" y1="9.27" x2="15.3" y2="-40.47" fill="#666" stroke="#666" stroke-miterlimit="10" stroke-width="0.25" opacity="0.15"/><line x1="-7.3" y1="9.27" x2="13.3" y2="-40.47" fill="#666" stroke="#666" stroke-miterlimit="10" stroke-width="0.25" opacity="0.15"/><line x1="-9.3" y1="9.27" x2="11.3" y2="-40.47" fill="#666" stroke="#666" stroke-miterlimit="10" stroke-width="0.25" opacity="0.15"/><line x1="-11.3" y1="9.27" x2="9.3" y2="-40.47" fill="#666" stroke="#666" stroke-miterlimit="10" stroke-width="0.25" opacity="0.15"/><line x1="-13.3" y1="9.27" x2="7.3" y2="-40.47" fill="#666" stroke="#666" stroke-miterlimit="10" stroke-width="0.25" opacity="0.15"/><line x1="-15.3" y1="9.27" x2="5.3" y2="-40.47" fill="#666" stroke="#666" stroke-miterlimit="10" stroke-width="0.25" opacity="0.15"/><line x1="-17.3" y1="9.27" x2="3.3" y2="-40.47" fill="#666" stroke="#666" stroke-miterlimit="10" stroke-width="0.25" opacity="0.15"/><line x1="-19.3" y1="9.27" x2="1.3" y2="-40.47" fill="#666" stroke="#666" stroke-miterlimit="10" stroke-width="0.25" opacity="0.15"/><line x1="0.7" y1="6.87" x2="21.3" y2="-42.87" fill="#666" stroke="#666" stroke-miterlimit="10" stroke-width="0.25" opacity="0.15"/><line x1="-1.3" y1="6.87" x2="19.3" y2="-42.87" fill="#666" stroke="#666" stroke-miterlimit="10" stroke-width="0.25" opacity="0.15"/><line x1="-3.3" y1="6.87" x2="17.3" y2="-42.87" fill="#666" stroke="#666" stroke-miterlimit="10" stroke-width="0.25" opacity="0.15"/><line x1="-5.3" y1="6.87" x2="15.3" y2="-42.87" fill="#666" stroke="#666" stroke-miterlimit="10" stroke-width="0.25" opacity="0.15"/><line x1="-7.3" y1="6.87" x2="13.3" y2="-42.87" fill="#666" stroke="#666" stroke-miterlimit="10" stroke-width="0.25" opacity="0.15"/><line x1="-9.3" y1="6.87" x2="11.3" y2="-42.87" fill="#666" stroke="#666" stroke-miterlimit="10" stroke-width="0.25" opacity="0.15"/><line x1="-11.3" y1="6.87" x2="9.3" y2="-42.87" fill="#666" stroke="#666" stroke-miterlimit="10" stroke-width="0.25" opacity="0.15"/><line x1="-13.3" y1="6.87" x2="7.3" y2="-42.87" fill="#666" stroke="#666" stroke-miterlimit="10" stroke-width="0.25" opacity="0.15"/><line x1="-15.3" y1="6.87" x2="5.3" y2="-42.87" fill="#666" stroke="#666" stroke-miterlimit="10" stroke-width="0.25" opacity="0.15"/><line x1="-17.3" y1="6.87" x2="3.3" y2="-42.87" fill="#666" stroke="#666" stroke-miterlimit="10" stroke-width="0.25" opacity="0.15"/><line x1="-19.3" y1="6.87" x2="1.3" y2="-42.87" fill="#666" stroke="#666" stroke-miterlimit="10" stroke-width="0.25" opacity="0.15"/><line x1="0.7" y1="4.47" x2="21.3" y2="-45.27" fill="#666" stroke="#666" stroke-miterlimit="10" stroke-width="0.25" opacity="0.15"/><line x1="-1.3" y1="4.47" x2="19.3" y2="-45.27" fill="#666" stroke="#666" stroke-miterlimit="10" stroke-width="0.25" opacity="0.15"/><line x1="-3.3" y1="4.47" x2="17.3" y2="-45.27" fill="#666" stroke="#666" stroke-miterlimit="10" stroke-width="0.25" opacity="0.15"/><line x1="-5.3" y1="4.47" x2="15.3" y2="-45.27" fill="#666" stroke="#666" stroke-miterlimit="10" stroke-width="0.25" opacity="0.15"/><line x1="-7.3" y1="4.47" x2="13.3" y2="-45.27" fill="#666" stroke="#666" stroke-miterlimit="10" stroke-width="0.25" opacity="0.15"/><line x1="-9.3" y1="4.47" x2="11.3" y2="-45.27" fill="#666" stroke="#666" stroke-miterlimit="10" stroke-width="0.25" opacity="0.15"/><line x1="-11.3" y1="4.47" x2="9.3" y2="-45.27" fill="#666" stroke="#666" stroke-miterlimit="10" stroke-width="0.25" opacity="0.15"/><line x1="-13.3" y1="4.47" x2="7.3" y2="-45.27" fill="#666" stroke="#666" stroke-miterlimit="10" stroke-width="0.25" opacity="0.15"/><line x1="-15.3" y1="4.47" x2="5.3" y2="-45.27" fill="#666" stroke="#666" stroke-miterlimit="10" stroke-width="0.25" opacity="0.15"/><line x1="-17.3" y1="4.47" x2="3.3" y2="-45.27" fill="#666" stroke="#666" stroke-miterlimit="10" stroke-width="0.25" opacity="0.15"/><line x1="-19.3" y1="4.47" x2="1.3" y2="-45.27" fill="#666" stroke="#666" stroke-miterlimit="10" stroke-width="0.25" opacity="0.15"/><line x1="0.7" y1="2.07" x2="21.3" y2="-47.67" fill="#666" stroke="#666" stroke-miterlimit="10" stroke-width="0.25" opacity="0.15"/><line x1="-1.3" y1="2.07" x2="19.3" y2="-47.67" fill="#666" stroke="#666" stroke-miterlimit="10" stroke-width="0.25" opacity="0.15"/><line x1="-3.3" y1="2.07" x2="17.3" y2="-47.67" fill="#666" stroke="#666" stroke-miterlimit="10" stroke-width="0.25" opacity="0.15"/><line x1="-5.3" y1="2.07" x2="15.3" y2="-47.67" fill="#666" stroke="#666" stroke-miterlimit="10" stroke-width="0.25" opacity="0.15"/><line x1="-7.3" y1="2.07" x2="13.3" y2="-47.67" fill="#666" stroke="#666" stroke-miterlimit="10" stroke-width="0.25" opacity="0.15"/><line x1="-9.3" y1="2.07" x2="11.3" y2="-47.67" fill="#666" stroke="#666" stroke-miterlimit="10" stroke-width="0.25" opacity="0.15"/><line x1="-11.3" y1="2.07" x2="9.3" y2="-47.67" fill="#666" stroke="#666" stroke-miterlimit="10" stroke-width="0.25" opacity="0.15"/><line x1="-13.3" y1="2.07" x2="7.3" y2="-47.67" fill="#666" stroke="#666" stroke-miterlimit="10" stroke-width="0.25" opacity="0.15"/><line x1="-15.3" y1="2.07" x2="5.3" y2="-47.67" fill="#666" stroke="#666" stroke-miterlimit="10" stroke-width="0.25" opacity="0.15"/><line x1="-17.3" y1="2.07" x2="3.3" y2="-47.67" fill="#666" stroke="#666" stroke-miterlimit="10" stroke-width="0.25" opacity="0.15"/><line x1="-19.3" y1="2.07" x2="1.3" y2="-47.67" fill="#666" stroke="#666" stroke-miterlimit="10" stroke-width="0.25" opacity="0.15"/></pattern></defs><g id="图层_2" data-name="图层 2"><g id="图层_1-2" data-name="图层 1"><g opacity="0.5"><path d="M58.64,0c-7,0-11.91,5-11.91,13.71s4.86,13.93,11.91,13.93,11.88-5.29,11.88-13.93S65.7,0,58.64,0Zm0,23.07c-4,0-6.51-3.67-6.51-9.36s2.52-9.17,6.51-9.17S65.16,8,65.16,13.71,62.6,23.07,58.64,23.07ZM0,27.14H5.26V16.31h9.46v-4.4H5.26v-7H16.34V.47H0ZM72.25,4.9h7.53V27.14H85V4.9h7.56V.47H72.25ZM31,0C23.9,0,19,5,19,13.71S23.9,27.64,31,27.64s11.88-5.29,11.88-13.93S38,0,31,0Zm0,23.07c-4,0-6.52-3.67-6.52-9.36S27,4.54,31,4.54,37.47,8,37.47,13.71,34.92,23.07,31,23.07ZM105.66.47H97V27.14h5.26v-9.5h3.56c5.76,0,10.3-2.74,10.3-8.79C116.1,2.56,111.56.47,105.66.47Zm-.18,13h-3.24V4.68h3.06c3.67,0,5.65,1,5.65,4.17S109.15,13.46,105.48,13.46Zm34.7-4.93c0-6.08-4.43-8.06-10-8.06H121V27.14h5.26V17.06H130l5.47,10.08h5.9l-6.26-10.91A7.66,7.66,0,0,0,140.18,8.53Zm-10.51,4.36h-3.45V4.68h3.45c3.46,0,5.36,1,5.36,3.85S133.13,12.89,129.67,12.89ZM182,4.9h7.52V27.14h5.25V4.9h7.56V.47H182Zm35.6,7.45-3.49-1.44C211.86,10,210,9.29,210,7.34c0-1.72,1.44-2.8,3.81-2.8a8.53,8.53,0,0,1,5.69,2.23l2.66-3.31A11.83,11.83,0,0,0,213.8,0c-5.36,0-9.18,3.35-9.18,7.7,0,3.89,2.74,6.05,5.4,7.13l3.57,1.51c2.37,1.05,4,1.66,4,3.67,0,1.84-1.44,3.06-4.25,3.06a10.55,10.55,0,0,1-6.8-2.95l-3,3.64a14.19,14.19,0,0,0,9.72,3.88c6.12,0,9.75-3.7,9.75-8.06C223,15.77,220.86,13.68,217.62,12.35Zm-45-1.16c0,3,.43,6.56.72,9.33h-.18l-2.7-5.76L162.68.47h-5.36V27.14h5V16.38c0-3.06-.43-6.41-.65-9.29h.18l2.7,5.72,7.74,14.33h5.36V.47h-5Zm-27.14,16h5.25V.47h-5.25Z" fill="url(#斜线)"/></g></g></g></svg>