<svg xmlns="http://www.w3.org/2000/svg" xmlns:xlink="http://www.w3.org/1999/xlink" viewBox="0 0 178.05 27.64"><defs><pattern id="斜线" data-name="斜线" width="2" height="2.4" patternUnits="userSpaceOnUse" viewBox="0 0 2 2.4"><rect width="2" height="2.4" fill="none"/><line x1="0.7" y1="50.07" x2="21.3" y2="0.33" fill="#666" stroke="#666" stroke-miterlimit="10" stroke-width="0.25" opacity="0.15"/><line x1="-1.3" y1="50.07" x2="19.3" y2="0.33" fill="#666" stroke="#666" stroke-miterlimit="10" stroke-width="0.25" opacity="0.15"/><line x1="-3.3" y1="50.07" x2="17.3" y2="0.33" fill="#666" stroke="#666" stroke-miterlimit="10" stroke-width="0.25" opacity="0.15"/><line x1="-5.3" y1="50.07" x2="15.3" y2="0.33" fill="#666" stroke="#666" stroke-miterlimit="10" stroke-width="0.25" opacity="0.15"/><line x1="-7.3" y1="50.07" x2="13.3" y2="0.33" fill="#666" stroke="#666" stroke-miterlimit="10" stroke-width="0.25" opacity="0.15"/><line x1="-9.3" y1="50.07" x2="11.3" y2="0.33" fill="#666" stroke="#666" stroke-miterlimit="10" stroke-width="0.25" opacity="0.15"/><line x1="-11.3" y1="50.07" x2="9.3" y2="0.33" fill="#666" stroke="#666" stroke-miterlimit="10" stroke-width="0.25" opacity="0.15"/><line x1="-13.3" y1="50.07" x2="7.3" y2="0.33" fill="#666" stroke="#666" stroke-miterlimit="10" stroke-width="0.25" opacity="0.15"/><line x1="-15.3" y1="50.07" x2="5.3" y2="0.33" fill="#666" stroke="#666" stroke-miterlimit="10" stroke-width="0.25" opacity="0.15"/><line x1="-17.3" y1="50.07" x2="3.3" y2="0.33" fill="#666" stroke="#666" stroke-miterlimit="10" stroke-width="0.25" opacity="0.15"/><line x1="-19.3" y1="50.07" x2="1.3" y2="0.33" fill="#666" stroke="#666" stroke-miterlimit="10" stroke-width="0.25" opacity="0.15"/><line x1="0.7" y1="47.67" x2="21.3" y2="-2.07" fill="#666" stroke="#666" stroke-miterlimit="10" stroke-width="0.25" opacity="0.15"/><line x1="-1.3" y1="47.67" x2="19.3" y2="-2.07" fill="#666" stroke="#666" stroke-miterlimit="10" stroke-width="0.25" opacity="0.15"/><line x1="-3.3" y1="47.67" x2="17.3" y2="-2.07" fill="#666" stroke="#666" stroke-miterlimit="10" stroke-width="0.25" opacity="0.15"/><line x1="-5.3" y1="47.67" x2="15.3" y2="-2.07" fill="#666" stroke="#666" stroke-miterlimit="10" stroke-width="0.25" opacity="0.15"/><line x1="-7.3" y1="47.67" x2="13.3" y2="-2.07" fill="#666" stroke="#666" stroke-miterlimit="10" stroke-width="0.25" opacity="0.15"/><line x1="-9.3" y1="47.67" x2="11.3" y2="-2.07" fill="#666" stroke="#666" stroke-miterlimit="10" stroke-width="0.25" opacity="0.15"/><line x1="-11.3" y1="47.67" x2="9.3" y2="-2.07" fill="#666" stroke="#666" stroke-miterlimit="10" stroke-width="0.25" opacity="0.15"/><line x1="-13.3" y1="47.67" x2="7.3" y2="-2.07" fill="#666" stroke="#666" stroke-miterlimit="10" stroke-width="0.25" opacity="0.15"/><line x1="-15.3" y1="47.67" x2="5.3" y2="-2.07" fill="#666" stroke="#666" stroke-miterlimit="10" stroke-width="0.25" opacity="0.15"/><line x1="-17.3" y1="47.67" x2="3.3" y2="-2.07" fill="#666" stroke="#666" stroke-miterlimit="10" stroke-width="0.25" opacity="0.15"/><line x1="-19.3" y1="47.67" x2="1.3" y2="-2.07" fill="#666" stroke="#666" stroke-miterlimit="10" stroke-width="0.25" opacity="0.15"/><line x1="0.7" y1="45.27" x2="21.3" y2="-4.47" fill="#666" stroke="#666" stroke-miterlimit="10" stroke-width="0.25" opacity="0.15"/><line x1="-1.3" y1="45.27" x2="19.3" y2="-4.47" fill="#666" stroke="#666" stroke-miterlimit="10" stroke-width="0.25" opacity="0.15"/><line x1="-3.3" y1="45.27" x2="17.3" y2="-4.47" fill="#666" stroke="#666" stroke-miterlimit="10" stroke-width="0.25" opacity="0.15"/><line x1="-5.3" y1="45.27" x2="15.3" y2="-4.47" fill="#666" stroke="#666" stroke-miterlimit="10" stroke-width="0.25" opacity="0.15"/><line x1="-7.3" y1="45.27" x2="13.3" y2="-4.47" fill="#666" stroke="#666" stroke-miterlimit="10" stroke-width="0.25" opacity="0.15"/><line x1="-9.3" y1="45.27" x2="11.3" y2="-4.47" fill="#666" stroke="#666" stroke-miterlimit="10" stroke-width="0.25" opacity="0.15"/><line x1="-11.3" y1="45.27" x2="9.3" y2="-4.47" fill="#666" stroke="#666" stroke-miterlimit="10" stroke-width="0.25" opacity="0.15"/><line x1="-13.3" y1="45.27" x2="7.3" y2="-4.47" fill="#666" stroke="#666" stroke-miterlimit="10" stroke-width="0.25" opacity="0.15"/><line x1="-15.3" y1="45.27" x2="5.3" y2="-4.47" fill="#666" stroke="#666" stroke-miterlimit="10" stroke-width="0.25" opacity="0.15"/><line x1="-17.3" y1="45.27" x2="3.3" y2="-4.47" fill="#666" stroke="#666" stroke-miterlimit="10" stroke-width="0.25" opacity="0.15"/><line x1="-19.3" y1="45.27" x2="1.3" y2="-4.47" fill="#666" stroke="#666" stroke-miterlimit="10" stroke-width="0.25" opacity="0.15"/><line x1="0.7" y1="42.87" x2="21.3" y2="-6.87" fill="#666" stroke="#666" stroke-miterlimit="10" stroke-width="0.25" opacity="0.15"/><line x1="-1.3" y1="42.87" x2="19.3" y2="-6.87" fill="#666" stroke="#666" stroke-miterlimit="10" stroke-width="0.25" opacity="0.15"/><line x1="-3.3" y1="42.87" x2="17.3" y2="-6.87" fill="#666" stroke="#666" stroke-miterlimit="10" stroke-width="0.25" opacity="0.15"/><line x1="-5.3" y1="42.87" x2="15.3" y2="-6.87" fill="#666" stroke="#666" stroke-miterlimit="10" stroke-width="0.25" opacity="0.15"/><line x1="-7.3" y1="42.87" x2="13.3" y2="-6.87" fill="#666" stroke="#666" stroke-miterlimit="10" stroke-width="0.25" opacity="0.15"/><line x1="-9.3" y1="42.87" x2="11.3" y2="-6.87" fill="#666" stroke="#666" stroke-miterlimit="10" stroke-width="0.25" opacity="0.15"/><line x1="-11.3" y1="42.87" x2="9.3" y2="-6.87" fill="#666" stroke="#666" stroke-miterlimit="10" stroke-width="0.25" opacity="0.15"/><line x1="-13.3" y1="42.87" x2="7.3" y2="-6.87" fill="#666" stroke="#666" stroke-miterlimit="10" stroke-width="0.25" opacity="0.15"/><line x1="-15.3" y1="42.87" x2="5.3" y2="-6.87" fill="#666" stroke="#666" stroke-miterlimit="10" stroke-width="0.25" opacity="0.15"/><line x1="-17.3" y1="42.87" x2="3.3" y2="-6.87" fill="#666" stroke="#666" stroke-miterlimit="10" stroke-width="0.25" opacity="0.15"/><line x1="-19.3" y1="42.87" x2="1.3" y2="-6.87" fill="#666" stroke="#666" stroke-miterlimit="10" stroke-width="0.25" opacity="0.15"/><line x1="0.7" y1="40.47" x2="21.3" y2="-9.27" fill="#666" stroke="#666" stroke-miterlimit="10" stroke-width="0.25" opacity="0.15"/><line x1="-1.3" y1="40.47" x2="19.3" y2="-9.27" fill="#666" stroke="#666" stroke-miterlimit="10" stroke-width="0.25" opacity="0.15"/><line x1="-3.3" y1="40.47" x2="17.3" y2="-9.27" fill="#666" stroke="#666" stroke-miterlimit="10" stroke-width="0.25" opacity="0.15"/><line x1="-5.3" y1="40.47" x2="15.3" y2="-9.27" fill="#666" stroke="#666" stroke-miterlimit="10" stroke-width="0.25" opacity="0.15"/><line x1="-7.3" y1="40.47" x2="13.3" y2="-9.27" fill="#666" stroke="#666" stroke-miterlimit="10" stroke-width="0.25" opacity="0.15"/><line x1="-9.3" y1="40.47" x2="11.3" y2="-9.27" fill="#666" stroke="#666" stroke-miterlimit="10" stroke-width="0.25" opacity="0.15"/><line x1="-11.3" y1="40.47" x2="9.3" y2="-9.27" fill="#666" stroke="#666" stroke-miterlimit="10" stroke-width="0.25" opacity="0.15"/><line x1="-13.3" y1="40.47" x2="7.3" y2="-9.27" fill="#666" stroke="#666" stroke-miterlimit="10" stroke-width="0.25" opacity="0.15"/><line x1="-15.3" y1="40.47" x2="5.3" y2="-9.27" fill="#666" stroke="#666" stroke-miterlimit="10" stroke-width="0.25" opacity="0.15"/><line x1="-17.3" y1="40.47" x2="3.3" y2="-9.27" fill="#666" stroke="#666" stroke-miterlimit="10" stroke-width="0.25" opacity="0.15"/><line x1="-19.3" y1="40.47" x2="1.3" y2="-9.27" fill="#666" stroke="#666" stroke-miterlimit="10" stroke-width="0.25" opacity="0.15"/><line x1="0.7" y1="38.07" x2="21.3" y2="-11.67" fill="#666" stroke="#666" stroke-miterlimit="10" stroke-width="0.25" opacity="0.15"/><line x1="-1.3" y1="38.07" x2="19.3" y2="-11.67" fill="#666" stroke="#666" stroke-miterlimit="10" stroke-width="0.25" opacity="0.15"/><line x1="-3.3" y1="38.07" x2="17.3" y2="-11.67" fill="#666" stroke="#666" stroke-miterlimit="10" stroke-width="0.25" opacity="0.15"/><line x1="-5.3" y1="38.07" x2="15.3" y2="-11.67" fill="#666" stroke="#666" stroke-miterlimit="10" stroke-width="0.25" opacity="0.15"/><line x1="-7.3" y1="38.07" x2="13.3" y2="-11.67" fill="#666" stroke="#666" stroke-miterlimit="10" stroke-width="0.25" opacity="0.15"/><line x1="-9.3" y1="38.07" x2="11.3" y2="-11.67" fill="#666" stroke="#666" stroke-miterlimit="10" stroke-width="0.25" opacity="0.15"/><line x1="-11.3" y1="38.07" x2="9.3" y2="-11.67" fill="#666" stroke="#666" stroke-miterlimit="10" stroke-width="0.25" opacity="0.15"/><line x1="-13.3" y1="38.07" x2="7.3" y2="-11.67" fill="#666" stroke="#666" stroke-miterlimit="10" stroke-width="0.25" opacity="0.15"/><line x1="-15.3" y1="38.07" x2="5.3" y2="-11.67" fill="#666" stroke="#666" stroke-miterlimit="10" stroke-width="0.25" opacity="0.15"/><line x1="-17.3" y1="38.07" x2="3.3" y2="-11.67" fill="#666" stroke="#666" stroke-miterlimit="10" stroke-width="0.25" opacity="0.15"/><line x1="-19.3" y1="38.07" x2="1.3" y2="-11.67" fill="#666" stroke="#666" stroke-miterlimit="10" stroke-width="0.25" opacity="0.15"/><line x1="0.7" y1="35.67" x2="21.3" y2="-14.07" fill="#666" stroke="#666" stroke-miterlimit="10" stroke-width="0.25" opacity="0.15"/><line x1="-1.3" y1="35.67" x2="19.3" y2="-14.07" fill="#666" stroke="#666" stroke-miterlimit="10" stroke-width="0.25" opacity="0.15"/><line x1="-3.3" y1="35.67" x2="17.3" y2="-14.07" fill="#666" stroke="#666" stroke-miterlimit="10" stroke-width="0.25" opacity="0.15"/><line x1="-5.3" y1="35.67" x2="15.3" y2="-14.07" fill="#666" stroke="#666" stroke-miterlimit="10" stroke-width="0.25" opacity="0.15"/><line x1="-7.3" y1="35.67" x2="13.3" y2="-14.07" fill="#666" stroke="#666" stroke-miterlimit="10" stroke-width="0.25" opacity="0.15"/><line x1="-9.3" y1="35.67" x2="11.3" y2="-14.07" fill="#666" stroke="#666" stroke-miterlimit="10" stroke-width="0.25" opacity="0.15"/><line x1="-11.3" y1="35.67" x2="9.3" y2="-14.07" fill="#666" stroke="#666" stroke-miterlimit="10" stroke-width="0.25" opacity="0.15"/><line x1="-13.3" y1="35.67" x2="7.3" y2="-14.07" fill="#666" stroke="#666" stroke-miterlimit="10" stroke-width="0.25" opacity="0.15"/><line x1="-15.3" y1="35.67" x2="5.3" y2="-14.07" fill="#666" stroke="#666" stroke-miterlimit="10" stroke-width="0.25" opacity="0.15"/><line x1="-17.3" y1="35.67" x2="3.3" y2="-14.07" fill="#666" stroke="#666" stroke-miterlimit="10" stroke-width="0.25" opacity="0.15"/><line x1="-19.3" y1="35.67" x2="1.3" y2="-14.07" fill="#666" stroke="#666" stroke-miterlimit="10" stroke-width="0.25" opacity="0.15"/><line x1="0.7" y1="33.27" x2="21.3" y2="-16.47" fill="#666" stroke="#666" stroke-miterlimit="10" stroke-width="0.25" opacity="0.15"/><line x1="-1.3" y1="33.27" x2="19.3" y2="-16.47" fill="#666" stroke="#666" stroke-miterlimit="10" stroke-width="0.25" opacity="0.15"/><line x1="-3.3" y1="33.27" x2="17.3" y2="-16.47" fill="#666" stroke="#666" stroke-miterlimit="10" stroke-width="0.25" opacity="0.15"/><line x1="-5.3" y1="33.27" x2="15.3" y2="-16.47" fill="#666" stroke="#666" stroke-miterlimit="10" stroke-width="0.25" opacity="0.15"/><line x1="-7.3" y1="33.27" x2="13.3" y2="-16.47" fill="#666" stroke="#666" stroke-miterlimit="10" stroke-width="0.25" opacity="0.15"/><line x1="-9.3" y1="33.27" x2="11.3" y2="-16.47" fill="#666" stroke="#666" stroke-miterlimit="10" stroke-width="0.25" opacity="0.15"/><line x1="-11.3" y1="33.27" x2="9.3" y2="-16.47" fill="#666" stroke="#666" stroke-miterlimit="10" stroke-width="0.25" opacity="0.15"/><line x1="-13.3" y1="33.27" x2="7.3" y2="-16.47" fill="#666" stroke="#666" stroke-miterlimit="10" stroke-width="0.25" opacity="0.15"/><line x1="-15.3" y1="33.27" x2="5.3" y2="-16.47" fill="#666" stroke="#666" stroke-miterlimit="10" stroke-width="0.25" opacity="0.15"/><line x1="-17.3" y1="33.27" x2="3.3" y2="-16.47" fill="#666" stroke="#666" stroke-miterlimit="10" stroke-width="0.25" opacity="0.15"/><line x1="-19.3" y1="33.27" x2="1.3" y2="-16.47" fill="#666" stroke="#666" stroke-miterlimit="10" stroke-width="0.25" opacity="0.15"/><line x1="0.7" y1="30.87" x2="21.3" y2="-18.87" fill="#666" stroke="#666" stroke-miterlimit="10" stroke-width="0.25" opacity="0.15"/><line x1="-1.3" y1="30.87" x2="19.3" y2="-18.87" fill="#666" stroke="#666" stroke-miterlimit="10" stroke-width="0.25" opacity="0.15"/><line x1="-3.3" y1="30.87" x2="17.3" y2="-18.87" fill="#666" stroke="#666" stroke-miterlimit="10" stroke-width="0.25" opacity="0.15"/><line x1="-5.3" y1="30.87" x2="15.3" y2="-18.87" fill="#666" stroke="#666" stroke-miterlimit="10" stroke-width="0.25" opacity="0.15"/><line x1="-7.3" y1="30.87" x2="13.3" y2="-18.87" fill="#666" stroke="#666" stroke-miterlimit="10" stroke-width="0.25" opacity="0.15"/><line x1="-9.3" y1="30.87" x2="11.3" y2="-18.87" fill="#666" stroke="#666" stroke-miterlimit="10" stroke-width="0.25" opacity="0.15"/><line x1="-11.3" y1="30.87" x2="9.3" y2="-18.87" fill="#666" stroke="#666" stroke-miterlimit="10" stroke-width="0.25" opacity="0.15"/><line x1="-13.3" y1="30.87" x2="7.3" y2="-18.87" fill="#666" stroke="#666" stroke-miterlimit="10" stroke-width="0.25" opacity="0.15"/><line x1="-15.3" y1="30.87" x2="5.3" y2="-18.87" fill="#666" stroke="#666" stroke-miterlimit="10" stroke-width="0.25" opacity="0.15"/><line x1="-17.3" y1="30.87" x2="3.3" y2="-18.87" fill="#666" stroke="#666" stroke-miterlimit="10" stroke-width="0.25" opacity="0.15"/><line x1="-19.3" y1="30.87" x2="1.3" y2="-18.87" fill="#666" stroke="#666" stroke-miterlimit="10" stroke-width="0.25" opacity="0.15"/><line x1="0.7" y1="28.47" x2="21.3" y2="-21.27" fill="#666" stroke="#666" stroke-miterlimit="10" stroke-width="0.25" opacity="0.15"/><line x1="-1.3" y1="28.47" x2="19.3" y2="-21.27" fill="#666" stroke="#666" stroke-miterlimit="10" stroke-width="0.25" opacity="0.15"/><line x1="-3.3" y1="28.47" x2="17.3" y2="-21.27" fill="#666" stroke="#666" stroke-miterlimit="10" stroke-width="0.25" opacity="0.15"/><line x1="-5.3" y1="28.47" x2="15.3" y2="-21.27" fill="#666" stroke="#666" stroke-miterlimit="10" stroke-width="0.25" opacity="0.15"/><line x1="-7.3" y1="28.47" x2="13.3" y2="-21.27" fill="#666" stroke="#666" stroke-miterlimit="10" stroke-width="0.25" opacity="0.15"/><line x1="-9.3" y1="28.47" x2="11.3" y2="-21.27" fill="#666" stroke="#666" stroke-miterlimit="10" stroke-width="0.25" opacity="0.15"/><line x1="-11.3" y1="28.47" x2="9.3" y2="-21.27" fill="#666" stroke="#666" stroke-miterlimit="10" stroke-width="0.25" opacity="0.15"/><line x1="-13.3" y1="28.47" x2="7.3" y2="-21.27" fill="#666" stroke="#666" stroke-miterlimit="10" stroke-width="0.25" opacity="0.15"/><line x1="-15.3" y1="28.47" x2="5.3" y2="-21.27" fill="#666" stroke="#666" stroke-miterlimit="10" stroke-width="0.25" opacity="0.15"/><line x1="-17.3" y1="28.47" x2="3.3" y2="-21.27" fill="#666" stroke="#666" stroke-miterlimit="10" stroke-width="0.25" opacity="0.15"/><line x1="-19.3" y1="28.47" x2="1.3" y2="-21.27" fill="#666" stroke="#666" stroke-miterlimit="10" stroke-width="0.25" opacity="0.15"/><line x1="0.7" y1="26.07" x2="21.3" y2="-23.67" fill="#666" stroke="#666" stroke-miterlimit="10" stroke-width="0.25" opacity="0.15"/><line x1="-1.3" y1="26.07" x2="19.3" y2="-23.67" fill="#666" stroke="#666" stroke-miterlimit="10" stroke-width="0.25" opacity="0.15"/><line x1="-3.3" y1="26.07" x2="17.3" y2="-23.67" fill="#666" stroke="#666" stroke-miterlimit="10" stroke-width="0.25" opacity="0.15"/><line x1="-5.3" y1="26.07" x2="15.3" y2="-23.67" fill="#666" stroke="#666" stroke-miterlimit="10" stroke-width="0.25" opacity="0.15"/><line x1="-7.3" y1="26.07" x2="13.3" y2="-23.67" fill="#666" stroke="#666" stroke-miterlimit="10" stroke-width="0.25" opacity="0.15"/><line x1="-9.3" y1="26.07" x2="11.3" y2="-23.67" fill="#666" stroke="#666" stroke-miterlimit="10" stroke-width="0.25" opacity="0.15"/><line x1="-11.3" y1="26.07" x2="9.3" y2="-23.67" fill="#666" stroke="#666" stroke-miterlimit="10" stroke-width="0.25" opacity="0.15"/><line x1="-13.3" y1="26.07" x2="7.3" y2="-23.67" fill="#666" stroke="#666" stroke-miterlimit="10" stroke-width="0.25" opacity="0.15"/><line x1="-15.3" y1="26.07" x2="5.3" y2="-23.67" fill="#666" stroke="#666" stroke-miterlimit="10" stroke-width="0.25" opacity="0.15"/><line x1="-17.3" y1="26.07" x2="3.3" y2="-23.67" fill="#666" stroke="#666" stroke-miterlimit="10" stroke-width="0.25" opacity="0.15"/><line x1="-19.3" y1="26.07" x2="1.3" y2="-23.67" fill="#666" stroke="#666" stroke-miterlimit="10" stroke-width="0.25" opacity="0.15"/><line x1="0.7" y1="23.67" x2="21.3" y2="-26.07" fill="#666" stroke="#666" stroke-miterlimit="10" stroke-width="0.25" opacity="0.15"/><line x1="-1.3" y1="23.67" x2="19.3" y2="-26.07" fill="#666" stroke="#666" stroke-miterlimit="10" stroke-width="0.25" opacity="0.15"/><line x1="-3.3" y1="23.67" x2="17.3" y2="-26.07" fill="#666" stroke="#666" stroke-miterlimit="10" stroke-width="0.25" opacity="0.15"/><line x1="-5.3" y1="23.67" x2="15.3" y2="-26.07" fill="#666" stroke="#666" stroke-miterlimit="10" stroke-width="0.25" opacity="0.15"/><line x1="-7.3" y1="23.67" x2="13.3" y2="-26.07" fill="#666" stroke="#666" stroke-miterlimit="10" stroke-width="0.25" opacity="0.15"/><line x1="-9.3" y1="23.67" x2="11.3" y2="-26.07" fill="#666" stroke="#666" stroke-miterlimit="10" stroke-width="0.25" opacity="0.15"/><line x1="-11.3" y1="23.67" x2="9.3" y2="-26.07" fill="#666" stroke="#666" stroke-miterlimit="10" stroke-width="0.25" opacity="0.15"/><line x1="-13.3" y1="23.67" x2="7.3" y2="-26.07" fill="#666" stroke="#666" stroke-miterlimit="10" stroke-width="0.25" opacity="0.15"/><line x1="-15.3" y1="23.67" x2="5.3" y2="-26.07" fill="#666" stroke="#666" stroke-miterlimit="10" stroke-width="0.25" opacity="0.15"/><line x1="-17.3" y1="23.67" x2="3.3" y2="-26.07" fill="#666" stroke="#666" stroke-miterlimit="10" stroke-width="0.25" opacity="0.15"/><line x1="-19.3" y1="23.67" x2="1.3" y2="-26.07" fill="#666" stroke="#666" stroke-miterlimit="10" stroke-width="0.25" opacity="0.15"/><line x1="0.7" y1="21.27" x2="21.3" y2="-28.47" fill="#666" stroke="#666" stroke-miterlimit="10" stroke-width="0.25" opacity="0.15"/><line x1="-1.3" y1="21.27" x2="19.3" y2="-28.47" fill="#666" stroke="#666" stroke-miterlimit="10" stroke-width="0.25" opacity="0.15"/><line x1="-3.3" y1="21.27" x2="17.3" y2="-28.47" fill="#666" stroke="#666" stroke-miterlimit="10" stroke-width="0.25" opacity="0.15"/><line x1="-5.3" y1="21.27" x2="15.3" y2="-28.47" fill="#666" stroke="#666" stroke-miterlimit="10" stroke-width="0.25" opacity="0.15"/><line x1="-7.3" y1="21.27" x2="13.3" y2="-28.47" fill="#666" stroke="#666" stroke-miterlimit="10" stroke-width="0.25" opacity="0.15"/><line x1="-9.3" y1="21.27" x2="11.3" y2="-28.47" fill="#666" stroke="#666" stroke-miterlimit="10" stroke-width="0.25" opacity="0.15"/><line x1="-11.3" y1="21.27" x2="9.3" y2="-28.47" fill="#666" stroke="#666" stroke-miterlimit="10" stroke-width="0.25" opacity="0.15"/><line x1="-13.3" y1="21.27" x2="7.3" y2="-28.47" fill="#666" stroke="#666" stroke-miterlimit="10" stroke-width="0.25" opacity="0.15"/><line x1="-15.3" y1="21.27" x2="5.3" y2="-28.47" fill="#666" stroke="#666" stroke-miterlimit="10" stroke-width="0.25" opacity="0.15"/><line x1="-17.3" y1="21.27" x2="3.3" y2="-28.47" fill="#666" stroke="#666" stroke-miterlimit="10" stroke-width="0.25" opacity="0.15"/><line x1="-19.3" y1="21.27" x2="1.3" y2="-28.47" fill="#666" stroke="#666" stroke-miterlimit="10" stroke-width="0.25" opacity="0.15"/><line x1="0.7" y1="18.87" x2="21.3" y2="-30.87" fill="#666" stroke="#666" stroke-miterlimit="10" stroke-width="0.25" opacity="0.15"/><line x1="-1.3" y1="18.87" x2="19.3" y2="-30.87" fill="#666" stroke="#666" stroke-miterlimit="10" stroke-width="0.25" opacity="0.15"/><line x1="-3.3" y1="18.87" x2="17.3" y2="-30.87" fill="#666" stroke="#666" stroke-miterlimit="10" stroke-width="0.25" opacity="0.15"/><line x1="-5.3" y1="18.87" x2="15.3" y2="-30.87" fill="#666" stroke="#666" stroke-miterlimit="10" stroke-width="0.25" opacity="0.15"/><line x1="-7.3" y1="18.87" x2="13.3" y2="-30.87" fill="#666" stroke="#666" stroke-miterlimit="10" stroke-width="0.25" opacity="0.15"/><line x1="-9.3" y1="18.87" x2="11.3" y2="-30.87" fill="#666" stroke="#666" stroke-miterlimit="10" stroke-width="0.25" opacity="0.15"/><line x1="-11.3" y1="18.87" x2="9.3" y2="-30.87" fill="#666" stroke="#666" stroke-miterlimit="10" stroke-width="0.25" opacity="0.15"/><line x1="-13.3" y1="18.87" x2="7.3" y2="-30.87" fill="#666" stroke="#666" stroke-miterlimit="10" stroke-width="0.25" opacity="0.15"/><line x1="-15.3" y1="18.87" x2="5.3" y2="-30.87" fill="#666" stroke="#666" stroke-miterlimit="10" stroke-width="0.25" opacity="0.15"/><line x1="-17.3" y1="18.87" x2="3.3" y2="-30.87" fill="#666" stroke="#666" stroke-miterlimit="10" stroke-width="0.25" opacity="0.15"/><line x1="-19.3" y1="18.87" x2="1.3" y2="-30.87" fill="#666" stroke="#666" stroke-miterlimit="10" stroke-width="0.25" opacity="0.15"/><line x1="0.7" y1="16.47" x2="21.3" y2="-33.27" fill="#666" stroke="#666" stroke-miterlimit="10" stroke-width="0.25" opacity="0.15"/><line x1="-1.3" y1="16.47" x2="19.3" y2="-33.27" fill="#666" stroke="#666" stroke-miterlimit="10" stroke-width="0.25" opacity="0.15"/><line x1="-3.3" y1="16.47" x2="17.3" y2="-33.27" fill="#666" stroke="#666" stroke-miterlimit="10" stroke-width="0.25" opacity="0.15"/><line x1="-5.3" y1="16.47" x2="15.3" y2="-33.27" fill="#666" stroke="#666" stroke-miterlimit="10" stroke-width="0.25" opacity="0.15"/><line x1="-7.3" y1="16.47" x2="13.3" y2="-33.27" fill="#666" stroke="#666" stroke-miterlimit="10" stroke-width="0.25" opacity="0.15"/><line x1="-9.3" y1="16.47" x2="11.3" y2="-33.27" fill="#666" stroke="#666" stroke-miterlimit="10" stroke-width="0.25" opacity="0.15"/><line x1="-11.3" y1="16.47" x2="9.3" y2="-33.27" fill="#666" stroke="#666" stroke-miterlimit="10" stroke-width="0.25" opacity="0.15"/><line x1="-13.3" y1="16.47" x2="7.3" y2="-33.27" fill="#666" stroke="#666" stroke-miterlimit="10" stroke-width="0.25" opacity="0.15"/><line x1="-15.3" y1="16.47" x2="5.3" y2="-33.27" fill="#666" stroke="#666" stroke-miterlimit="10" stroke-width="0.25" opacity="0.15"/><line x1="-17.3" y1="16.47" x2="3.3" y2="-33.27" fill="#666" stroke="#666" stroke-miterlimit="10" stroke-width="0.25" opacity="0.15"/><line x1="-19.3" y1="16.47" x2="1.3" y2="-33.27" fill="#666" stroke="#666" stroke-miterlimit="10" stroke-width="0.25" opacity="0.15"/><line x1="0.7" y1="14.07" x2="21.3" y2="-35.67" fill="#666" stroke="#666" stroke-miterlimit="10" stroke-width="0.25" opacity="0.15"/><line x1="-1.3" y1="14.07" x2="19.3" y2="-35.67" fill="#666" stroke="#666" stroke-miterlimit="10" stroke-width="0.25" opacity="0.15"/><line x1="-3.3" y1="14.07" x2="17.3" y2="-35.67" fill="#666" stroke="#666" stroke-miterlimit="10" stroke-width="0.25" opacity="0.15"/><line x1="-5.3" y1="14.07" x2="15.3" y2="-35.67" fill="#666" stroke="#666" stroke-miterlimit="10" stroke-width="0.25" opacity="0.15"/><line x1="-7.3" y1="14.07" x2="13.3" y2="-35.67" fill="#666" stroke="#666" stroke-miterlimit="10" stroke-width="0.25" opacity="0.15"/><line x1="-9.3" y1="14.07" x2="11.3" y2="-35.67" fill="#666" stroke="#666" stroke-miterlimit="10" stroke-width="0.25" opacity="0.15"/><line x1="-11.3" y1="14.07" x2="9.3" y2="-35.67" fill="#666" stroke="#666" stroke-miterlimit="10" stroke-width="0.25" opacity="0.15"/><line x1="-13.3" y1="14.07" x2="7.3" y2="-35.67" fill="#666" stroke="#666" stroke-miterlimit="10" stroke-width="0.25" opacity="0.15"/><line x1="-15.3" y1="14.07" x2="5.3" y2="-35.67" fill="#666" stroke="#666" stroke-miterlimit="10" stroke-width="0.25" opacity="0.15"/><line x1="-17.3" y1="14.07" x2="3.3" y2="-35.67" fill="#666" stroke="#666" stroke-miterlimit="10" stroke-width="0.25" opacity="0.15"/><line x1="-19.3" y1="14.07" x2="1.3" y2="-35.67" fill="#666" stroke="#666" stroke-miterlimit="10" stroke-width="0.25" opacity="0.15"/><line x1="0.7" y1="11.67" x2="21.3" y2="-38.07" fill="#666" stroke="#666" stroke-miterlimit="10" stroke-width="0.25" opacity="0.15"/><line x1="-1.3" y1="11.67" x2="19.3" y2="-38.07" fill="#666" stroke="#666" stroke-miterlimit="10" stroke-width="0.25" opacity="0.15"/><line x1="-3.3" y1="11.67" x2="17.3" y2="-38.07" fill="#666" stroke="#666" stroke-miterlimit="10" stroke-width="0.25" opacity="0.15"/><line x1="-5.3" y1="11.67" x2="15.3" y2="-38.07" fill="#666" stroke="#666" stroke-miterlimit="10" stroke-width="0.25" opacity="0.15"/><line x1="-7.3" y1="11.67" x2="13.3" y2="-38.07" fill="#666" stroke="#666" stroke-miterlimit="10" stroke-width="0.25" opacity="0.15"/><line x1="-9.3" y1="11.67" x2="11.3" y2="-38.07" fill="#666" stroke="#666" stroke-miterlimit="10" stroke-width="0.25" opacity="0.15"/><line x1="-11.3" y1="11.67" x2="9.3" y2="-38.07" fill="#666" stroke="#666" stroke-miterlimit="10" stroke-width="0.25" opacity="0.15"/><line x1="-13.3" y1="11.67" x2="7.3" y2="-38.07" fill="#666" stroke="#666" stroke-miterlimit="10" stroke-width="0.25" opacity="0.15"/><line x1="-15.3" y1="11.67" x2="5.3" y2="-38.07" fill="#666" stroke="#666" stroke-miterlimit="10" stroke-width="0.25" opacity="0.15"/><line x1="-17.3" y1="11.67" x2="3.3" y2="-38.07" fill="#666" stroke="#666" stroke-miterlimit="10" stroke-width="0.25" opacity="0.15"/><line x1="-19.3" y1="11.67" x2="1.3" y2="-38.07" fill="#666" stroke="#666" stroke-miterlimit="10" stroke-width="0.25" opacity="0.15"/><line x1="0.7" y1="9.27" x2="21.3" y2="-40.47" fill="#666" stroke="#666" stroke-miterlimit="10" stroke-width="0.25" opacity="0.15"/><line x1="-1.3" y1="9.27" x2="19.3" y2="-40.47" fill="#666" stroke="#666" stroke-miterlimit="10" stroke-width="0.25" opacity="0.15"/><line x1="-3.3" y1="9.27" x2="17.3" y2="-40.47" fill="#666" stroke="#666" stroke-miterlimit="10" stroke-width="0.25" opacity="0.15"/><line x1="-5.3" y1="9.27" x2="15.3" y2="-40.47" fill="#666" stroke="#666" stroke-miterlimit="10" stroke-width="0.25" opacity="0.15"/><line x1="-7.3" y1="9.27" x2="13.3" y2="-40.47" fill="#666" stroke="#666" stroke-miterlimit="10" stroke-width="0.25" opacity="0.15"/><line x1="-9.3" y1="9.27" x2="11.3" y2="-40.47" fill="#666" stroke="#666" stroke-miterlimit="10" stroke-width="0.25" opacity="0.15"/><line x1="-11.3" y1="9.27" x2="9.3" y2="-40.47" fill="#666" stroke="#666" stroke-miterlimit="10" stroke-width="0.25" opacity="0.15"/><line x1="-13.3" y1="9.27" x2="7.3" y2="-40.47" fill="#666" stroke="#666" stroke-miterlimit="10" stroke-width="0.25" opacity="0.15"/><line x1="-15.3" y1="9.27" x2="5.3" y2="-40.47" fill="#666" stroke="#666" stroke-miterlimit="10" stroke-width="0.25" opacity="0.15"/><line x1="-17.3" y1="9.27" x2="3.3" y2="-40.47" fill="#666" stroke="#666" stroke-miterlimit="10" stroke-width="0.25" opacity="0.15"/><line x1="-19.3" y1="9.27" x2="1.3" y2="-40.47" fill="#666" stroke="#666" stroke-miterlimit="10" stroke-width="0.25" opacity="0.15"/><line x1="0.7" y1="6.87" x2="21.3" y2="-42.87" fill="#666" stroke="#666" stroke-miterlimit="10" stroke-width="0.25" opacity="0.15"/><line x1="-1.3" y1="6.87" x2="19.3" y2="-42.87" fill="#666" stroke="#666" stroke-miterlimit="10" stroke-width="0.25" opacity="0.15"/><line x1="-3.3" y1="6.87" x2="17.3" y2="-42.87" fill="#666" stroke="#666" stroke-miterlimit="10" stroke-width="0.25" opacity="0.15"/><line x1="-5.3" y1="6.87" x2="15.3" y2="-42.87" fill="#666" stroke="#666" stroke-miterlimit="10" stroke-width="0.25" opacity="0.15"/><line x1="-7.3" y1="6.87" x2="13.3" y2="-42.87" fill="#666" stroke="#666" stroke-miterlimit="10" stroke-width="0.25" opacity="0.15"/><line x1="-9.3" y1="6.87" x2="11.3" y2="-42.87" fill="#666" stroke="#666" stroke-miterlimit="10" stroke-width="0.25" opacity="0.15"/><line x1="-11.3" y1="6.87" x2="9.3" y2="-42.87" fill="#666" stroke="#666" stroke-miterlimit="10" stroke-width="0.25" opacity="0.15"/><line x1="-13.3" y1="6.87" x2="7.3" y2="-42.87" fill="#666" stroke="#666" stroke-miterlimit="10" stroke-width="0.25" opacity="0.15"/><line x1="-15.3" y1="6.87" x2="5.3" y2="-42.87" fill="#666" stroke="#666" stroke-miterlimit="10" stroke-width="0.25" opacity="0.15"/><line x1="-17.3" y1="6.87" x2="3.3" y2="-42.87" fill="#666" stroke="#666" stroke-miterlimit="10" stroke-width="0.25" opacity="0.15"/><line x1="-19.3" y1="6.87" x2="1.3" y2="-42.87" fill="#666" stroke="#666" stroke-miterlimit="10" stroke-width="0.25" opacity="0.15"/><line x1="0.7" y1="4.47" x2="21.3" y2="-45.27" fill="#666" stroke="#666" stroke-miterlimit="10" stroke-width="0.25" opacity="0.15"/><line x1="-1.3" y1="4.47" x2="19.3" y2="-45.27" fill="#666" stroke="#666" stroke-miterlimit="10" stroke-width="0.25" opacity="0.15"/><line x1="-3.3" y1="4.47" x2="17.3" y2="-45.27" fill="#666" stroke="#666" stroke-miterlimit="10" stroke-width="0.25" opacity="0.15"/><line x1="-5.3" y1="4.47" x2="15.3" y2="-45.27" fill="#666" stroke="#666" stroke-miterlimit="10" stroke-width="0.25" opacity="0.15"/><line x1="-7.3" y1="4.47" x2="13.3" y2="-45.27" fill="#666" stroke="#666" stroke-miterlimit="10" stroke-width="0.25" opacity="0.15"/><line x1="-9.3" y1="4.47" x2="11.3" y2="-45.27" fill="#666" stroke="#666" stroke-miterlimit="10" stroke-width="0.25" opacity="0.15"/><line x1="-11.3" y1="4.47" x2="9.3" y2="-45.27" fill="#666" stroke="#666" stroke-miterlimit="10" stroke-width="0.25" opacity="0.15"/><line x1="-13.3" y1="4.47" x2="7.3" y2="-45.27" fill="#666" stroke="#666" stroke-miterlimit="10" stroke-width="0.25" opacity="0.15"/><line x1="-15.3" y1="4.47" x2="5.3" y2="-45.27" fill="#666" stroke="#666" stroke-miterlimit="10" stroke-width="0.25" opacity="0.15"/><line x1="-17.3" y1="4.47" x2="3.3" y2="-45.27" fill="#666" stroke="#666" stroke-miterlimit="10" stroke-width="0.25" opacity="0.15"/><line x1="-19.3" y1="4.47" x2="1.3" y2="-45.27" fill="#666" stroke="#666" stroke-miterlimit="10" stroke-width="0.25" opacity="0.15"/><line x1="0.7" y1="2.07" x2="21.3" y2="-47.67" fill="#666" stroke="#666" stroke-miterlimit="10" stroke-width="0.25" opacity="0.15"/><line x1="-1.3" y1="2.07" x2="19.3" y2="-47.67" fill="#666" stroke="#666" stroke-miterlimit="10" stroke-width="0.25" opacity="0.15"/><line x1="-3.3" y1="2.07" x2="17.3" y2="-47.67" fill="#666" stroke="#666" stroke-miterlimit="10" stroke-width="0.25" opacity="0.15"/><line x1="-5.3" y1="2.07" x2="15.3" y2="-47.67" fill="#666" stroke="#666" stroke-miterlimit="10" stroke-width="0.25" opacity="0.15"/><line x1="-7.3" y1="2.07" x2="13.3" y2="-47.67" fill="#666" stroke="#666" stroke-miterlimit="10" stroke-width="0.25" opacity="0.15"/><line x1="-9.3" y1="2.07" x2="11.3" y2="-47.67" fill="#666" stroke="#666" stroke-miterlimit="10" stroke-width="0.25" opacity="0.15"/><line x1="-11.3" y1="2.07" x2="9.3" y2="-47.67" fill="#666" stroke="#666" stroke-miterlimit="10" stroke-width="0.25" opacity="0.15"/><line x1="-13.3" y1="2.07" x2="7.3" y2="-47.67" fill="#666" stroke="#666" stroke-miterlimit="10" stroke-width="0.25" opacity="0.15"/><line x1="-15.3" y1="2.07" x2="5.3" y2="-47.67" fill="#666" stroke="#666" stroke-miterlimit="10" stroke-width="0.25" opacity="0.15"/><line x1="-17.3" y1="2.07" x2="3.3" y2="-47.67" fill="#666" stroke="#666" stroke-miterlimit="10" stroke-width="0.25" opacity="0.15"/><line x1="-19.3" y1="2.07" x2="1.3" y2="-47.67" fill="#666" stroke="#666" stroke-miterlimit="10" stroke-width="0.25" opacity="0.15"/></pattern></defs><g id="图层_2" data-name="图层 2"><g id="图层_1-2" data-name="图层 1"><g opacity="0.5"><path d="M8.67.47H0V27.14H5.25v-9.5H8.82c5.76,0,10.29-2.74,10.29-8.79C19.11,2.56,14.58.47,8.67.47Zm-.17,13H5.25V4.68H8.31C12,4.68,14,5.72,14,8.85S12.17,13.46,8.5,13.46ZM43.2,8.53c0-6.08-4.43-8.06-10-8.06H24V27.14h5.25V17.06H33l5.48,10.08h5.9L38.09,16.23A7.66,7.66,0,0,0,43.2,8.53ZM32.69,12.89H29.23V4.68h3.46c3.45,0,5.36,1,5.36,3.85S36.14,12.89,32.69,12.89Zm140-.54-3.49-1.44c-2.27-.9-4.14-1.62-4.14-3.57,0-1.72,1.44-2.8,3.82-2.8a8.5,8.5,0,0,1,5.68,2.23l2.67-3.31A11.85,11.85,0,0,0,168.88,0c-5.37,0-9.18,3.35-9.18,7.7,0,3.89,2.73,6.05,5.39,7.13l3.57,1.51c2.37,1.05,4,1.66,4,3.67,0,1.84-1.44,3.06-4.24,3.06a10.61,10.61,0,0,1-6.81-2.95l-3,3.64a14.21,14.21,0,0,0,9.72,3.88c6.12,0,9.75-3.7,9.75-8.06C178.05,15.77,175.93,13.68,172.69,12.35ZM127.47,23.07c-4.24,0-7-3.49-7-9.32s3-9.21,7.06-9.21a7.06,7.06,0,0,1,5,2.23l2.78-3.35A10.88,10.88,0,0,0,127.47,0c-6.76,0-12.38,5.15-12.38,13.93s5.44,13.71,12.17,13.71a10.75,10.75,0,0,0,8.49-3.92L133,20.45A7.25,7.25,0,0,1,127.47,23.07ZM137.09,4.9h7.52V27.14h5.26V4.9h7.55V.47H137.09ZM59,0C52,0,47.12,5,47.12,13.71S52,27.64,59,27.64s11.88-5.29,11.88-13.93S66.09,0,59,0Zm0,23.07c-4,0-6.52-3.67-6.52-9.36S55,4.54,59,4.54,65.55,8,65.55,13.71,63,23.07,59,23.07Zm23.58-4.93c0,3.67-1.19,4.93-3.57,4.93-1.54,0-3-.82-4-2.77L71.46,23a8.66,8.66,0,0,0,8.24,4.68c5.69,0,8.21-4.06,8.21-9.07V.47H82.62Zm17-2.63H109V11.09H99.61V4.9h11V.47H94.36V27.14h16.7V22.71H99.61Z" fill="url(#斜线)"/></g></g></g></svg>