<svg xmlns="http://www.w3.org/2000/svg" xmlns:xlink="http://www.w3.org/1999/xlink" viewBox="0 0 162.07 27.64"><defs><pattern id="斜线" data-name="斜线" width="2" height="2.4" patternUnits="userSpaceOnUse" viewBox="0 0 2 2.4"><rect width="2" height="2.4" fill="none"/><line x1="0.7" y1="50.07" x2="21.3" y2="0.33" fill="#666" stroke="#666" stroke-miterlimit="10" stroke-width="0.25" opacity="0.15"/><line x1="-1.3" y1="50.07" x2="19.3" y2="0.33" fill="#666" stroke="#666" stroke-miterlimit="10" stroke-width="0.25" opacity="0.15"/><line x1="-3.3" y1="50.07" x2="17.3" y2="0.33" fill="#666" stroke="#666" stroke-miterlimit="10" stroke-width="0.25" opacity="0.15"/><line x1="-5.3" y1="50.07" x2="15.3" y2="0.33" fill="#666" stroke="#666" stroke-miterlimit="10" stroke-width="0.25" opacity="0.15"/><line x1="-7.3" y1="50.07" x2="13.3" y2="0.33" fill="#666" stroke="#666" stroke-miterlimit="10" stroke-width="0.25" opacity="0.15"/><line x1="-9.3" y1="50.07" x2="11.3" y2="0.33" fill="#666" stroke="#666" stroke-miterlimit="10" stroke-width="0.25" opacity="0.15"/><line x1="-11.3" y1="50.07" x2="9.3" y2="0.33" fill="#666" stroke="#666" stroke-miterlimit="10" stroke-width="0.25" opacity="0.15"/><line x1="-13.3" y1="50.07" x2="7.3" y2="0.33" fill="#666" stroke="#666" stroke-miterlimit="10" stroke-width="0.25" opacity="0.15"/><line x1="-15.3" y1="50.07" x2="5.3" y2="0.33" fill="#666" stroke="#666" stroke-miterlimit="10" stroke-width="0.25" opacity="0.15"/><line x1="-17.3" y1="50.07" x2="3.3" y2="0.33" fill="#666" stroke="#666" stroke-miterlimit="10" stroke-width="0.25" opacity="0.15"/><line x1="-19.3" y1="50.07" x2="1.3" y2="0.33" fill="#666" stroke="#666" stroke-miterlimit="10" stroke-width="0.25" opacity="0.15"/><line x1="0.7" y1="47.67" x2="21.3" y2="-2.07" fill="#666" stroke="#666" stroke-miterlimit="10" stroke-width="0.25" opacity="0.15"/><line x1="-1.3" y1="47.67" x2="19.3" y2="-2.07" fill="#666" stroke="#666" stroke-miterlimit="10" stroke-width="0.25" opacity="0.15"/><line x1="-3.3" y1="47.67" x2="17.3" y2="-2.07" fill="#666" stroke="#666" stroke-miterlimit="10" stroke-width="0.25" opacity="0.15"/><line x1="-5.3" y1="47.67" x2="15.3" y2="-2.07" fill="#666" stroke="#666" stroke-miterlimit="10" stroke-width="0.25" opacity="0.15"/><line x1="-7.3" y1="47.67" x2="13.3" y2="-2.07" fill="#666" stroke="#666" stroke-miterlimit="10" stroke-width="0.25" opacity="0.15"/><line x1="-9.3" y1="47.67" x2="11.3" y2="-2.07" fill="#666" stroke="#666" stroke-miterlimit="10" stroke-width="0.25" opacity="0.15"/><line x1="-11.3" y1="47.67" x2="9.3" y2="-2.07" fill="#666" stroke="#666" stroke-miterlimit="10" stroke-width="0.25" opacity="0.15"/><line x1="-13.3" y1="47.67" x2="7.3" y2="-2.07" fill="#666" stroke="#666" stroke-miterlimit="10" stroke-width="0.25" opacity="0.15"/><line x1="-15.3" y1="47.67" x2="5.3" y2="-2.07" fill="#666" stroke="#666" stroke-miterlimit="10" stroke-width="0.25" opacity="0.15"/><line x1="-17.3" y1="47.67" x2="3.3" y2="-2.07" fill="#666" stroke="#666" stroke-miterlimit="10" stroke-width="0.25" opacity="0.15"/><line x1="-19.3" y1="47.67" x2="1.3" y2="-2.07" fill="#666" stroke="#666" stroke-miterlimit="10" stroke-width="0.25" opacity="0.15"/><line x1="0.7" y1="45.27" x2="21.3" y2="-4.47" fill="#666" stroke="#666" stroke-miterlimit="10" stroke-width="0.25" opacity="0.15"/><line x1="-1.3" y1="45.27" x2="19.3" y2="-4.47" fill="#666" stroke="#666" stroke-miterlimit="10" stroke-width="0.25" opacity="0.15"/><line x1="-3.3" y1="45.27" x2="17.3" y2="-4.47" fill="#666" stroke="#666" stroke-miterlimit="10" stroke-width="0.25" opacity="0.15"/><line x1="-5.3" y1="45.27" x2="15.3" y2="-4.47" fill="#666" stroke="#666" stroke-miterlimit="10" stroke-width="0.25" opacity="0.15"/><line x1="-7.3" y1="45.27" x2="13.3" y2="-4.47" fill="#666" stroke="#666" stroke-miterlimit="10" stroke-width="0.25" opacity="0.15"/><line x1="-9.3" y1="45.27" x2="11.3" y2="-4.47" fill="#666" stroke="#666" stroke-miterlimit="10" stroke-width="0.25" opacity="0.15"/><line x1="-11.3" y1="45.27" x2="9.3" y2="-4.47" fill="#666" stroke="#666" stroke-miterlimit="10" stroke-width="0.25" opacity="0.15"/><line x1="-13.3" y1="45.27" x2="7.3" y2="-4.47" fill="#666" stroke="#666" stroke-miterlimit="10" stroke-width="0.25" opacity="0.15"/><line x1="-15.3" y1="45.27" x2="5.3" y2="-4.47" fill="#666" stroke="#666" stroke-miterlimit="10" stroke-width="0.25" opacity="0.15"/><line x1="-17.3" y1="45.27" x2="3.3" y2="-4.47" fill="#666" stroke="#666" stroke-miterlimit="10" stroke-width="0.25" opacity="0.15"/><line x1="-19.3" y1="45.27" x2="1.3" y2="-4.47" fill="#666" stroke="#666" stroke-miterlimit="10" stroke-width="0.25" opacity="0.15"/><line x1="0.7" y1="42.87" x2="21.3" y2="-6.87" fill="#666" stroke="#666" stroke-miterlimit="10" stroke-width="0.25" opacity="0.15"/><line x1="-1.3" y1="42.87" x2="19.3" y2="-6.87" fill="#666" stroke="#666" stroke-miterlimit="10" stroke-width="0.25" opacity="0.15"/><line x1="-3.3" y1="42.87" x2="17.3" y2="-6.87" fill="#666" stroke="#666" stroke-miterlimit="10" stroke-width="0.25" opacity="0.15"/><line x1="-5.3" y1="42.87" x2="15.3" y2="-6.87" fill="#666" stroke="#666" stroke-miterlimit="10" stroke-width="0.25" opacity="0.15"/><line x1="-7.3" y1="42.87" x2="13.3" y2="-6.87" fill="#666" stroke="#666" stroke-miterlimit="10" stroke-width="0.25" opacity="0.15"/><line x1="-9.3" y1="42.87" x2="11.3" y2="-6.87" fill="#666" stroke="#666" stroke-miterlimit="10" stroke-width="0.25" opacity="0.15"/><line x1="-11.3" y1="42.87" x2="9.3" y2="-6.87" fill="#666" stroke="#666" stroke-miterlimit="10" stroke-width="0.25" opacity="0.15"/><line x1="-13.3" y1="42.87" x2="7.3" y2="-6.87" fill="#666" stroke="#666" stroke-miterlimit="10" stroke-width="0.25" opacity="0.15"/><line x1="-15.3" y1="42.87" x2="5.3" y2="-6.87" fill="#666" stroke="#666" stroke-miterlimit="10" stroke-width="0.25" opacity="0.15"/><line x1="-17.3" y1="42.87" x2="3.3" y2="-6.87" fill="#666" stroke="#666" stroke-miterlimit="10" stroke-width="0.25" opacity="0.15"/><line x1="-19.3" y1="42.87" x2="1.3" y2="-6.87" fill="#666" stroke="#666" stroke-miterlimit="10" stroke-width="0.25" opacity="0.15"/><line x1="0.7" y1="40.47" x2="21.3" y2="-9.27" fill="#666" stroke="#666" stroke-miterlimit="10" stroke-width="0.25" opacity="0.15"/><line x1="-1.3" y1="40.47" x2="19.3" y2="-9.27" fill="#666" stroke="#666" stroke-miterlimit="10" stroke-width="0.25" opacity="0.15"/><line x1="-3.3" y1="40.47" x2="17.3" y2="-9.27" fill="#666" stroke="#666" stroke-miterlimit="10" stroke-width="0.25" opacity="0.15"/><line x1="-5.3" y1="40.47" x2="15.3" y2="-9.27" fill="#666" stroke="#666" stroke-miterlimit="10" stroke-width="0.25" opacity="0.15"/><line x1="-7.3" y1="40.47" x2="13.3" y2="-9.27" fill="#666" stroke="#666" stroke-miterlimit="10" stroke-width="0.25" opacity="0.15"/><line x1="-9.3" y1="40.47" x2="11.3" y2="-9.27" fill="#666" stroke="#666" stroke-miterlimit="10" stroke-width="0.25" opacity="0.15"/><line x1="-11.3" y1="40.47" x2="9.3" y2="-9.27" fill="#666" stroke="#666" stroke-miterlimit="10" stroke-width="0.25" opacity="0.15"/><line x1="-13.3" y1="40.47" x2="7.3" y2="-9.27" fill="#666" stroke="#666" stroke-miterlimit="10" stroke-width="0.25" opacity="0.15"/><line x1="-15.3" y1="40.47" x2="5.3" y2="-9.27" fill="#666" stroke="#666" stroke-miterlimit="10" stroke-width="0.25" opacity="0.15"/><line x1="-17.3" y1="40.47" x2="3.3" y2="-9.27" fill="#666" stroke="#666" stroke-miterlimit="10" stroke-width="0.25" opacity="0.15"/><line x1="-19.3" y1="40.47" x2="1.3" y2="-9.27" fill="#666" stroke="#666" stroke-miterlimit="10" stroke-width="0.25" opacity="0.15"/><line x1="0.7" y1="38.07" x2="21.3" y2="-11.67" fill="#666" stroke="#666" stroke-miterlimit="10" stroke-width="0.25" opacity="0.15"/><line x1="-1.3" y1="38.07" x2="19.3" y2="-11.67" fill="#666" stroke="#666" stroke-miterlimit="10" stroke-width="0.25" opacity="0.15"/><line x1="-3.3" y1="38.07" x2="17.3" y2="-11.67" fill="#666" stroke="#666" stroke-miterlimit="10" stroke-width="0.25" opacity="0.15"/><line x1="-5.3" y1="38.07" x2="15.3" y2="-11.67" fill="#666" stroke="#666" stroke-miterlimit="10" stroke-width="0.25" opacity="0.15"/><line x1="-7.3" y1="38.07" x2="13.3" y2="-11.67" fill="#666" stroke="#666" stroke-miterlimit="10" stroke-width="0.25" opacity="0.15"/><line x1="-9.3" y1="38.07" x2="11.3" y2="-11.67" fill="#666" stroke="#666" stroke-miterlimit="10" stroke-width="0.25" opacity="0.15"/><line x1="-11.3" y1="38.07" x2="9.3" y2="-11.67" fill="#666" stroke="#666" stroke-miterlimit="10" stroke-width="0.25" opacity="0.15"/><line x1="-13.3" y1="38.07" x2="7.3" y2="-11.67" fill="#666" stroke="#666" stroke-miterlimit="10" stroke-width="0.25" opacity="0.15"/><line x1="-15.3" y1="38.07" x2="5.3" y2="-11.67" fill="#666" stroke="#666" stroke-miterlimit="10" stroke-width="0.25" opacity="0.15"/><line x1="-17.3" y1="38.07" x2="3.3" y2="-11.67" fill="#666" stroke="#666" stroke-miterlimit="10" stroke-width="0.25" opacity="0.15"/><line x1="-19.3" y1="38.07" x2="1.3" y2="-11.67" fill="#666" stroke="#666" stroke-miterlimit="10" stroke-width="0.25" opacity="0.15"/><line x1="0.7" y1="35.67" x2="21.3" y2="-14.07" fill="#666" stroke="#666" stroke-miterlimit="10" stroke-width="0.25" opacity="0.15"/><line x1="-1.3" y1="35.67" x2="19.3" y2="-14.07" fill="#666" stroke="#666" stroke-miterlimit="10" stroke-width="0.25" opacity="0.15"/><line x1="-3.3" y1="35.67" x2="17.3" y2="-14.07" fill="#666" stroke="#666" stroke-miterlimit="10" stroke-width="0.25" opacity="0.15"/><line x1="-5.3" y1="35.67" x2="15.3" y2="-14.07" fill="#666" stroke="#666" stroke-miterlimit="10" stroke-width="0.25" opacity="0.15"/><line x1="-7.3" y1="35.67" x2="13.3" y2="-14.07" fill="#666" stroke="#666" stroke-miterlimit="10" stroke-width="0.25" opacity="0.15"/><line x1="-9.3" y1="35.67" x2="11.3" y2="-14.07" fill="#666" stroke="#666" stroke-miterlimit="10" stroke-width="0.25" opacity="0.15"/><line x1="-11.3" y1="35.67" x2="9.3" y2="-14.07" fill="#666" stroke="#666" stroke-miterlimit="10" stroke-width="0.25" opacity="0.15"/><line x1="-13.3" y1="35.67" x2="7.3" y2="-14.07" fill="#666" stroke="#666" stroke-miterlimit="10" stroke-width="0.25" opacity="0.15"/><line x1="-15.3" y1="35.67" x2="5.3" y2="-14.07" fill="#666" stroke="#666" stroke-miterlimit="10" stroke-width="0.25" opacity="0.15"/><line x1="-17.3" y1="35.67" x2="3.3" y2="-14.07" fill="#666" stroke="#666" stroke-miterlimit="10" stroke-width="0.25" opacity="0.15"/><line x1="-19.3" y1="35.67" x2="1.3" y2="-14.07" fill="#666" stroke="#666" stroke-miterlimit="10" stroke-width="0.25" opacity="0.15"/><line x1="0.7" y1="33.27" x2="21.3" y2="-16.47" fill="#666" stroke="#666" stroke-miterlimit="10" stroke-width="0.25" opacity="0.15"/><line x1="-1.3" y1="33.27" x2="19.3" y2="-16.47" fill="#666" stroke="#666" stroke-miterlimit="10" stroke-width="0.25" opacity="0.15"/><line x1="-3.3" y1="33.27" x2="17.3" y2="-16.47" fill="#666" stroke="#666" stroke-miterlimit="10" stroke-width="0.25" opacity="0.15"/><line x1="-5.3" y1="33.27" x2="15.3" y2="-16.47" fill="#666" stroke="#666" stroke-miterlimit="10" stroke-width="0.25" opacity="0.15"/><line x1="-7.3" y1="33.27" x2="13.3" y2="-16.47" fill="#666" stroke="#666" stroke-miterlimit="10" stroke-width="0.25" opacity="0.15"/><line x1="-9.3" y1="33.27" x2="11.3" y2="-16.47" fill="#666" stroke="#666" stroke-miterlimit="10" stroke-width="0.25" opacity="0.15"/><line x1="-11.3" y1="33.27" x2="9.3" y2="-16.47" fill="#666" stroke="#666" stroke-miterlimit="10" stroke-width="0.25" opacity="0.15"/><line x1="-13.3" y1="33.27" x2="7.3" y2="-16.47" fill="#666" stroke="#666" stroke-miterlimit="10" stroke-width="0.25" opacity="0.15"/><line x1="-15.3" y1="33.27" x2="5.3" y2="-16.47" fill="#666" stroke="#666" stroke-miterlimit="10" stroke-width="0.25" opacity="0.15"/><line x1="-17.3" y1="33.27" x2="3.3" y2="-16.47" fill="#666" stroke="#666" stroke-miterlimit="10" stroke-width="0.25" opacity="0.15"/><line x1="-19.3" y1="33.27" x2="1.3" y2="-16.47" fill="#666" stroke="#666" stroke-miterlimit="10" stroke-width="0.25" opacity="0.15"/><line x1="0.7" y1="30.87" x2="21.3" y2="-18.87" fill="#666" stroke="#666" stroke-miterlimit="10" stroke-width="0.25" opacity="0.15"/><line x1="-1.3" y1="30.87" x2="19.3" y2="-18.87" fill="#666" stroke="#666" stroke-miterlimit="10" stroke-width="0.25" opacity="0.15"/><line x1="-3.3" y1="30.87" x2="17.3" y2="-18.87" fill="#666" stroke="#666" stroke-miterlimit="10" stroke-width="0.25" opacity="0.15"/><line x1="-5.3" y1="30.87" x2="15.3" y2="-18.87" fill="#666" stroke="#666" stroke-miterlimit="10" stroke-width="0.25" opacity="0.15"/><line x1="-7.3" y1="30.87" x2="13.3" y2="-18.87" fill="#666" stroke="#666" stroke-miterlimit="10" stroke-width="0.25" opacity="0.15"/><line x1="-9.3" y1="30.87" x2="11.3" y2="-18.87" fill="#666" stroke="#666" stroke-miterlimit="10" stroke-width="0.25" opacity="0.15"/><line x1="-11.3" y1="30.87" x2="9.3" y2="-18.87" fill="#666" stroke="#666" stroke-miterlimit="10" stroke-width="0.25" opacity="0.15"/><line x1="-13.3" y1="30.87" x2="7.3" y2="-18.87" fill="#666" stroke="#666" stroke-miterlimit="10" stroke-width="0.25" opacity="0.15"/><line x1="-15.3" y1="30.87" x2="5.3" y2="-18.87" fill="#666" stroke="#666" stroke-miterlimit="10" stroke-width="0.25" opacity="0.15"/><line x1="-17.3" y1="30.87" x2="3.3" y2="-18.87" fill="#666" stroke="#666" stroke-miterlimit="10" stroke-width="0.25" opacity="0.15"/><line x1="-19.3" y1="30.87" x2="1.3" y2="-18.87" fill="#666" stroke="#666" stroke-miterlimit="10" stroke-width="0.25" opacity="0.15"/><line x1="0.7" y1="28.47" x2="21.3" y2="-21.27" fill="#666" stroke="#666" stroke-miterlimit="10" stroke-width="0.25" opacity="0.15"/><line x1="-1.3" y1="28.47" x2="19.3" y2="-21.27" fill="#666" stroke="#666" stroke-miterlimit="10" stroke-width="0.25" opacity="0.15"/><line x1="-3.3" y1="28.47" x2="17.3" y2="-21.27" fill="#666" stroke="#666" stroke-miterlimit="10" stroke-width="0.25" opacity="0.15"/><line x1="-5.3" y1="28.47" x2="15.3" y2="-21.27" fill="#666" stroke="#666" stroke-miterlimit="10" stroke-width="0.25" opacity="0.15"/><line x1="-7.3" y1="28.47" x2="13.3" y2="-21.27" fill="#666" stroke="#666" stroke-miterlimit="10" stroke-width="0.25" opacity="0.15"/><line x1="-9.3" y1="28.47" x2="11.3" y2="-21.27" fill="#666" stroke="#666" stroke-miterlimit="10" stroke-width="0.25" opacity="0.15"/><line x1="-11.3" y1="28.47" x2="9.3" y2="-21.27" fill="#666" stroke="#666" stroke-miterlimit="10" stroke-width="0.25" opacity="0.15"/><line x1="-13.3" y1="28.47" x2="7.3" y2="-21.27" fill="#666" stroke="#666" stroke-miterlimit="10" stroke-width="0.25" opacity="0.15"/><line x1="-15.3" y1="28.47" x2="5.3" y2="-21.27" fill="#666" stroke="#666" stroke-miterlimit="10" stroke-width="0.25" opacity="0.15"/><line x1="-17.3" y1="28.47" x2="3.3" y2="-21.27" fill="#666" stroke="#666" stroke-miterlimit="10" stroke-width="0.25" opacity="0.15"/><line x1="-19.3" y1="28.47" x2="1.3" y2="-21.27" fill="#666" stroke="#666" stroke-miterlimit="10" stroke-width="0.25" opacity="0.15"/><line x1="0.7" y1="26.07" x2="21.3" y2="-23.67" fill="#666" stroke="#666" stroke-miterlimit="10" stroke-width="0.25" opacity="0.15"/><line x1="-1.3" y1="26.07" x2="19.3" y2="-23.67" fill="#666" stroke="#666" stroke-miterlimit="10" stroke-width="0.25" opacity="0.15"/><line x1="-3.3" y1="26.07" x2="17.3" y2="-23.67" fill="#666" stroke="#666" stroke-miterlimit="10" stroke-width="0.25" opacity="0.15"/><line x1="-5.3" y1="26.07" x2="15.3" y2="-23.67" fill="#666" stroke="#666" stroke-miterlimit="10" stroke-width="0.25" opacity="0.15"/><line x1="-7.3" y1="26.07" x2="13.3" y2="-23.67" fill="#666" stroke="#666" stroke-miterlimit="10" stroke-width="0.25" opacity="0.15"/><line x1="-9.3" y1="26.07" x2="11.3" y2="-23.67" fill="#666" stroke="#666" stroke-miterlimit="10" stroke-width="0.25" opacity="0.15"/><line x1="-11.3" y1="26.07" x2="9.3" y2="-23.67" fill="#666" stroke="#666" stroke-miterlimit="10" stroke-width="0.25" opacity="0.15"/><line x1="-13.3" y1="26.07" x2="7.3" y2="-23.67" fill="#666" stroke="#666" stroke-miterlimit="10" stroke-width="0.25" opacity="0.15"/><line x1="-15.3" y1="26.07" x2="5.3" y2="-23.67" fill="#666" stroke="#666" stroke-miterlimit="10" stroke-width="0.25" opacity="0.15"/><line x1="-17.3" y1="26.07" x2="3.3" y2="-23.67" fill="#666" stroke="#666" stroke-miterlimit="10" stroke-width="0.25" opacity="0.15"/><line x1="-19.3" y1="26.07" x2="1.3" y2="-23.67" fill="#666" stroke="#666" stroke-miterlimit="10" stroke-width="0.25" opacity="0.15"/><line x1="0.7" y1="23.67" x2="21.3" y2="-26.07" fill="#666" stroke="#666" stroke-miterlimit="10" stroke-width="0.25" opacity="0.15"/><line x1="-1.3" y1="23.67" x2="19.3" y2="-26.07" fill="#666" stroke="#666" stroke-miterlimit="10" stroke-width="0.25" opacity="0.15"/><line x1="-3.3" y1="23.67" x2="17.3" y2="-26.07" fill="#666" stroke="#666" stroke-miterlimit="10" stroke-width="0.25" opacity="0.15"/><line x1="-5.3" y1="23.67" x2="15.3" y2="-26.07" fill="#666" stroke="#666" stroke-miterlimit="10" stroke-width="0.25" opacity="0.15"/><line x1="-7.3" y1="23.67" x2="13.3" y2="-26.07" fill="#666" stroke="#666" stroke-miterlimit="10" stroke-width="0.25" opacity="0.15"/><line x1="-9.3" y1="23.67" x2="11.3" y2="-26.07" fill="#666" stroke="#666" stroke-miterlimit="10" stroke-width="0.25" opacity="0.15"/><line x1="-11.3" y1="23.67" x2="9.3" y2="-26.07" fill="#666" stroke="#666" stroke-miterlimit="10" stroke-width="0.25" opacity="0.15"/><line x1="-13.3" y1="23.67" x2="7.3" y2="-26.07" fill="#666" stroke="#666" stroke-miterlimit="10" stroke-width="0.25" opacity="0.15"/><line x1="-15.3" y1="23.67" x2="5.3" y2="-26.07" fill="#666" stroke="#666" stroke-miterlimit="10" stroke-width="0.25" opacity="0.15"/><line x1="-17.3" y1="23.67" x2="3.3" y2="-26.07" fill="#666" stroke="#666" stroke-miterlimit="10" stroke-width="0.25" opacity="0.15"/><line x1="-19.3" y1="23.67" x2="1.3" y2="-26.07" fill="#666" stroke="#666" stroke-miterlimit="10" stroke-width="0.25" opacity="0.15"/><line x1="0.7" y1="21.27" x2="21.3" y2="-28.47" fill="#666" stroke="#666" stroke-miterlimit="10" stroke-width="0.25" opacity="0.15"/><line x1="-1.3" y1="21.27" x2="19.3" y2="-28.47" fill="#666" stroke="#666" stroke-miterlimit="10" stroke-width="0.25" opacity="0.15"/><line x1="-3.3" y1="21.27" x2="17.3" y2="-28.47" fill="#666" stroke="#666" stroke-miterlimit="10" stroke-width="0.25" opacity="0.15"/><line x1="-5.3" y1="21.27" x2="15.3" y2="-28.47" fill="#666" stroke="#666" stroke-miterlimit="10" stroke-width="0.25" opacity="0.15"/><line x1="-7.3" y1="21.27" x2="13.3" y2="-28.47" fill="#666" stroke="#666" stroke-miterlimit="10" stroke-width="0.25" opacity="0.15"/><line x1="-9.3" y1="21.27" x2="11.3" y2="-28.47" fill="#666" stroke="#666" stroke-miterlimit="10" stroke-width="0.25" opacity="0.15"/><line x1="-11.3" y1="21.27" x2="9.3" y2="-28.47" fill="#666" stroke="#666" stroke-miterlimit="10" stroke-width="0.25" opacity="0.15"/><line x1="-13.3" y1="21.27" x2="7.3" y2="-28.47" fill="#666" stroke="#666" stroke-miterlimit="10" stroke-width="0.25" opacity="0.15"/><line x1="-15.3" y1="21.27" x2="5.3" y2="-28.47" fill="#666" stroke="#666" stroke-miterlimit="10" stroke-width="0.25" opacity="0.15"/><line x1="-17.3" y1="21.27" x2="3.3" y2="-28.47" fill="#666" stroke="#666" stroke-miterlimit="10" stroke-width="0.25" opacity="0.15"/><line x1="-19.3" y1="21.27" x2="1.3" y2="-28.47" fill="#666" stroke="#666" stroke-miterlimit="10" stroke-width="0.25" opacity="0.15"/><line x1="0.7" y1="18.87" x2="21.3" y2="-30.87" fill="#666" stroke="#666" stroke-miterlimit="10" stroke-width="0.25" opacity="0.15"/><line x1="-1.3" y1="18.87" x2="19.3" y2="-30.87" fill="#666" stroke="#666" stroke-miterlimit="10" stroke-width="0.25" opacity="0.15"/><line x1="-3.3" y1="18.87" x2="17.3" y2="-30.87" fill="#666" stroke="#666" stroke-miterlimit="10" stroke-width="0.25" opacity="0.15"/><line x1="-5.3" y1="18.87" x2="15.3" y2="-30.87" fill="#666" stroke="#666" stroke-miterlimit="10" stroke-width="0.25" opacity="0.15"/><line x1="-7.3" y1="18.87" x2="13.3" y2="-30.87" fill="#666" stroke="#666" stroke-miterlimit="10" stroke-width="0.25" opacity="0.15"/><line x1="-9.3" y1="18.87" x2="11.3" y2="-30.87" fill="#666" stroke="#666" stroke-miterlimit="10" stroke-width="0.25" opacity="0.15"/><line x1="-11.3" y1="18.87" x2="9.3" y2="-30.87" fill="#666" stroke="#666" stroke-miterlimit="10" stroke-width="0.25" opacity="0.15"/><line x1="-13.3" y1="18.87" x2="7.3" y2="-30.87" fill="#666" stroke="#666" stroke-miterlimit="10" stroke-width="0.25" opacity="0.15"/><line x1="-15.3" y1="18.87" x2="5.3" y2="-30.87" fill="#666" stroke="#666" stroke-miterlimit="10" stroke-width="0.25" opacity="0.15"/><line x1="-17.3" y1="18.87" x2="3.3" y2="-30.87" fill="#666" stroke="#666" stroke-miterlimit="10" stroke-width="0.25" opacity="0.15"/><line x1="-19.3" y1="18.87" x2="1.3" y2="-30.87" fill="#666" stroke="#666" stroke-miterlimit="10" stroke-width="0.25" opacity="0.15"/><line x1="0.7" y1="16.47" x2="21.3" y2="-33.27" fill="#666" stroke="#666" stroke-miterlimit="10" stroke-width="0.25" opacity="0.15"/><line x1="-1.3" y1="16.47" x2="19.3" y2="-33.27" fill="#666" stroke="#666" stroke-miterlimit="10" stroke-width="0.25" opacity="0.15"/><line x1="-3.3" y1="16.47" x2="17.3" y2="-33.27" fill="#666" stroke="#666" stroke-miterlimit="10" stroke-width="0.25" opacity="0.15"/><line x1="-5.3" y1="16.47" x2="15.3" y2="-33.27" fill="#666" stroke="#666" stroke-miterlimit="10" stroke-width="0.25" opacity="0.15"/><line x1="-7.3" y1="16.47" x2="13.3" y2="-33.27" fill="#666" stroke="#666" stroke-miterlimit="10" stroke-width="0.25" opacity="0.15"/><line x1="-9.3" y1="16.47" x2="11.3" y2="-33.27" fill="#666" stroke="#666" stroke-miterlimit="10" stroke-width="0.25" opacity="0.15"/><line x1="-11.3" y1="16.47" x2="9.3" y2="-33.27" fill="#666" stroke="#666" stroke-miterlimit="10" stroke-width="0.25" opacity="0.15"/><line x1="-13.3" y1="16.47" x2="7.3" y2="-33.27" fill="#666" stroke="#666" stroke-miterlimit="10" stroke-width="0.25" opacity="0.15"/><line x1="-15.3" y1="16.47" x2="5.3" y2="-33.27" fill="#666" stroke="#666" stroke-miterlimit="10" stroke-width="0.25" opacity="0.15"/><line x1="-17.3" y1="16.47" x2="3.3" y2="-33.27" fill="#666" stroke="#666" stroke-miterlimit="10" stroke-width="0.25" opacity="0.15"/><line x1="-19.3" y1="16.47" x2="1.3" y2="-33.27" fill="#666" stroke="#666" stroke-miterlimit="10" stroke-width="0.25" opacity="0.15"/><line x1="0.7" y1="14.07" x2="21.3" y2="-35.67" fill="#666" stroke="#666" stroke-miterlimit="10" stroke-width="0.25" opacity="0.15"/><line x1="-1.3" y1="14.07" x2="19.3" y2="-35.67" fill="#666" stroke="#666" stroke-miterlimit="10" stroke-width="0.25" opacity="0.15"/><line x1="-3.3" y1="14.07" x2="17.3" y2="-35.67" fill="#666" stroke="#666" stroke-miterlimit="10" stroke-width="0.25" opacity="0.15"/><line x1="-5.3" y1="14.07" x2="15.3" y2="-35.67" fill="#666" stroke="#666" stroke-miterlimit="10" stroke-width="0.25" opacity="0.15"/><line x1="-7.3" y1="14.07" x2="13.3" y2="-35.67" fill="#666" stroke="#666" stroke-miterlimit="10" stroke-width="0.25" opacity="0.15"/><line x1="-9.3" y1="14.07" x2="11.3" y2="-35.67" fill="#666" stroke="#666" stroke-miterlimit="10" stroke-width="0.25" opacity="0.15"/><line x1="-11.3" y1="14.07" x2="9.3" y2="-35.67" fill="#666" stroke="#666" stroke-miterlimit="10" stroke-width="0.25" opacity="0.15"/><line x1="-13.3" y1="14.07" x2="7.3" y2="-35.67" fill="#666" stroke="#666" stroke-miterlimit="10" stroke-width="0.25" opacity="0.15"/><line x1="-15.3" y1="14.07" x2="5.3" y2="-35.67" fill="#666" stroke="#666" stroke-miterlimit="10" stroke-width="0.25" opacity="0.15"/><line x1="-17.3" y1="14.07" x2="3.3" y2="-35.67" fill="#666" stroke="#666" stroke-miterlimit="10" stroke-width="0.25" opacity="0.15"/><line x1="-19.3" y1="14.07" x2="1.3" y2="-35.67" fill="#666" stroke="#666" stroke-miterlimit="10" stroke-width="0.25" opacity="0.15"/><line x1="0.7" y1="11.67" x2="21.3" y2="-38.07" fill="#666" stroke="#666" stroke-miterlimit="10" stroke-width="0.25" opacity="0.15"/><line x1="-1.3" y1="11.67" x2="19.3" y2="-38.07" fill="#666" stroke="#666" stroke-miterlimit="10" stroke-width="0.25" opacity="0.15"/><line x1="-3.3" y1="11.67" x2="17.3" y2="-38.07" fill="#666" stroke="#666" stroke-miterlimit="10" stroke-width="0.25" opacity="0.15"/><line x1="-5.3" y1="11.67" x2="15.3" y2="-38.07" fill="#666" stroke="#666" stroke-miterlimit="10" stroke-width="0.25" opacity="0.15"/><line x1="-7.3" y1="11.67" x2="13.3" y2="-38.07" fill="#666" stroke="#666" stroke-miterlimit="10" stroke-width="0.25" opacity="0.15"/><line x1="-9.3" y1="11.67" x2="11.3" y2="-38.07" fill="#666" stroke="#666" stroke-miterlimit="10" stroke-width="0.25" opacity="0.15"/><line x1="-11.3" y1="11.67" x2="9.3" y2="-38.07" fill="#666" stroke="#666" stroke-miterlimit="10" stroke-width="0.25" opacity="0.15"/><line x1="-13.3" y1="11.67" x2="7.3" y2="-38.07" fill="#666" stroke="#666" stroke-miterlimit="10" stroke-width="0.25" opacity="0.15"/><line x1="-15.3" y1="11.67" x2="5.3" y2="-38.07" fill="#666" stroke="#666" stroke-miterlimit="10" stroke-width="0.25" opacity="0.15"/><line x1="-17.3" y1="11.67" x2="3.3" y2="-38.07" fill="#666" stroke="#666" stroke-miterlimit="10" stroke-width="0.25" opacity="0.15"/><line x1="-19.3" y1="11.67" x2="1.3" y2="-38.07" fill="#666" stroke="#666" stroke-miterlimit="10" stroke-width="0.25" opacity="0.15"/><line x1="0.7" y1="9.27" x2="21.3" y2="-40.47" fill="#666" stroke="#666" stroke-miterlimit="10" stroke-width="0.25" opacity="0.15"/><line x1="-1.3" y1="9.27" x2="19.3" y2="-40.47" fill="#666" stroke="#666" stroke-miterlimit="10" stroke-width="0.25" opacity="0.15"/><line x1="-3.3" y1="9.27" x2="17.3" y2="-40.47" fill="#666" stroke="#666" stroke-miterlimit="10" stroke-width="0.25" opacity="0.15"/><line x1="-5.3" y1="9.27" x2="15.3" y2="-40.47" fill="#666" stroke="#666" stroke-miterlimit="10" stroke-width="0.25" opacity="0.15"/><line x1="-7.3" y1="9.27" x2="13.3" y2="-40.47" fill="#666" stroke="#666" stroke-miterlimit="10" stroke-width="0.25" opacity="0.15"/><line x1="-9.3" y1="9.27" x2="11.3" y2="-40.47" fill="#666" stroke="#666" stroke-miterlimit="10" stroke-width="0.25" opacity="0.15"/><line x1="-11.3" y1="9.27" x2="9.3" y2="-40.47" fill="#666" stroke="#666" stroke-miterlimit="10" stroke-width="0.25" opacity="0.15"/><line x1="-13.3" y1="9.27" x2="7.3" y2="-40.47" fill="#666" stroke="#666" stroke-miterlimit="10" stroke-width="0.25" opacity="0.15"/><line x1="-15.3" y1="9.27" x2="5.3" y2="-40.47" fill="#666" stroke="#666" stroke-miterlimit="10" stroke-width="0.25" opacity="0.15"/><line x1="-17.3" y1="9.27" x2="3.3" y2="-40.47" fill="#666" stroke="#666" stroke-miterlimit="10" stroke-width="0.25" opacity="0.15"/><line x1="-19.3" y1="9.27" x2="1.3" y2="-40.47" fill="#666" stroke="#666" stroke-miterlimit="10" stroke-width="0.25" opacity="0.15"/><line x1="0.7" y1="6.87" x2="21.3" y2="-42.87" fill="#666" stroke="#666" stroke-miterlimit="10" stroke-width="0.25" opacity="0.15"/><line x1="-1.3" y1="6.87" x2="19.3" y2="-42.87" fill="#666" stroke="#666" stroke-miterlimit="10" stroke-width="0.25" opacity="0.15"/><line x1="-3.3" y1="6.87" x2="17.3" y2="-42.87" fill="#666" stroke="#666" stroke-miterlimit="10" stroke-width="0.25" opacity="0.15"/><line x1="-5.3" y1="6.87" x2="15.3" y2="-42.87" fill="#666" stroke="#666" stroke-miterlimit="10" stroke-width="0.25" opacity="0.15"/><line x1="-7.3" y1="6.87" x2="13.3" y2="-42.87" fill="#666" stroke="#666" stroke-miterlimit="10" stroke-width="0.25" opacity="0.15"/><line x1="-9.3" y1="6.87" x2="11.3" y2="-42.87" fill="#666" stroke="#666" stroke-miterlimit="10" stroke-width="0.25" opacity="0.15"/><line x1="-11.3" y1="6.87" x2="9.3" y2="-42.87" fill="#666" stroke="#666" stroke-miterlimit="10" stroke-width="0.25" opacity="0.15"/><line x1="-13.3" y1="6.87" x2="7.3" y2="-42.87" fill="#666" stroke="#666" stroke-miterlimit="10" stroke-width="0.25" opacity="0.15"/><line x1="-15.3" y1="6.87" x2="5.3" y2="-42.87" fill="#666" stroke="#666" stroke-miterlimit="10" stroke-width="0.25" opacity="0.15"/><line x1="-17.3" y1="6.87" x2="3.3" y2="-42.87" fill="#666" stroke="#666" stroke-miterlimit="10" stroke-width="0.25" opacity="0.15"/><line x1="-19.3" y1="6.87" x2="1.3" y2="-42.87" fill="#666" stroke="#666" stroke-miterlimit="10" stroke-width="0.25" opacity="0.15"/><line x1="0.7" y1="4.47" x2="21.3" y2="-45.27" fill="#666" stroke="#666" stroke-miterlimit="10" stroke-width="0.25" opacity="0.15"/><line x1="-1.3" y1="4.47" x2="19.3" y2="-45.27" fill="#666" stroke="#666" stroke-miterlimit="10" stroke-width="0.25" opacity="0.15"/><line x1="-3.3" y1="4.47" x2="17.3" y2="-45.27" fill="#666" stroke="#666" stroke-miterlimit="10" stroke-width="0.25" opacity="0.15"/><line x1="-5.3" y1="4.47" x2="15.3" y2="-45.27" fill="#666" stroke="#666" stroke-miterlimit="10" stroke-width="0.25" opacity="0.15"/><line x1="-7.3" y1="4.47" x2="13.3" y2="-45.27" fill="#666" stroke="#666" stroke-miterlimit="10" stroke-width="0.25" opacity="0.15"/><line x1="-9.3" y1="4.47" x2="11.3" y2="-45.27" fill="#666" stroke="#666" stroke-miterlimit="10" stroke-width="0.25" opacity="0.15"/><line x1="-11.3" y1="4.47" x2="9.3" y2="-45.27" fill="#666" stroke="#666" stroke-miterlimit="10" stroke-width="0.25" opacity="0.15"/><line x1="-13.3" y1="4.47" x2="7.3" y2="-45.27" fill="#666" stroke="#666" stroke-miterlimit="10" stroke-width="0.25" opacity="0.15"/><line x1="-15.3" y1="4.47" x2="5.3" y2="-45.27" fill="#666" stroke="#666" stroke-miterlimit="10" stroke-width="0.25" opacity="0.15"/><line x1="-17.3" y1="4.47" x2="3.3" y2="-45.27" fill="#666" stroke="#666" stroke-miterlimit="10" stroke-width="0.25" opacity="0.15"/><line x1="-19.3" y1="4.47" x2="1.3" y2="-45.27" fill="#666" stroke="#666" stroke-miterlimit="10" stroke-width="0.25" opacity="0.15"/><line x1="0.7" y1="2.07" x2="21.3" y2="-47.67" fill="#666" stroke="#666" stroke-miterlimit="10" stroke-width="0.25" opacity="0.15"/><line x1="-1.3" y1="2.07" x2="19.3" y2="-47.67" fill="#666" stroke="#666" stroke-miterlimit="10" stroke-width="0.25" opacity="0.15"/><line x1="-3.3" y1="2.07" x2="17.3" y2="-47.67" fill="#666" stroke="#666" stroke-miterlimit="10" stroke-width="0.25" opacity="0.15"/><line x1="-5.3" y1="2.07" x2="15.3" y2="-47.67" fill="#666" stroke="#666" stroke-miterlimit="10" stroke-width="0.25" opacity="0.15"/><line x1="-7.3" y1="2.07" x2="13.3" y2="-47.67" fill="#666" stroke="#666" stroke-miterlimit="10" stroke-width="0.25" opacity="0.15"/><line x1="-9.3" y1="2.07" x2="11.3" y2="-47.67" fill="#666" stroke="#666" stroke-miterlimit="10" stroke-width="0.25" opacity="0.15"/><line x1="-11.3" y1="2.07" x2="9.3" y2="-47.67" fill="#666" stroke="#666" stroke-miterlimit="10" stroke-width="0.25" opacity="0.15"/><line x1="-13.3" y1="2.07" x2="7.3" y2="-47.67" fill="#666" stroke="#666" stroke-miterlimit="10" stroke-width="0.25" opacity="0.15"/><line x1="-15.3" y1="2.07" x2="5.3" y2="-47.67" fill="#666" stroke="#666" stroke-miterlimit="10" stroke-width="0.25" opacity="0.15"/><line x1="-17.3" y1="2.07" x2="3.3" y2="-47.67" fill="#666" stroke="#666" stroke-miterlimit="10" stroke-width="0.25" opacity="0.15"/><line x1="-19.3" y1="2.07" x2="1.3" y2="-47.67" fill="#666" stroke="#666" stroke-miterlimit="10" stroke-width="0.25" opacity="0.15"/></pattern></defs><g id="图层_2" data-name="图层 2"><g id="图层_1-2" data-name="图层 1"><g opacity="0.5"><path d="M34,0C26.89,0,22,5,22,13.71S26.89,27.64,34,27.64s11.88-5.29,11.88-13.93S41,0,34,0Zm0,23.07c-4,0-6.52-3.67-6.52-9.36S30,4.54,34,4.54,40.46,8,40.46,13.71,37.91,23.07,34,23.07Zm-21.57,0c-4.25,0-7-3.49-7-9.32s3-9.21,7-9.21a7.06,7.06,0,0,1,5,2.23l2.77-3.35A10.84,10.84,0,0,0,12.38,0C5.62,0,0,5.15,0,13.93S5.44,27.64,12.17,27.64a10.75,10.75,0,0,0,8.49-3.92l-2.81-3.27A7.21,7.21,0,0,1,12.38,23.07Zm54-11.88c0,3,.43,6.56.72,9.33h-.18l-2.7-5.76L56.45.47H51.08V27.14h5V16.38c0-3.06-.43-6.41-.65-9.29h.18l2.7,5.72L66,27.14h5.37V.47h-5ZM141.73.47V4.9h7.53V27.14h5.25V4.9h7.56V.47Zm-9.61,22.6c-4.25,0-7-3.49-7-9.32s3-9.21,7-9.21a7.1,7.1,0,0,1,5,2.23l2.77-3.35A10.87,10.87,0,0,0,132.12,0c-6.77,0-12.38,5.15-12.38,13.93s5.43,13.71,12.16,13.71a10.77,10.77,0,0,0,8.5-3.92l-2.81-3.27A7.23,7.23,0,0,1,132.12,23.07ZM103.79.47,95.22,27.14h5.36l1.91-6.87h8.64L113,27.14h5.55L110,.47Zm-.18,15.69.83-2.95c.79-2.77,1.54-5.79,2.26-8.71h.15c.79,2.88,1.51,5.94,2.34,8.71l.79,2.95ZM96.12.47H75.78V4.9H83.3V27.14h5.26V4.9h7.56Z" fill="url(#斜线)"/></g></g></g></svg>