<svg xmlns="http://www.w3.org/2000/svg" xmlns:xlink="http://www.w3.org/1999/xlink" viewBox="0 0 244.22 27.64"><defs><pattern id="斜线" data-name="斜线" width="2" height="2.4" patternUnits="userSpaceOnUse" viewBox="0 0 2 2.4"><rect width="2" height="2.4" fill="none"/><line x1="0.7" y1="50.07" x2="21.3" y2="0.33" fill="#666" stroke="#666" stroke-miterlimit="10" stroke-width="0.25" opacity="0.15"/><line x1="-1.3" y1="50.07" x2="19.3" y2="0.33" fill="#666" stroke="#666" stroke-miterlimit="10" stroke-width="0.25" opacity="0.15"/><line x1="-3.3" y1="50.07" x2="17.3" y2="0.33" fill="#666" stroke="#666" stroke-miterlimit="10" stroke-width="0.25" opacity="0.15"/><line x1="-5.3" y1="50.07" x2="15.3" y2="0.33" fill="#666" stroke="#666" stroke-miterlimit="10" stroke-width="0.25" opacity="0.15"/><line x1="-7.3" y1="50.07" x2="13.3" y2="0.33" fill="#666" stroke="#666" stroke-miterlimit="10" stroke-width="0.25" opacity="0.15"/><line x1="-9.3" y1="50.07" x2="11.3" y2="0.33" fill="#666" stroke="#666" stroke-miterlimit="10" stroke-width="0.25" opacity="0.15"/><line x1="-11.3" y1="50.07" x2="9.3" y2="0.33" fill="#666" stroke="#666" stroke-miterlimit="10" stroke-width="0.25" opacity="0.15"/><line x1="-13.3" y1="50.07" x2="7.3" y2="0.33" fill="#666" stroke="#666" stroke-miterlimit="10" stroke-width="0.25" opacity="0.15"/><line x1="-15.3" y1="50.07" x2="5.3" y2="0.33" fill="#666" stroke="#666" stroke-miterlimit="10" stroke-width="0.25" opacity="0.15"/><line x1="-17.3" y1="50.07" x2="3.3" y2="0.33" fill="#666" stroke="#666" stroke-miterlimit="10" stroke-width="0.25" opacity="0.15"/><line x1="-19.3" y1="50.07" x2="1.3" y2="0.33" fill="#666" stroke="#666" stroke-miterlimit="10" stroke-width="0.25" opacity="0.15"/><line x1="0.7" y1="47.67" x2="21.3" y2="-2.07" fill="#666" stroke="#666" stroke-miterlimit="10" stroke-width="0.25" opacity="0.15"/><line x1="-1.3" y1="47.67" x2="19.3" y2="-2.07" fill="#666" stroke="#666" stroke-miterlimit="10" stroke-width="0.25" opacity="0.15"/><line x1="-3.3" y1="47.67" x2="17.3" y2="-2.07" fill="#666" stroke="#666" stroke-miterlimit="10" stroke-width="0.25" opacity="0.15"/><line x1="-5.3" y1="47.67" x2="15.3" y2="-2.07" fill="#666" stroke="#666" stroke-miterlimit="10" stroke-width="0.25" opacity="0.15"/><line x1="-7.3" y1="47.67" x2="13.3" y2="-2.07" fill="#666" stroke="#666" stroke-miterlimit="10" stroke-width="0.25" opacity="0.15"/><line x1="-9.3" y1="47.67" x2="11.3" y2="-2.07" fill="#666" stroke="#666" stroke-miterlimit="10" stroke-width="0.25" opacity="0.15"/><line x1="-11.3" y1="47.67" x2="9.3" y2="-2.07" fill="#666" stroke="#666" stroke-miterlimit="10" stroke-width="0.25" opacity="0.15"/><line x1="-13.3" y1="47.67" x2="7.3" y2="-2.07" fill="#666" stroke="#666" stroke-miterlimit="10" stroke-width="0.25" opacity="0.15"/><line x1="-15.3" y1="47.67" x2="5.3" y2="-2.07" fill="#666" stroke="#666" stroke-miterlimit="10" stroke-width="0.25" opacity="0.15"/><line x1="-17.3" y1="47.67" x2="3.3" y2="-2.07" fill="#666" stroke="#666" stroke-miterlimit="10" stroke-width="0.25" opacity="0.15"/><line x1="-19.3" y1="47.67" x2="1.3" y2="-2.07" fill="#666" stroke="#666" stroke-miterlimit="10" stroke-width="0.25" opacity="0.15"/><line x1="0.7" y1="45.27" x2="21.3" y2="-4.47" fill="#666" stroke="#666" stroke-miterlimit="10" stroke-width="0.25" opacity="0.15"/><line x1="-1.3" y1="45.27" x2="19.3" y2="-4.47" fill="#666" stroke="#666" stroke-miterlimit="10" stroke-width="0.25" opacity="0.15"/><line x1="-3.3" y1="45.27" x2="17.3" y2="-4.47" fill="#666" stroke="#666" stroke-miterlimit="10" stroke-width="0.25" opacity="0.15"/><line x1="-5.3" y1="45.27" x2="15.3" y2="-4.47" fill="#666" stroke="#666" stroke-miterlimit="10" stroke-width="0.25" opacity="0.15"/><line x1="-7.3" y1="45.27" x2="13.3" y2="-4.47" fill="#666" stroke="#666" stroke-miterlimit="10" stroke-width="0.25" opacity="0.15"/><line x1="-9.3" y1="45.27" x2="11.3" y2="-4.47" fill="#666" stroke="#666" stroke-miterlimit="10" stroke-width="0.25" opacity="0.15"/><line x1="-11.3" y1="45.27" x2="9.3" y2="-4.47" fill="#666" stroke="#666" stroke-miterlimit="10" stroke-width="0.25" opacity="0.15"/><line x1="-13.3" y1="45.27" x2="7.3" y2="-4.47" fill="#666" stroke="#666" stroke-miterlimit="10" stroke-width="0.25" opacity="0.15"/><line x1="-15.3" y1="45.27" x2="5.3" y2="-4.47" fill="#666" stroke="#666" stroke-miterlimit="10" stroke-width="0.25" opacity="0.15"/><line x1="-17.3" y1="45.27" x2="3.3" y2="-4.47" fill="#666" stroke="#666" stroke-miterlimit="10" stroke-width="0.25" opacity="0.15"/><line x1="-19.3" y1="45.27" x2="1.3" y2="-4.47" fill="#666" stroke="#666" stroke-miterlimit="10" stroke-width="0.25" opacity="0.15"/><line x1="0.7" y1="42.87" x2="21.3" y2="-6.87" fill="#666" stroke="#666" stroke-miterlimit="10" stroke-width="0.25" opacity="0.15"/><line x1="-1.3" y1="42.87" x2="19.3" y2="-6.87" fill="#666" stroke="#666" stroke-miterlimit="10" stroke-width="0.25" opacity="0.15"/><line x1="-3.3" y1="42.87" x2="17.3" y2="-6.87" fill="#666" stroke="#666" stroke-miterlimit="10" stroke-width="0.25" opacity="0.15"/><line x1="-5.3" y1="42.87" x2="15.3" y2="-6.87" fill="#666" stroke="#666" stroke-miterlimit="10" stroke-width="0.25" opacity="0.15"/><line x1="-7.3" y1="42.87" x2="13.3" y2="-6.87" fill="#666" stroke="#666" stroke-miterlimit="10" stroke-width="0.25" opacity="0.15"/><line x1="-9.3" y1="42.87" x2="11.3" y2="-6.87" fill="#666" stroke="#666" stroke-miterlimit="10" stroke-width="0.25" opacity="0.15"/><line x1="-11.3" y1="42.87" x2="9.3" y2="-6.87" fill="#666" stroke="#666" stroke-miterlimit="10" stroke-width="0.25" opacity="0.15"/><line x1="-13.3" y1="42.87" x2="7.3" y2="-6.87" fill="#666" stroke="#666" stroke-miterlimit="10" stroke-width="0.25" opacity="0.15"/><line x1="-15.3" y1="42.87" x2="5.3" y2="-6.87" fill="#666" stroke="#666" stroke-miterlimit="10" stroke-width="0.25" opacity="0.15"/><line x1="-17.3" y1="42.87" x2="3.3" y2="-6.87" fill="#666" stroke="#666" stroke-miterlimit="10" stroke-width="0.25" opacity="0.15"/><line x1="-19.3" y1="42.87" x2="1.3" y2="-6.87" fill="#666" stroke="#666" stroke-miterlimit="10" stroke-width="0.25" opacity="0.15"/><line x1="0.7" y1="40.47" x2="21.3" y2="-9.27" fill="#666" stroke="#666" stroke-miterlimit="10" stroke-width="0.25" opacity="0.15"/><line x1="-1.3" y1="40.47" x2="19.3" y2="-9.27" fill="#666" stroke="#666" stroke-miterlimit="10" stroke-width="0.25" opacity="0.15"/><line x1="-3.3" y1="40.47" x2="17.3" y2="-9.27" fill="#666" stroke="#666" stroke-miterlimit="10" stroke-width="0.25" opacity="0.15"/><line x1="-5.3" y1="40.47" x2="15.3" y2="-9.27" fill="#666" stroke="#666" stroke-miterlimit="10" stroke-width="0.25" opacity="0.15"/><line x1="-7.3" y1="40.47" x2="13.3" y2="-9.27" fill="#666" stroke="#666" stroke-miterlimit="10" stroke-width="0.25" opacity="0.15"/><line x1="-9.3" y1="40.47" x2="11.3" y2="-9.27" fill="#666" stroke="#666" stroke-miterlimit="10" stroke-width="0.25" opacity="0.15"/><line x1="-11.3" y1="40.47" x2="9.3" y2="-9.27" fill="#666" stroke="#666" stroke-miterlimit="10" stroke-width="0.25" opacity="0.15"/><line x1="-13.3" y1="40.47" x2="7.3" y2="-9.27" fill="#666" stroke="#666" stroke-miterlimit="10" stroke-width="0.25" opacity="0.15"/><line x1="-15.3" y1="40.47" x2="5.3" y2="-9.27" fill="#666" stroke="#666" stroke-miterlimit="10" stroke-width="0.25" opacity="0.15"/><line x1="-17.3" y1="40.47" x2="3.3" y2="-9.27" fill="#666" stroke="#666" stroke-miterlimit="10" stroke-width="0.25" opacity="0.15"/><line x1="-19.3" y1="40.47" x2="1.3" y2="-9.27" fill="#666" stroke="#666" stroke-miterlimit="10" stroke-width="0.25" opacity="0.15"/><line x1="0.7" y1="38.07" x2="21.3" y2="-11.67" fill="#666" stroke="#666" stroke-miterlimit="10" stroke-width="0.25" opacity="0.15"/><line x1="-1.3" y1="38.07" x2="19.3" y2="-11.67" fill="#666" stroke="#666" stroke-miterlimit="10" stroke-width="0.25" opacity="0.15"/><line x1="-3.3" y1="38.07" x2="17.3" y2="-11.67" fill="#666" stroke="#666" stroke-miterlimit="10" stroke-width="0.25" opacity="0.15"/><line x1="-5.3" y1="38.07" x2="15.3" y2="-11.67" fill="#666" stroke="#666" stroke-miterlimit="10" stroke-width="0.25" opacity="0.15"/><line x1="-7.3" y1="38.07" x2="13.3" y2="-11.67" fill="#666" stroke="#666" stroke-miterlimit="10" stroke-width="0.25" opacity="0.15"/><line x1="-9.3" y1="38.07" x2="11.3" y2="-11.67" fill="#666" stroke="#666" stroke-miterlimit="10" stroke-width="0.25" opacity="0.15"/><line x1="-11.3" y1="38.07" x2="9.3" y2="-11.67" fill="#666" stroke="#666" stroke-miterlimit="10" stroke-width="0.25" opacity="0.15"/><line x1="-13.3" y1="38.07" x2="7.3" y2="-11.67" fill="#666" stroke="#666" stroke-miterlimit="10" stroke-width="0.25" opacity="0.15"/><line x1="-15.3" y1="38.07" x2="5.3" y2="-11.67" fill="#666" stroke="#666" stroke-miterlimit="10" stroke-width="0.25" opacity="0.15"/><line x1="-17.3" y1="38.07" x2="3.3" y2="-11.67" fill="#666" stroke="#666" stroke-miterlimit="10" stroke-width="0.25" opacity="0.15"/><line x1="-19.3" y1="38.07" x2="1.3" y2="-11.67" fill="#666" stroke="#666" stroke-miterlimit="10" stroke-width="0.25" opacity="0.15"/><line x1="0.7" y1="35.67" x2="21.3" y2="-14.07" fill="#666" stroke="#666" stroke-miterlimit="10" stroke-width="0.25" opacity="0.15"/><line x1="-1.3" y1="35.67" x2="19.3" y2="-14.07" fill="#666" stroke="#666" stroke-miterlimit="10" stroke-width="0.25" opacity="0.15"/><line x1="-3.3" y1="35.67" x2="17.3" y2="-14.07" fill="#666" stroke="#666" stroke-miterlimit="10" stroke-width="0.25" opacity="0.15"/><line x1="-5.3" y1="35.67" x2="15.3" y2="-14.07" fill="#666" stroke="#666" stroke-miterlimit="10" stroke-width="0.25" opacity="0.15"/><line x1="-7.3" y1="35.67" x2="13.3" y2="-14.07" fill="#666" stroke="#666" stroke-miterlimit="10" stroke-width="0.25" opacity="0.15"/><line x1="-9.3" y1="35.67" x2="11.3" y2="-14.07" fill="#666" stroke="#666" stroke-miterlimit="10" stroke-width="0.25" opacity="0.15"/><line x1="-11.3" y1="35.67" x2="9.3" y2="-14.07" fill="#666" stroke="#666" stroke-miterlimit="10" stroke-width="0.25" opacity="0.15"/><line x1="-13.3" y1="35.67" x2="7.3" y2="-14.07" fill="#666" stroke="#666" stroke-miterlimit="10" stroke-width="0.25" opacity="0.15"/><line x1="-15.3" y1="35.67" x2="5.3" y2="-14.07" fill="#666" stroke="#666" stroke-miterlimit="10" stroke-width="0.25" opacity="0.15"/><line x1="-17.3" y1="35.67" x2="3.3" y2="-14.07" fill="#666" stroke="#666" stroke-miterlimit="10" stroke-width="0.25" opacity="0.15"/><line x1="-19.3" y1="35.67" x2="1.3" y2="-14.07" fill="#666" stroke="#666" stroke-miterlimit="10" stroke-width="0.25" opacity="0.15"/><line x1="0.7" y1="33.27" x2="21.3" y2="-16.47" fill="#666" stroke="#666" stroke-miterlimit="10" stroke-width="0.25" opacity="0.15"/><line x1="-1.3" y1="33.27" x2="19.3" y2="-16.47" fill="#666" stroke="#666" stroke-miterlimit="10" stroke-width="0.25" opacity="0.15"/><line x1="-3.3" y1="33.27" x2="17.3" y2="-16.47" fill="#666" stroke="#666" stroke-miterlimit="10" stroke-width="0.25" opacity="0.15"/><line x1="-5.3" y1="33.27" x2="15.3" y2="-16.47" fill="#666" stroke="#666" stroke-miterlimit="10" stroke-width="0.25" opacity="0.15"/><line x1="-7.3" y1="33.27" x2="13.3" y2="-16.47" fill="#666" stroke="#666" stroke-miterlimit="10" stroke-width="0.25" opacity="0.15"/><line x1="-9.3" y1="33.27" x2="11.3" y2="-16.47" fill="#666" stroke="#666" stroke-miterlimit="10" stroke-width="0.25" opacity="0.15"/><line x1="-11.3" y1="33.27" x2="9.3" y2="-16.47" fill="#666" stroke="#666" stroke-miterlimit="10" stroke-width="0.25" opacity="0.15"/><line x1="-13.3" y1="33.27" x2="7.3" y2="-16.47" fill="#666" stroke="#666" stroke-miterlimit="10" stroke-width="0.25" opacity="0.15"/><line x1="-15.3" y1="33.27" x2="5.3" y2="-16.47" fill="#666" stroke="#666" stroke-miterlimit="10" stroke-width="0.25" opacity="0.15"/><line x1="-17.3" y1="33.27" x2="3.3" y2="-16.47" fill="#666" stroke="#666" stroke-miterlimit="10" stroke-width="0.25" opacity="0.15"/><line x1="-19.3" y1="33.27" x2="1.3" y2="-16.47" fill="#666" stroke="#666" stroke-miterlimit="10" stroke-width="0.25" opacity="0.15"/><line x1="0.7" y1="30.87" x2="21.3" y2="-18.87" fill="#666" stroke="#666" stroke-miterlimit="10" stroke-width="0.25" opacity="0.15"/><line x1="-1.3" y1="30.87" x2="19.3" y2="-18.87" fill="#666" stroke="#666" stroke-miterlimit="10" stroke-width="0.25" opacity="0.15"/><line x1="-3.3" y1="30.87" x2="17.3" y2="-18.87" fill="#666" stroke="#666" stroke-miterlimit="10" stroke-width="0.25" opacity="0.15"/><line x1="-5.3" y1="30.87" x2="15.3" y2="-18.87" fill="#666" stroke="#666" stroke-miterlimit="10" stroke-width="0.25" opacity="0.15"/><line x1="-7.3" y1="30.87" x2="13.3" y2="-18.87" fill="#666" stroke="#666" stroke-miterlimit="10" stroke-width="0.25" opacity="0.15"/><line x1="-9.3" y1="30.87" x2="11.3" y2="-18.87" fill="#666" stroke="#666" stroke-miterlimit="10" stroke-width="0.25" opacity="0.15"/><line x1="-11.3" y1="30.87" x2="9.3" y2="-18.87" fill="#666" stroke="#666" stroke-miterlimit="10" stroke-width="0.25" opacity="0.15"/><line x1="-13.3" y1="30.87" x2="7.3" y2="-18.87" fill="#666" stroke="#666" stroke-miterlimit="10" stroke-width="0.25" opacity="0.15"/><line x1="-15.3" y1="30.87" x2="5.3" y2="-18.87" fill="#666" stroke="#666" stroke-miterlimit="10" stroke-width="0.25" opacity="0.15"/><line x1="-17.3" y1="30.87" x2="3.3" y2="-18.87" fill="#666" stroke="#666" stroke-miterlimit="10" stroke-width="0.25" opacity="0.15"/><line x1="-19.3" y1="30.87" x2="1.3" y2="-18.87" fill="#666" stroke="#666" stroke-miterlimit="10" stroke-width="0.25" opacity="0.15"/><line x1="0.7" y1="28.47" x2="21.3" y2="-21.27" fill="#666" stroke="#666" stroke-miterlimit="10" stroke-width="0.25" opacity="0.15"/><line x1="-1.3" y1="28.47" x2="19.3" y2="-21.27" fill="#666" stroke="#666" stroke-miterlimit="10" stroke-width="0.25" opacity="0.15"/><line x1="-3.3" y1="28.47" x2="17.3" y2="-21.27" fill="#666" stroke="#666" stroke-miterlimit="10" stroke-width="0.25" opacity="0.15"/><line x1="-5.3" y1="28.47" x2="15.3" y2="-21.27" fill="#666" stroke="#666" stroke-miterlimit="10" stroke-width="0.25" opacity="0.15"/><line x1="-7.3" y1="28.47" x2="13.3" y2="-21.27" fill="#666" stroke="#666" stroke-miterlimit="10" stroke-width="0.25" opacity="0.15"/><line x1="-9.3" y1="28.47" x2="11.3" y2="-21.27" fill="#666" stroke="#666" stroke-miterlimit="10" stroke-width="0.25" opacity="0.15"/><line x1="-11.3" y1="28.47" x2="9.3" y2="-21.27" fill="#666" stroke="#666" stroke-miterlimit="10" stroke-width="0.25" opacity="0.15"/><line x1="-13.3" y1="28.47" x2="7.3" y2="-21.27" fill="#666" stroke="#666" stroke-miterlimit="10" stroke-width="0.25" opacity="0.15"/><line x1="-15.3" y1="28.47" x2="5.3" y2="-21.27" fill="#666" stroke="#666" stroke-miterlimit="10" stroke-width="0.25" opacity="0.15"/><line x1="-17.3" y1="28.47" x2="3.3" y2="-21.27" fill="#666" stroke="#666" stroke-miterlimit="10" stroke-width="0.25" opacity="0.15"/><line x1="-19.3" y1="28.47" x2="1.3" y2="-21.27" fill="#666" stroke="#666" stroke-miterlimit="10" stroke-width="0.25" opacity="0.15"/><line x1="0.7" y1="26.07" x2="21.3" y2="-23.67" fill="#666" stroke="#666" stroke-miterlimit="10" stroke-width="0.25" opacity="0.15"/><line x1="-1.3" y1="26.07" x2="19.3" y2="-23.67" fill="#666" stroke="#666" stroke-miterlimit="10" stroke-width="0.25" opacity="0.15"/><line x1="-3.3" y1="26.07" x2="17.3" y2="-23.67" fill="#666" stroke="#666" stroke-miterlimit="10" stroke-width="0.25" opacity="0.15"/><line x1="-5.3" y1="26.07" x2="15.3" y2="-23.67" fill="#666" stroke="#666" stroke-miterlimit="10" stroke-width="0.25" opacity="0.15"/><line x1="-7.3" y1="26.07" x2="13.3" y2="-23.67" fill="#666" stroke="#666" stroke-miterlimit="10" stroke-width="0.25" opacity="0.15"/><line x1="-9.3" y1="26.07" x2="11.3" y2="-23.67" fill="#666" stroke="#666" stroke-miterlimit="10" stroke-width="0.25" opacity="0.15"/><line x1="-11.3" y1="26.07" x2="9.3" y2="-23.67" fill="#666" stroke="#666" stroke-miterlimit="10" stroke-width="0.25" opacity="0.15"/><line x1="-13.3" y1="26.07" x2="7.3" y2="-23.67" fill="#666" stroke="#666" stroke-miterlimit="10" stroke-width="0.25" opacity="0.15"/><line x1="-15.3" y1="26.07" x2="5.3" y2="-23.67" fill="#666" stroke="#666" stroke-miterlimit="10" stroke-width="0.25" opacity="0.15"/><line x1="-17.3" y1="26.07" x2="3.3" y2="-23.67" fill="#666" stroke="#666" stroke-miterlimit="10" stroke-width="0.25" opacity="0.15"/><line x1="-19.3" y1="26.07" x2="1.3" y2="-23.67" fill="#666" stroke="#666" stroke-miterlimit="10" stroke-width="0.25" opacity="0.15"/><line x1="0.7" y1="23.67" x2="21.3" y2="-26.07" fill="#666" stroke="#666" stroke-miterlimit="10" stroke-width="0.25" opacity="0.15"/><line x1="-1.3" y1="23.67" x2="19.3" y2="-26.07" fill="#666" stroke="#666" stroke-miterlimit="10" stroke-width="0.25" opacity="0.15"/><line x1="-3.3" y1="23.67" x2="17.3" y2="-26.07" fill="#666" stroke="#666" stroke-miterlimit="10" stroke-width="0.25" opacity="0.15"/><line x1="-5.3" y1="23.67" x2="15.3" y2="-26.07" fill="#666" stroke="#666" stroke-miterlimit="10" stroke-width="0.25" opacity="0.15"/><line x1="-7.3" y1="23.67" x2="13.3" y2="-26.07" fill="#666" stroke="#666" stroke-miterlimit="10" stroke-width="0.25" opacity="0.15"/><line x1="-9.3" y1="23.67" x2="11.3" y2="-26.07" fill="#666" stroke="#666" stroke-miterlimit="10" stroke-width="0.25" opacity="0.15"/><line x1="-11.3" y1="23.67" x2="9.3" y2="-26.07" fill="#666" stroke="#666" stroke-miterlimit="10" stroke-width="0.25" opacity="0.15"/><line x1="-13.3" y1="23.67" x2="7.3" y2="-26.07" fill="#666" stroke="#666" stroke-miterlimit="10" stroke-width="0.25" opacity="0.15"/><line x1="-15.3" y1="23.67" x2="5.3" y2="-26.07" fill="#666" stroke="#666" stroke-miterlimit="10" stroke-width="0.25" opacity="0.15"/><line x1="-17.3" y1="23.67" x2="3.3" y2="-26.07" fill="#666" stroke="#666" stroke-miterlimit="10" stroke-width="0.25" opacity="0.15"/><line x1="-19.3" y1="23.67" x2="1.3" y2="-26.07" fill="#666" stroke="#666" stroke-miterlimit="10" stroke-width="0.25" opacity="0.15"/><line x1="0.7" y1="21.27" x2="21.3" y2="-28.47" fill="#666" stroke="#666" stroke-miterlimit="10" stroke-width="0.25" opacity="0.15"/><line x1="-1.3" y1="21.27" x2="19.3" y2="-28.47" fill="#666" stroke="#666" stroke-miterlimit="10" stroke-width="0.25" opacity="0.15"/><line x1="-3.3" y1="21.27" x2="17.3" y2="-28.47" fill="#666" stroke="#666" stroke-miterlimit="10" stroke-width="0.25" opacity="0.15"/><line x1="-5.3" y1="21.27" x2="15.3" y2="-28.47" fill="#666" stroke="#666" stroke-miterlimit="10" stroke-width="0.25" opacity="0.15"/><line x1="-7.3" y1="21.27" x2="13.3" y2="-28.47" fill="#666" stroke="#666" stroke-miterlimit="10" stroke-width="0.25" opacity="0.15"/><line x1="-9.3" y1="21.27" x2="11.3" y2="-28.47" fill="#666" stroke="#666" stroke-miterlimit="10" stroke-width="0.25" opacity="0.15"/><line x1="-11.3" y1="21.27" x2="9.3" y2="-28.47" fill="#666" stroke="#666" stroke-miterlimit="10" stroke-width="0.25" opacity="0.15"/><line x1="-13.3" y1="21.27" x2="7.3" y2="-28.47" fill="#666" stroke="#666" stroke-miterlimit="10" stroke-width="0.25" opacity="0.15"/><line x1="-15.3" y1="21.27" x2="5.3" y2="-28.47" fill="#666" stroke="#666" stroke-miterlimit="10" stroke-width="0.25" opacity="0.15"/><line x1="-17.3" y1="21.27" x2="3.3" y2="-28.47" fill="#666" stroke="#666" stroke-miterlimit="10" stroke-width="0.25" opacity="0.15"/><line x1="-19.3" y1="21.27" x2="1.3" y2="-28.47" fill="#666" stroke="#666" stroke-miterlimit="10" stroke-width="0.25" opacity="0.15"/><line x1="0.7" y1="18.87" x2="21.3" y2="-30.87" fill="#666" stroke="#666" stroke-miterlimit="10" stroke-width="0.25" opacity="0.15"/><line x1="-1.3" y1="18.87" x2="19.3" y2="-30.87" fill="#666" stroke="#666" stroke-miterlimit="10" stroke-width="0.25" opacity="0.15"/><line x1="-3.3" y1="18.87" x2="17.3" y2="-30.87" fill="#666" stroke="#666" stroke-miterlimit="10" stroke-width="0.25" opacity="0.15"/><line x1="-5.3" y1="18.87" x2="15.3" y2="-30.87" fill="#666" stroke="#666" stroke-miterlimit="10" stroke-width="0.25" opacity="0.15"/><line x1="-7.3" y1="18.87" x2="13.3" y2="-30.87" fill="#666" stroke="#666" stroke-miterlimit="10" stroke-width="0.25" opacity="0.15"/><line x1="-9.3" y1="18.87" x2="11.3" y2="-30.87" fill="#666" stroke="#666" stroke-miterlimit="10" stroke-width="0.25" opacity="0.15"/><line x1="-11.3" y1="18.87" x2="9.3" y2="-30.87" fill="#666" stroke="#666" stroke-miterlimit="10" stroke-width="0.25" opacity="0.15"/><line x1="-13.3" y1="18.87" x2="7.3" y2="-30.87" fill="#666" stroke="#666" stroke-miterlimit="10" stroke-width="0.25" opacity="0.15"/><line x1="-15.3" y1="18.87" x2="5.3" y2="-30.87" fill="#666" stroke="#666" stroke-miterlimit="10" stroke-width="0.25" opacity="0.15"/><line x1="-17.3" y1="18.87" x2="3.3" y2="-30.87" fill="#666" stroke="#666" stroke-miterlimit="10" stroke-width="0.25" opacity="0.15"/><line x1="-19.3" y1="18.87" x2="1.3" y2="-30.87" fill="#666" stroke="#666" stroke-miterlimit="10" stroke-width="0.25" opacity="0.15"/><line x1="0.7" y1="16.47" x2="21.3" y2="-33.27" fill="#666" stroke="#666" stroke-miterlimit="10" stroke-width="0.25" opacity="0.15"/><line x1="-1.3" y1="16.47" x2="19.3" y2="-33.27" fill="#666" stroke="#666" stroke-miterlimit="10" stroke-width="0.25" opacity="0.15"/><line x1="-3.3" y1="16.47" x2="17.3" y2="-33.27" fill="#666" stroke="#666" stroke-miterlimit="10" stroke-width="0.25" opacity="0.15"/><line x1="-5.3" y1="16.47" x2="15.3" y2="-33.27" fill="#666" stroke="#666" stroke-miterlimit="10" stroke-width="0.25" opacity="0.15"/><line x1="-7.3" y1="16.47" x2="13.3" y2="-33.27" fill="#666" stroke="#666" stroke-miterlimit="10" stroke-width="0.25" opacity="0.15"/><line x1="-9.3" y1="16.47" x2="11.3" y2="-33.27" fill="#666" stroke="#666" stroke-miterlimit="10" stroke-width="0.25" opacity="0.15"/><line x1="-11.3" y1="16.47" x2="9.3" y2="-33.27" fill="#666" stroke="#666" stroke-miterlimit="10" stroke-width="0.25" opacity="0.15"/><line x1="-13.3" y1="16.47" x2="7.3" y2="-33.27" fill="#666" stroke="#666" stroke-miterlimit="10" stroke-width="0.25" opacity="0.15"/><line x1="-15.3" y1="16.47" x2="5.3" y2="-33.27" fill="#666" stroke="#666" stroke-miterlimit="10" stroke-width="0.25" opacity="0.15"/><line x1="-17.3" y1="16.47" x2="3.3" y2="-33.27" fill="#666" stroke="#666" stroke-miterlimit="10" stroke-width="0.25" opacity="0.15"/><line x1="-19.3" y1="16.47" x2="1.3" y2="-33.27" fill="#666" stroke="#666" stroke-miterlimit="10" stroke-width="0.25" opacity="0.15"/><line x1="0.7" y1="14.07" x2="21.3" y2="-35.67" fill="#666" stroke="#666" stroke-miterlimit="10" stroke-width="0.25" opacity="0.15"/><line x1="-1.3" y1="14.07" x2="19.3" y2="-35.67" fill="#666" stroke="#666" stroke-miterlimit="10" stroke-width="0.25" opacity="0.15"/><line x1="-3.3" y1="14.07" x2="17.3" y2="-35.67" fill="#666" stroke="#666" stroke-miterlimit="10" stroke-width="0.25" opacity="0.15"/><line x1="-5.3" y1="14.07" x2="15.3" y2="-35.67" fill="#666" stroke="#666" stroke-miterlimit="10" stroke-width="0.25" opacity="0.15"/><line x1="-7.3" y1="14.07" x2="13.3" y2="-35.67" fill="#666" stroke="#666" stroke-miterlimit="10" stroke-width="0.25" opacity="0.15"/><line x1="-9.3" y1="14.07" x2="11.3" y2="-35.67" fill="#666" stroke="#666" stroke-miterlimit="10" stroke-width="0.25" opacity="0.15"/><line x1="-11.3" y1="14.07" x2="9.3" y2="-35.67" fill="#666" stroke="#666" stroke-miterlimit="10" stroke-width="0.25" opacity="0.15"/><line x1="-13.3" y1="14.07" x2="7.3" y2="-35.67" fill="#666" stroke="#666" stroke-miterlimit="10" stroke-width="0.25" opacity="0.15"/><line x1="-15.3" y1="14.07" x2="5.3" y2="-35.67" fill="#666" stroke="#666" stroke-miterlimit="10" stroke-width="0.25" opacity="0.15"/><line x1="-17.3" y1="14.07" x2="3.3" y2="-35.67" fill="#666" stroke="#666" stroke-miterlimit="10" stroke-width="0.25" opacity="0.15"/><line x1="-19.3" y1="14.07" x2="1.3" y2="-35.67" fill="#666" stroke="#666" stroke-miterlimit="10" stroke-width="0.25" opacity="0.15"/><line x1="0.7" y1="11.67" x2="21.3" y2="-38.07" fill="#666" stroke="#666" stroke-miterlimit="10" stroke-width="0.25" opacity="0.15"/><line x1="-1.3" y1="11.67" x2="19.3" y2="-38.07" fill="#666" stroke="#666" stroke-miterlimit="10" stroke-width="0.25" opacity="0.15"/><line x1="-3.3" y1="11.67" x2="17.3" y2="-38.07" fill="#666" stroke="#666" stroke-miterlimit="10" stroke-width="0.25" opacity="0.15"/><line x1="-5.3" y1="11.67" x2="15.3" y2="-38.07" fill="#666" stroke="#666" stroke-miterlimit="10" stroke-width="0.25" opacity="0.15"/><line x1="-7.3" y1="11.67" x2="13.3" y2="-38.07" fill="#666" stroke="#666" stroke-miterlimit="10" stroke-width="0.25" opacity="0.15"/><line x1="-9.3" y1="11.67" x2="11.3" y2="-38.07" fill="#666" stroke="#666" stroke-miterlimit="10" stroke-width="0.25" opacity="0.15"/><line x1="-11.3" y1="11.67" x2="9.3" y2="-38.07" fill="#666" stroke="#666" stroke-miterlimit="10" stroke-width="0.25" opacity="0.15"/><line x1="-13.3" y1="11.67" x2="7.3" y2="-38.07" fill="#666" stroke="#666" stroke-miterlimit="10" stroke-width="0.25" opacity="0.15"/><line x1="-15.3" y1="11.67" x2="5.3" y2="-38.07" fill="#666" stroke="#666" stroke-miterlimit="10" stroke-width="0.25" opacity="0.15"/><line x1="-17.3" y1="11.67" x2="3.3" y2="-38.07" fill="#666" stroke="#666" stroke-miterlimit="10" stroke-width="0.25" opacity="0.15"/><line x1="-19.3" y1="11.67" x2="1.3" y2="-38.07" fill="#666" stroke="#666" stroke-miterlimit="10" stroke-width="0.25" opacity="0.15"/><line x1="0.7" y1="9.27" x2="21.3" y2="-40.47" fill="#666" stroke="#666" stroke-miterlimit="10" stroke-width="0.25" opacity="0.15"/><line x1="-1.3" y1="9.27" x2="19.3" y2="-40.47" fill="#666" stroke="#666" stroke-miterlimit="10" stroke-width="0.25" opacity="0.15"/><line x1="-3.3" y1="9.27" x2="17.3" y2="-40.47" fill="#666" stroke="#666" stroke-miterlimit="10" stroke-width="0.25" opacity="0.15"/><line x1="-5.3" y1="9.27" x2="15.3" y2="-40.47" fill="#666" stroke="#666" stroke-miterlimit="10" stroke-width="0.25" opacity="0.15"/><line x1="-7.3" y1="9.27" x2="13.3" y2="-40.47" fill="#666" stroke="#666" stroke-miterlimit="10" stroke-width="0.25" opacity="0.15"/><line x1="-9.3" y1="9.27" x2="11.3" y2="-40.47" fill="#666" stroke="#666" stroke-miterlimit="10" stroke-width="0.25" opacity="0.15"/><line x1="-11.3" y1="9.27" x2="9.3" y2="-40.47" fill="#666" stroke="#666" stroke-miterlimit="10" stroke-width="0.25" opacity="0.15"/><line x1="-13.3" y1="9.27" x2="7.3" y2="-40.47" fill="#666" stroke="#666" stroke-miterlimit="10" stroke-width="0.25" opacity="0.15"/><line x1="-15.3" y1="9.27" x2="5.3" y2="-40.47" fill="#666" stroke="#666" stroke-miterlimit="10" stroke-width="0.25" opacity="0.15"/><line x1="-17.3" y1="9.27" x2="3.3" y2="-40.47" fill="#666" stroke="#666" stroke-miterlimit="10" stroke-width="0.25" opacity="0.15"/><line x1="-19.3" y1="9.27" x2="1.3" y2="-40.47" fill="#666" stroke="#666" stroke-miterlimit="10" stroke-width="0.25" opacity="0.15"/><line x1="0.7" y1="6.87" x2="21.3" y2="-42.87" fill="#666" stroke="#666" stroke-miterlimit="10" stroke-width="0.25" opacity="0.15"/><line x1="-1.3" y1="6.87" x2="19.3" y2="-42.87" fill="#666" stroke="#666" stroke-miterlimit="10" stroke-width="0.25" opacity="0.15"/><line x1="-3.3" y1="6.87" x2="17.3" y2="-42.87" fill="#666" stroke="#666" stroke-miterlimit="10" stroke-width="0.25" opacity="0.15"/><line x1="-5.3" y1="6.87" x2="15.3" y2="-42.87" fill="#666" stroke="#666" stroke-miterlimit="10" stroke-width="0.25" opacity="0.15"/><line x1="-7.3" y1="6.87" x2="13.3" y2="-42.87" fill="#666" stroke="#666" stroke-miterlimit="10" stroke-width="0.25" opacity="0.15"/><line x1="-9.3" y1="6.87" x2="11.3" y2="-42.87" fill="#666" stroke="#666" stroke-miterlimit="10" stroke-width="0.25" opacity="0.15"/><line x1="-11.3" y1="6.87" x2="9.3" y2="-42.87" fill="#666" stroke="#666" stroke-miterlimit="10" stroke-width="0.25" opacity="0.15"/><line x1="-13.3" y1="6.87" x2="7.3" y2="-42.87" fill="#666" stroke="#666" stroke-miterlimit="10" stroke-width="0.25" opacity="0.15"/><line x1="-15.3" y1="6.87" x2="5.3" y2="-42.87" fill="#666" stroke="#666" stroke-miterlimit="10" stroke-width="0.25" opacity="0.15"/><line x1="-17.3" y1="6.87" x2="3.3" y2="-42.87" fill="#666" stroke="#666" stroke-miterlimit="10" stroke-width="0.25" opacity="0.15"/><line x1="-19.3" y1="6.87" x2="1.3" y2="-42.87" fill="#666" stroke="#666" stroke-miterlimit="10" stroke-width="0.25" opacity="0.15"/><line x1="0.7" y1="4.47" x2="21.3" y2="-45.27" fill="#666" stroke="#666" stroke-miterlimit="10" stroke-width="0.25" opacity="0.15"/><line x1="-1.3" y1="4.47" x2="19.3" y2="-45.27" fill="#666" stroke="#666" stroke-miterlimit="10" stroke-width="0.25" opacity="0.15"/><line x1="-3.3" y1="4.47" x2="17.3" y2="-45.27" fill="#666" stroke="#666" stroke-miterlimit="10" stroke-width="0.25" opacity="0.15"/><line x1="-5.3" y1="4.47" x2="15.3" y2="-45.27" fill="#666" stroke="#666" stroke-miterlimit="10" stroke-width="0.25" opacity="0.15"/><line x1="-7.3" y1="4.47" x2="13.3" y2="-45.27" fill="#666" stroke="#666" stroke-miterlimit="10" stroke-width="0.25" opacity="0.15"/><line x1="-9.3" y1="4.47" x2="11.3" y2="-45.27" fill="#666" stroke="#666" stroke-miterlimit="10" stroke-width="0.25" opacity="0.15"/><line x1="-11.3" y1="4.47" x2="9.3" y2="-45.27" fill="#666" stroke="#666" stroke-miterlimit="10" stroke-width="0.25" opacity="0.15"/><line x1="-13.3" y1="4.47" x2="7.3" y2="-45.27" fill="#666" stroke="#666" stroke-miterlimit="10" stroke-width="0.25" opacity="0.15"/><line x1="-15.3" y1="4.47" x2="5.3" y2="-45.27" fill="#666" stroke="#666" stroke-miterlimit="10" stroke-width="0.25" opacity="0.15"/><line x1="-17.3" y1="4.47" x2="3.3" y2="-45.27" fill="#666" stroke="#666" stroke-miterlimit="10" stroke-width="0.25" opacity="0.15"/><line x1="-19.3" y1="4.47" x2="1.3" y2="-45.27" fill="#666" stroke="#666" stroke-miterlimit="10" stroke-width="0.25" opacity="0.15"/><line x1="0.7" y1="2.07" x2="21.3" y2="-47.67" fill="#666" stroke="#666" stroke-miterlimit="10" stroke-width="0.25" opacity="0.15"/><line x1="-1.3" y1="2.07" x2="19.3" y2="-47.67" fill="#666" stroke="#666" stroke-miterlimit="10" stroke-width="0.25" opacity="0.15"/><line x1="-3.3" y1="2.07" x2="17.3" y2="-47.67" fill="#666" stroke="#666" stroke-miterlimit="10" stroke-width="0.25" opacity="0.15"/><line x1="-5.3" y1="2.07" x2="15.3" y2="-47.67" fill="#666" stroke="#666" stroke-miterlimit="10" stroke-width="0.25" opacity="0.15"/><line x1="-7.3" y1="2.07" x2="13.3" y2="-47.67" fill="#666" stroke="#666" stroke-miterlimit="10" stroke-width="0.25" opacity="0.15"/><line x1="-9.3" y1="2.07" x2="11.3" y2="-47.67" fill="#666" stroke="#666" stroke-miterlimit="10" stroke-width="0.25" opacity="0.15"/><line x1="-11.3" y1="2.07" x2="9.3" y2="-47.67" fill="#666" stroke="#666" stroke-miterlimit="10" stroke-width="0.25" opacity="0.15"/><line x1="-13.3" y1="2.07" x2="7.3" y2="-47.67" fill="#666" stroke="#666" stroke-miterlimit="10" stroke-width="0.25" opacity="0.15"/><line x1="-15.3" y1="2.07" x2="5.3" y2="-47.67" fill="#666" stroke="#666" stroke-miterlimit="10" stroke-width="0.25" opacity="0.15"/><line x1="-17.3" y1="2.07" x2="3.3" y2="-47.67" fill="#666" stroke="#666" stroke-miterlimit="10" stroke-width="0.25" opacity="0.15"/><line x1="-19.3" y1="2.07" x2="1.3" y2="-47.67" fill="#666" stroke="#666" stroke-miterlimit="10" stroke-width="0.25" opacity="0.15"/></pattern></defs><g id="图层_2" data-name="图层 2"><g id="图层_1-2" data-name="图层 1"><g opacity="0.5"><path d="M56.34.47H51.08V27.14H67.17V22.71H56.34Zm-44,22.6c-4.25,0-7-3.49-7-9.32s3-9.21,7-9.21a7.06,7.06,0,0,1,5,2.23l2.77-3.35A10.84,10.84,0,0,0,12.38,0C5.62,0,0,5.15,0,13.93S5.44,27.64,12.17,27.64a10.75,10.75,0,0,0,8.49-3.92l-2.81-3.27A7.21,7.21,0,0,1,12.38,23.07ZM34,0C26.89,0,22,5,22,13.71S26.89,27.64,34,27.64s11.88-5.29,11.88-13.93S41,0,34,0Zm0,23.07c-4,0-6.52-3.67-6.52-9.36S30,4.54,34,4.54,40.46,8,40.46,13.71,37.91,23.07,34,23.07Zm63.93-7.56h9.36V11.09H97.88V4.9h11.05V.47H92.63V27.14h16.7V22.71H97.88ZM77.11.47H71.86V27.14H88V22.71H77.11ZM214.92,11.19c0,3,.43,6.56.72,9.33h-.18l-2.7-5.76L205,.47h-5.36V27.14h5V16.38c0-3.06-.43-6.41-.65-9.29h.18l2.7,5.72,7.74,14.33h5.36V.47h-5ZM125.75,23.07c-4.25,0-7-3.49-7-9.32s3-9.21,7.06-9.21a7.1,7.1,0,0,1,5,2.23l2.77-3.35A10.87,10.87,0,0,0,125.75,0C119,0,113.36,5.15,113.36,13.93s5.44,13.71,12.17,13.71a10.77,10.77,0,0,0,8.5-3.92l-2.81-3.27A7.25,7.25,0,0,1,125.75,23.07ZM182.48,0c-7,0-11.91,5-11.91,13.71s4.86,13.93,11.91,13.93,11.88-5.29,11.88-13.93S189.54,0,182.48,0Zm0,23.07c-4,0-6.51-3.67-6.51-9.36s2.52-9.17,6.51-9.17S189,8,189,13.71,186.44,23.07,182.48,23.07Zm56.38-10.72-3.49-1.44c-2.27-.9-4.14-1.62-4.14-3.57,0-1.72,1.44-2.8,3.81-2.8a8.53,8.53,0,0,1,5.69,2.23l2.66-3.31A11.83,11.83,0,0,0,235,0c-5.36,0-9.18,3.35-9.18,7.7,0,3.89,2.74,6.05,5.4,7.13l3.57,1.51c2.37,1.05,4,1.66,4,3.67,0,1.84-1.44,3.06-4.25,3.06a10.53,10.53,0,0,1-6.8-2.95l-3,3.64a14.19,14.19,0,0,0,9.72,3.88c6.11,0,9.75-3.7,9.75-8.06C244.22,15.77,242.1,13.68,238.86,12.35ZM160.09,27.14h5.26V.47h-5.26ZM135.36,4.9h7.52V27.14h5.26V4.9h7.56V.47H135.36Z" fill="url(#斜线)"/></g></g></g></svg>