<svg xmlns="http://www.w3.org/2000/svg" xmlns:xlink="http://www.w3.org/1999/xlink" viewBox="0 0 296 6"><defs><pattern id="斜线" data-name="斜线" width="2" height="2.4" patternUnits="userSpaceOnUse" viewBox="0 0 2 2.4"><rect width="2" height="2.4" fill="none"/><line x1="0.7" y1="50.07" x2="21.3" y2="0.33" fill="#666" stroke="#666" stroke-miterlimit="10" stroke-width="0.25" opacity="0.15"/><line x1="-1.3" y1="50.07" x2="19.3" y2="0.33" fill="#666" stroke="#666" stroke-miterlimit="10" stroke-width="0.25" opacity="0.15"/><line x1="-3.3" y1="50.07" x2="17.3" y2="0.33" fill="#666" stroke="#666" stroke-miterlimit="10" stroke-width="0.25" opacity="0.15"/><line x1="-5.3" y1="50.07" x2="15.3" y2="0.33" fill="#666" stroke="#666" stroke-miterlimit="10" stroke-width="0.25" opacity="0.15"/><line x1="-7.3" y1="50.07" x2="13.3" y2="0.33" fill="#666" stroke="#666" stroke-miterlimit="10" stroke-width="0.25" opacity="0.15"/><line x1="-9.3" y1="50.07" x2="11.3" y2="0.33" fill="#666" stroke="#666" stroke-miterlimit="10" stroke-width="0.25" opacity="0.15"/><line x1="-11.3" y1="50.07" x2="9.3" y2="0.33" fill="#666" stroke="#666" stroke-miterlimit="10" stroke-width="0.25" opacity="0.15"/><line x1="-13.3" y1="50.07" x2="7.3" y2="0.33" fill="#666" stroke="#666" stroke-miterlimit="10" stroke-width="0.25" opacity="0.15"/><line x1="-15.3" y1="50.07" x2="5.3" y2="0.33" fill="#666" stroke="#666" stroke-miterlimit="10" stroke-width="0.25" opacity="0.15"/><line x1="-17.3" y1="50.07" x2="3.3" y2="0.33" fill="#666" stroke="#666" stroke-miterlimit="10" stroke-width="0.25" opacity="0.15"/><line x1="-19.3" y1="50.07" x2="1.3" y2="0.33" fill="#666" stroke="#666" stroke-miterlimit="10" stroke-width="0.25" opacity="0.15"/><line x1="0.7" y1="47.67" x2="21.3" y2="-2.07" fill="#666" stroke="#666" stroke-miterlimit="10" stroke-width="0.25" opacity="0.15"/><line x1="-1.3" y1="47.67" x2="19.3" y2="-2.07" fill="#666" stroke="#666" stroke-miterlimit="10" stroke-width="0.25" opacity="0.15"/><line x1="-3.3" y1="47.67" x2="17.3" y2="-2.07" fill="#666" stroke="#666" stroke-miterlimit="10" stroke-width="0.25" opacity="0.15"/><line x1="-5.3" y1="47.67" x2="15.3" y2="-2.07" fill="#666" stroke="#666" stroke-miterlimit="10" stroke-width="0.25" opacity="0.15"/><line x1="-7.3" y1="47.67" x2="13.3" y2="-2.07" fill="#666" stroke="#666" stroke-miterlimit="10" stroke-width="0.25" opacity="0.15"/><line x1="-9.3" y1="47.67" x2="11.3" y2="-2.07" fill="#666" stroke="#666" stroke-miterlimit="10" stroke-width="0.25" opacity="0.15"/><line x1="-11.3" y1="47.67" x2="9.3" y2="-2.07" fill="#666" stroke="#666" stroke-miterlimit="10" stroke-width="0.25" opacity="0.15"/><line x1="-13.3" y1="47.67" x2="7.3" y2="-2.07" fill="#666" stroke="#666" stroke-miterlimit="10" stroke-width="0.25" opacity="0.15"/><line x1="-15.3" y1="47.67" x2="5.3" y2="-2.07" fill="#666" stroke="#666" stroke-miterlimit="10" stroke-width="0.25" opacity="0.15"/><line x1="-17.3" y1="47.67" x2="3.3" y2="-2.07" fill="#666" stroke="#666" stroke-miterlimit="10" stroke-width="0.25" opacity="0.15"/><line x1="-19.3" y1="47.67" x2="1.3" y2="-2.07" fill="#666" stroke="#666" stroke-miterlimit="10" stroke-width="0.25" opacity="0.15"/><line x1="0.7" y1="45.27" x2="21.3" y2="-4.47" fill="#666" stroke="#666" stroke-miterlimit="10" stroke-width="0.25" opacity="0.15"/><line x1="-1.3" y1="45.27" x2="19.3" y2="-4.47" fill="#666" stroke="#666" stroke-miterlimit="10" stroke-width="0.25" opacity="0.15"/><line x1="-3.3" y1="45.27" x2="17.3" y2="-4.47" fill="#666" stroke="#666" stroke-miterlimit="10" stroke-width="0.25" opacity="0.15"/><line x1="-5.3" y1="45.27" x2="15.3" y2="-4.47" fill="#666" stroke="#666" stroke-miterlimit="10" stroke-width="0.25" opacity="0.15"/><line x1="-7.3" y1="45.27" x2="13.3" y2="-4.47" fill="#666" stroke="#666" stroke-miterlimit="10" stroke-width="0.25" opacity="0.15"/><line x1="-9.3" y1="45.27" x2="11.3" y2="-4.47" fill="#666" stroke="#666" stroke-miterlimit="10" stroke-width="0.25" opacity="0.15"/><line x1="-11.3" y1="45.27" x2="9.3" y2="-4.47" fill="#666" stroke="#666" stroke-miterlimit="10" stroke-width="0.25" opacity="0.15"/><line x1="-13.3" y1="45.27" x2="7.3" y2="-4.47" fill="#666" stroke="#666" stroke-miterlimit="10" stroke-width="0.25" opacity="0.15"/><line x1="-15.3" y1="45.27" x2="5.3" y2="-4.47" fill="#666" stroke="#666" stroke-miterlimit="10" stroke-width="0.25" opacity="0.15"/><line x1="-17.3" y1="45.27" x2="3.3" y2="-4.47" fill="#666" stroke="#666" stroke-miterlimit="10" stroke-width="0.25" opacity="0.15"/><line x1="-19.3" y1="45.27" x2="1.3" y2="-4.47" fill="#666" stroke="#666" stroke-miterlimit="10" stroke-width="0.25" opacity="0.15"/><line x1="0.7" y1="42.87" x2="21.3" y2="-6.87" fill="#666" stroke="#666" stroke-miterlimit="10" stroke-width="0.25" opacity="0.15"/><line x1="-1.3" y1="42.87" x2="19.3" y2="-6.87" fill="#666" stroke="#666" stroke-miterlimit="10" stroke-width="0.25" opacity="0.15"/><line x1="-3.3" y1="42.87" x2="17.3" y2="-6.87" fill="#666" stroke="#666" stroke-miterlimit="10" stroke-width="0.25" opacity="0.15"/><line x1="-5.3" y1="42.87" x2="15.3" y2="-6.87" fill="#666" stroke="#666" stroke-miterlimit="10" stroke-width="0.25" opacity="0.15"/><line x1="-7.3" y1="42.87" x2="13.3" y2="-6.87" fill="#666" stroke="#666" stroke-miterlimit="10" stroke-width="0.25" opacity="0.15"/><line x1="-9.3" y1="42.87" x2="11.3" y2="-6.87" fill="#666" stroke="#666" stroke-miterlimit="10" stroke-width="0.25" opacity="0.15"/><line x1="-11.3" y1="42.87" x2="9.3" y2="-6.87" fill="#666" stroke="#666" stroke-miterlimit="10" stroke-width="0.25" opacity="0.15"/><line x1="-13.3" y1="42.87" x2="7.3" y2="-6.87" fill="#666" stroke="#666" stroke-miterlimit="10" stroke-width="0.25" opacity="0.15"/><line x1="-15.3" y1="42.87" x2="5.3" y2="-6.87" fill="#666" stroke="#666" stroke-miterlimit="10" stroke-width="0.25" opacity="0.15"/><line x1="-17.3" y1="42.87" x2="3.3" y2="-6.87" fill="#666" stroke="#666" stroke-miterlimit="10" stroke-width="0.25" opacity="0.15"/><line x1="-19.3" y1="42.87" x2="1.3" y2="-6.87" fill="#666" stroke="#666" stroke-miterlimit="10" stroke-width="0.25" opacity="0.15"/><line x1="0.7" y1="40.47" x2="21.3" y2="-9.27" fill="#666" stroke="#666" stroke-miterlimit="10" stroke-width="0.25" opacity="0.15"/><line x1="-1.3" y1="40.47" x2="19.3" y2="-9.27" fill="#666" stroke="#666" stroke-miterlimit="10" stroke-width="0.25" opacity="0.15"/><line x1="-3.3" y1="40.47" x2="17.3" y2="-9.27" fill="#666" stroke="#666" stroke-miterlimit="10" stroke-width="0.25" opacity="0.15"/><line x1="-5.3" y1="40.47" x2="15.3" y2="-9.27" fill="#666" stroke="#666" stroke-miterlimit="10" stroke-width="0.25" opacity="0.15"/><line x1="-7.3" y1="40.47" x2="13.3" y2="-9.27" fill="#666" stroke="#666" stroke-miterlimit="10" stroke-width="0.25" opacity="0.15"/><line x1="-9.3" y1="40.47" x2="11.3" y2="-9.27" fill="#666" stroke="#666" stroke-miterlimit="10" stroke-width="0.25" opacity="0.15"/><line x1="-11.3" y1="40.47" x2="9.3" y2="-9.27" fill="#666" stroke="#666" stroke-miterlimit="10" stroke-width="0.25" opacity="0.15"/><line x1="-13.3" y1="40.47" x2="7.3" y2="-9.27" fill="#666" stroke="#666" stroke-miterlimit="10" stroke-width="0.25" opacity="0.15"/><line x1="-15.3" y1="40.47" x2="5.3" y2="-9.27" fill="#666" stroke="#666" stroke-miterlimit="10" stroke-width="0.25" opacity="0.15"/><line x1="-17.3" y1="40.47" x2="3.3" y2="-9.27" fill="#666" stroke="#666" stroke-miterlimit="10" stroke-width="0.25" opacity="0.15"/><line x1="-19.3" y1="40.47" x2="1.3" y2="-9.27" fill="#666" stroke="#666" stroke-miterlimit="10" stroke-width="0.25" opacity="0.15"/><line x1="0.7" y1="38.07" x2="21.3" y2="-11.67" fill="#666" stroke="#666" stroke-miterlimit="10" stroke-width="0.25" opacity="0.15"/><line x1="-1.3" y1="38.07" x2="19.3" y2="-11.67" fill="#666" stroke="#666" stroke-miterlimit="10" stroke-width="0.25" opacity="0.15"/><line x1="-3.3" y1="38.07" x2="17.3" y2="-11.67" fill="#666" stroke="#666" stroke-miterlimit="10" stroke-width="0.25" opacity="0.15"/><line x1="-5.3" y1="38.07" x2="15.3" y2="-11.67" fill="#666" stroke="#666" stroke-miterlimit="10" stroke-width="0.25" opacity="0.15"/><line x1="-7.3" y1="38.07" x2="13.3" y2="-11.67" fill="#666" stroke="#666" stroke-miterlimit="10" stroke-width="0.25" opacity="0.15"/><line x1="-9.3" y1="38.07" x2="11.3" y2="-11.67" fill="#666" stroke="#666" stroke-miterlimit="10" stroke-width="0.25" opacity="0.15"/><line x1="-11.3" y1="38.07" x2="9.3" y2="-11.67" fill="#666" stroke="#666" stroke-miterlimit="10" stroke-width="0.25" opacity="0.15"/><line x1="-13.3" y1="38.07" x2="7.3" y2="-11.67" fill="#666" stroke="#666" stroke-miterlimit="10" stroke-width="0.25" opacity="0.15"/><line x1="-15.3" y1="38.07" x2="5.3" y2="-11.67" fill="#666" stroke="#666" stroke-miterlimit="10" stroke-width="0.25" opacity="0.15"/><line x1="-17.3" y1="38.07" x2="3.3" y2="-11.67" fill="#666" stroke="#666" stroke-miterlimit="10" stroke-width="0.25" opacity="0.15"/><line x1="-19.3" y1="38.07" x2="1.3" y2="-11.67" fill="#666" stroke="#666" stroke-miterlimit="10" stroke-width="0.25" opacity="0.15"/><line x1="0.7" y1="35.67" x2="21.3" y2="-14.07" fill="#666" stroke="#666" stroke-miterlimit="10" stroke-width="0.25" opacity="0.15"/><line x1="-1.3" y1="35.67" x2="19.3" y2="-14.07" fill="#666" stroke="#666" stroke-miterlimit="10" stroke-width="0.25" opacity="0.15"/><line x1="-3.3" y1="35.67" x2="17.3" y2="-14.07" fill="#666" stroke="#666" stroke-miterlimit="10" stroke-width="0.25" opacity="0.15"/><line x1="-5.3" y1="35.67" x2="15.3" y2="-14.07" fill="#666" stroke="#666" stroke-miterlimit="10" stroke-width="0.25" opacity="0.15"/><line x1="-7.3" y1="35.67" x2="13.3" y2="-14.07" fill="#666" stroke="#666" stroke-miterlimit="10" stroke-width="0.25" opacity="0.15"/><line x1="-9.3" y1="35.67" x2="11.3" y2="-14.07" fill="#666" stroke="#666" stroke-miterlimit="10" stroke-width="0.25" opacity="0.15"/><line x1="-11.3" y1="35.67" x2="9.3" y2="-14.07" fill="#666" stroke="#666" stroke-miterlimit="10" stroke-width="0.25" opacity="0.15"/><line x1="-13.3" y1="35.67" x2="7.3" y2="-14.07" fill="#666" stroke="#666" stroke-miterlimit="10" stroke-width="0.25" opacity="0.15"/><line x1="-15.3" y1="35.67" x2="5.3" y2="-14.07" fill="#666" stroke="#666" stroke-miterlimit="10" stroke-width="0.25" opacity="0.15"/><line x1="-17.3" y1="35.67" x2="3.3" y2="-14.07" fill="#666" stroke="#666" stroke-miterlimit="10" stroke-width="0.25" opacity="0.15"/><line x1="-19.3" y1="35.67" x2="1.3" y2="-14.07" fill="#666" stroke="#666" stroke-miterlimit="10" stroke-width="0.25" opacity="0.15"/><line x1="0.7" y1="33.27" x2="21.3" y2="-16.47" fill="#666" stroke="#666" stroke-miterlimit="10" stroke-width="0.25" opacity="0.15"/><line x1="-1.3" y1="33.27" x2="19.3" y2="-16.47" fill="#666" stroke="#666" stroke-miterlimit="10" stroke-width="0.25" opacity="0.15"/><line x1="-3.3" y1="33.27" x2="17.3" y2="-16.47" fill="#666" stroke="#666" stroke-miterlimit="10" stroke-width="0.25" opacity="0.15"/><line x1="-5.3" y1="33.27" x2="15.3" y2="-16.47" fill="#666" stroke="#666" stroke-miterlimit="10" stroke-width="0.25" opacity="0.15"/><line x1="-7.3" y1="33.27" x2="13.3" y2="-16.47" fill="#666" stroke="#666" stroke-miterlimit="10" stroke-width="0.25" opacity="0.15"/><line x1="-9.3" y1="33.27" x2="11.3" y2="-16.47" fill="#666" stroke="#666" stroke-miterlimit="10" stroke-width="0.25" opacity="0.15"/><line x1="-11.3" y1="33.27" x2="9.3" y2="-16.47" fill="#666" stroke="#666" stroke-miterlimit="10" stroke-width="0.25" opacity="0.15"/><line x1="-13.3" y1="33.27" x2="7.3" y2="-16.47" fill="#666" stroke="#666" stroke-miterlimit="10" stroke-width="0.25" opacity="0.15"/><line x1="-15.3" y1="33.27" x2="5.3" y2="-16.47" fill="#666" stroke="#666" stroke-miterlimit="10" stroke-width="0.25" opacity="0.15"/><line x1="-17.3" y1="33.27" x2="3.3" y2="-16.47" fill="#666" stroke="#666" stroke-miterlimit="10" stroke-width="0.25" opacity="0.15"/><line x1="-19.3" y1="33.27" x2="1.3" y2="-16.47" fill="#666" stroke="#666" stroke-miterlimit="10" stroke-width="0.25" opacity="0.15"/><line x1="0.7" y1="30.87" x2="21.3" y2="-18.87" fill="#666" stroke="#666" stroke-miterlimit="10" stroke-width="0.25" opacity="0.15"/><line x1="-1.3" y1="30.87" x2="19.3" y2="-18.87" fill="#666" stroke="#666" stroke-miterlimit="10" stroke-width="0.25" opacity="0.15"/><line x1="-3.3" y1="30.87" x2="17.3" y2="-18.87" fill="#666" stroke="#666" stroke-miterlimit="10" stroke-width="0.25" opacity="0.15"/><line x1="-5.3" y1="30.87" x2="15.3" y2="-18.87" fill="#666" stroke="#666" stroke-miterlimit="10" stroke-width="0.25" opacity="0.15"/><line x1="-7.3" y1="30.87" x2="13.3" y2="-18.87" fill="#666" stroke="#666" stroke-miterlimit="10" stroke-width="0.25" opacity="0.15"/><line x1="-9.3" y1="30.87" x2="11.3" y2="-18.87" fill="#666" stroke="#666" stroke-miterlimit="10" stroke-width="0.25" opacity="0.15"/><line x1="-11.3" y1="30.87" x2="9.3" y2="-18.87" fill="#666" stroke="#666" stroke-miterlimit="10" stroke-width="0.25" opacity="0.15"/><line x1="-13.3" y1="30.87" x2="7.3" y2="-18.87" fill="#666" stroke="#666" stroke-miterlimit="10" stroke-width="0.25" opacity="0.15"/><line x1="-15.3" y1="30.87" x2="5.3" y2="-18.87" fill="#666" stroke="#666" stroke-miterlimit="10" stroke-width="0.25" opacity="0.15"/><line x1="-17.3" y1="30.87" x2="3.3" y2="-18.87" fill="#666" stroke="#666" stroke-miterlimit="10" stroke-width="0.25" opacity="0.15"/><line x1="-19.3" y1="30.87" x2="1.3" y2="-18.87" fill="#666" stroke="#666" stroke-miterlimit="10" stroke-width="0.25" opacity="0.15"/><line x1="0.7" y1="28.47" x2="21.3" y2="-21.27" fill="#666" stroke="#666" stroke-miterlimit="10" stroke-width="0.25" opacity="0.15"/><line x1="-1.3" y1="28.47" x2="19.3" y2="-21.27" fill="#666" stroke="#666" stroke-miterlimit="10" stroke-width="0.25" opacity="0.15"/><line x1="-3.3" y1="28.47" x2="17.3" y2="-21.27" fill="#666" stroke="#666" stroke-miterlimit="10" stroke-width="0.25" opacity="0.15"/><line x1="-5.3" y1="28.47" x2="15.3" y2="-21.27" fill="#666" stroke="#666" stroke-miterlimit="10" stroke-width="0.25" opacity="0.15"/><line x1="-7.3" y1="28.47" x2="13.3" y2="-21.27" fill="#666" stroke="#666" stroke-miterlimit="10" stroke-width="0.25" opacity="0.15"/><line x1="-9.3" y1="28.47" x2="11.3" y2="-21.27" fill="#666" stroke="#666" stroke-miterlimit="10" stroke-width="0.25" opacity="0.15"/><line x1="-11.3" y1="28.47" x2="9.3" y2="-21.27" fill="#666" stroke="#666" stroke-miterlimit="10" stroke-width="0.25" opacity="0.15"/><line x1="-13.3" y1="28.47" x2="7.3" y2="-21.27" fill="#666" stroke="#666" stroke-miterlimit="10" stroke-width="0.25" opacity="0.15"/><line x1="-15.3" y1="28.47" x2="5.3" y2="-21.27" fill="#666" stroke="#666" stroke-miterlimit="10" stroke-width="0.25" opacity="0.15"/><line x1="-17.3" y1="28.47" x2="3.3" y2="-21.27" fill="#666" stroke="#666" stroke-miterlimit="10" stroke-width="0.25" opacity="0.15"/><line x1="-19.3" y1="28.47" x2="1.3" y2="-21.27" fill="#666" stroke="#666" stroke-miterlimit="10" stroke-width="0.25" opacity="0.15"/><line x1="0.7" y1="26.07" x2="21.3" y2="-23.67" fill="#666" stroke="#666" stroke-miterlimit="10" stroke-width="0.25" opacity="0.15"/><line x1="-1.3" y1="26.07" x2="19.3" y2="-23.67" fill="#666" stroke="#666" stroke-miterlimit="10" stroke-width="0.25" opacity="0.15"/><line x1="-3.3" y1="26.07" x2="17.3" y2="-23.67" fill="#666" stroke="#666" stroke-miterlimit="10" stroke-width="0.25" opacity="0.15"/><line x1="-5.3" y1="26.07" x2="15.3" y2="-23.67" fill="#666" stroke="#666" stroke-miterlimit="10" stroke-width="0.25" opacity="0.15"/><line x1="-7.3" y1="26.07" x2="13.3" y2="-23.67" fill="#666" stroke="#666" stroke-miterlimit="10" stroke-width="0.25" opacity="0.15"/><line x1="-9.3" y1="26.07" x2="11.3" y2="-23.67" fill="#666" stroke="#666" stroke-miterlimit="10" stroke-width="0.25" opacity="0.15"/><line x1="-11.3" y1="26.07" x2="9.3" y2="-23.67" fill="#666" stroke="#666" stroke-miterlimit="10" stroke-width="0.25" opacity="0.15"/><line x1="-13.3" y1="26.07" x2="7.3" y2="-23.67" fill="#666" stroke="#666" stroke-miterlimit="10" stroke-width="0.25" opacity="0.15"/><line x1="-15.3" y1="26.07" x2="5.3" y2="-23.67" fill="#666" stroke="#666" stroke-miterlimit="10" stroke-width="0.25" opacity="0.15"/><line x1="-17.3" y1="26.07" x2="3.3" y2="-23.67" fill="#666" stroke="#666" stroke-miterlimit="10" stroke-width="0.25" opacity="0.15"/><line x1="-19.3" y1="26.07" x2="1.3" y2="-23.67" fill="#666" stroke="#666" stroke-miterlimit="10" stroke-width="0.25" opacity="0.15"/><line x1="0.7" y1="23.67" x2="21.3" y2="-26.07" fill="#666" stroke="#666" stroke-miterlimit="10" stroke-width="0.25" opacity="0.15"/><line x1="-1.3" y1="23.67" x2="19.3" y2="-26.07" fill="#666" stroke="#666" stroke-miterlimit="10" stroke-width="0.25" opacity="0.15"/><line x1="-3.3" y1="23.67" x2="17.3" y2="-26.07" fill="#666" stroke="#666" stroke-miterlimit="10" stroke-width="0.25" opacity="0.15"/><line x1="-5.3" y1="23.67" x2="15.3" y2="-26.07" fill="#666" stroke="#666" stroke-miterlimit="10" stroke-width="0.25" opacity="0.15"/><line x1="-7.3" y1="23.67" x2="13.3" y2="-26.07" fill="#666" stroke="#666" stroke-miterlimit="10" stroke-width="0.25" opacity="0.15"/><line x1="-9.3" y1="23.67" x2="11.3" y2="-26.07" fill="#666" stroke="#666" stroke-miterlimit="10" stroke-width="0.25" opacity="0.15"/><line x1="-11.3" y1="23.67" x2="9.3" y2="-26.07" fill="#666" stroke="#666" stroke-miterlimit="10" stroke-width="0.25" opacity="0.15"/><line x1="-13.3" y1="23.67" x2="7.3" y2="-26.07" fill="#666" stroke="#666" stroke-miterlimit="10" stroke-width="0.25" opacity="0.15"/><line x1="-15.3" y1="23.67" x2="5.3" y2="-26.07" fill="#666" stroke="#666" stroke-miterlimit="10" stroke-width="0.25" opacity="0.15"/><line x1="-17.3" y1="23.67" x2="3.3" y2="-26.07" fill="#666" stroke="#666" stroke-miterlimit="10" stroke-width="0.25" opacity="0.15"/><line x1="-19.3" y1="23.67" x2="1.3" y2="-26.07" fill="#666" stroke="#666" stroke-miterlimit="10" stroke-width="0.25" opacity="0.15"/><line x1="0.7" y1="21.27" x2="21.3" y2="-28.47" fill="#666" stroke="#666" stroke-miterlimit="10" stroke-width="0.25" opacity="0.15"/><line x1="-1.3" y1="21.27" x2="19.3" y2="-28.47" fill="#666" stroke="#666" stroke-miterlimit="10" stroke-width="0.25" opacity="0.15"/><line x1="-3.3" y1="21.27" x2="17.3" y2="-28.47" fill="#666" stroke="#666" stroke-miterlimit="10" stroke-width="0.25" opacity="0.15"/><line x1="-5.3" y1="21.27" x2="15.3" y2="-28.47" fill="#666" stroke="#666" stroke-miterlimit="10" stroke-width="0.25" opacity="0.15"/><line x1="-7.3" y1="21.27" x2="13.3" y2="-28.47" fill="#666" stroke="#666" stroke-miterlimit="10" stroke-width="0.25" opacity="0.15"/><line x1="-9.3" y1="21.27" x2="11.3" y2="-28.47" fill="#666" stroke="#666" stroke-miterlimit="10" stroke-width="0.25" opacity="0.15"/><line x1="-11.3" y1="21.27" x2="9.3" y2="-28.47" fill="#666" stroke="#666" stroke-miterlimit="10" stroke-width="0.25" opacity="0.15"/><line x1="-13.3" y1="21.27" x2="7.3" y2="-28.47" fill="#666" stroke="#666" stroke-miterlimit="10" stroke-width="0.25" opacity="0.15"/><line x1="-15.3" y1="21.27" x2="5.3" y2="-28.47" fill="#666" stroke="#666" stroke-miterlimit="10" stroke-width="0.25" opacity="0.15"/><line x1="-17.3" y1="21.27" x2="3.3" y2="-28.47" fill="#666" stroke="#666" stroke-miterlimit="10" stroke-width="0.25" opacity="0.15"/><line x1="-19.3" y1="21.27" x2="1.3" y2="-28.47" fill="#666" stroke="#666" stroke-miterlimit="10" stroke-width="0.25" opacity="0.15"/><line x1="0.7" y1="18.87" x2="21.3" y2="-30.87" fill="#666" stroke="#666" stroke-miterlimit="10" stroke-width="0.25" opacity="0.15"/><line x1="-1.3" y1="18.87" x2="19.3" y2="-30.87" fill="#666" stroke="#666" stroke-miterlimit="10" stroke-width="0.25" opacity="0.15"/><line x1="-3.3" y1="18.87" x2="17.3" y2="-30.87" fill="#666" stroke="#666" stroke-miterlimit="10" stroke-width="0.25" opacity="0.15"/><line x1="-5.3" y1="18.87" x2="15.3" y2="-30.87" fill="#666" stroke="#666" stroke-miterlimit="10" stroke-width="0.25" opacity="0.15"/><line x1="-7.3" y1="18.87" x2="13.3" y2="-30.87" fill="#666" stroke="#666" stroke-miterlimit="10" stroke-width="0.25" opacity="0.15"/><line x1="-9.3" y1="18.87" x2="11.3" y2="-30.87" fill="#666" stroke="#666" stroke-miterlimit="10" stroke-width="0.25" opacity="0.15"/><line x1="-11.3" y1="18.87" x2="9.3" y2="-30.87" fill="#666" stroke="#666" stroke-miterlimit="10" stroke-width="0.25" opacity="0.15"/><line x1="-13.3" y1="18.87" x2="7.3" y2="-30.87" fill="#666" stroke="#666" stroke-miterlimit="10" stroke-width="0.25" opacity="0.15"/><line x1="-15.3" y1="18.87" x2="5.3" y2="-30.87" fill="#666" stroke="#666" stroke-miterlimit="10" stroke-width="0.25" opacity="0.15"/><line x1="-17.3" y1="18.87" x2="3.3" y2="-30.87" fill="#666" stroke="#666" stroke-miterlimit="10" stroke-width="0.25" opacity="0.15"/><line x1="-19.3" y1="18.87" x2="1.3" y2="-30.87" fill="#666" stroke="#666" stroke-miterlimit="10" stroke-width="0.25" opacity="0.15"/><line x1="0.7" y1="16.47" x2="21.3" y2="-33.27" fill="#666" stroke="#666" stroke-miterlimit="10" stroke-width="0.25" opacity="0.15"/><line x1="-1.3" y1="16.47" x2="19.3" y2="-33.27" fill="#666" stroke="#666" stroke-miterlimit="10" stroke-width="0.25" opacity="0.15"/><line x1="-3.3" y1="16.47" x2="17.3" y2="-33.27" fill="#666" stroke="#666" stroke-miterlimit="10" stroke-width="0.25" opacity="0.15"/><line x1="-5.3" y1="16.47" x2="15.3" y2="-33.27" fill="#666" stroke="#666" stroke-miterlimit="10" stroke-width="0.25" opacity="0.15"/><line x1="-7.3" y1="16.47" x2="13.3" y2="-33.27" fill="#666" stroke="#666" stroke-miterlimit="10" stroke-width="0.25" opacity="0.15"/><line x1="-9.3" y1="16.47" x2="11.3" y2="-33.27" fill="#666" stroke="#666" stroke-miterlimit="10" stroke-width="0.25" opacity="0.15"/><line x1="-11.3" y1="16.47" x2="9.3" y2="-33.27" fill="#666" stroke="#666" stroke-miterlimit="10" stroke-width="0.25" opacity="0.15"/><line x1="-13.3" y1="16.47" x2="7.3" y2="-33.27" fill="#666" stroke="#666" stroke-miterlimit="10" stroke-width="0.25" opacity="0.15"/><line x1="-15.3" y1="16.47" x2="5.3" y2="-33.27" fill="#666" stroke="#666" stroke-miterlimit="10" stroke-width="0.25" opacity="0.15"/><line x1="-17.3" y1="16.47" x2="3.3" y2="-33.27" fill="#666" stroke="#666" stroke-miterlimit="10" stroke-width="0.25" opacity="0.15"/><line x1="-19.3" y1="16.47" x2="1.3" y2="-33.27" fill="#666" stroke="#666" stroke-miterlimit="10" stroke-width="0.25" opacity="0.15"/><line x1="0.7" y1="14.07" x2="21.3" y2="-35.67" fill="#666" stroke="#666" stroke-miterlimit="10" stroke-width="0.25" opacity="0.15"/><line x1="-1.3" y1="14.07" x2="19.3" y2="-35.67" fill="#666" stroke="#666" stroke-miterlimit="10" stroke-width="0.25" opacity="0.15"/><line x1="-3.3" y1="14.07" x2="17.3" y2="-35.67" fill="#666" stroke="#666" stroke-miterlimit="10" stroke-width="0.25" opacity="0.15"/><line x1="-5.3" y1="14.07" x2="15.3" y2="-35.67" fill="#666" stroke="#666" stroke-miterlimit="10" stroke-width="0.25" opacity="0.15"/><line x1="-7.3" y1="14.07" x2="13.3" y2="-35.67" fill="#666" stroke="#666" stroke-miterlimit="10" stroke-width="0.25" opacity="0.15"/><line x1="-9.3" y1="14.07" x2="11.3" y2="-35.67" fill="#666" stroke="#666" stroke-miterlimit="10" stroke-width="0.25" opacity="0.15"/><line x1="-11.3" y1="14.07" x2="9.3" y2="-35.67" fill="#666" stroke="#666" stroke-miterlimit="10" stroke-width="0.25" opacity="0.15"/><line x1="-13.3" y1="14.07" x2="7.3" y2="-35.67" fill="#666" stroke="#666" stroke-miterlimit="10" stroke-width="0.25" opacity="0.15"/><line x1="-15.3" y1="14.07" x2="5.3" y2="-35.67" fill="#666" stroke="#666" stroke-miterlimit="10" stroke-width="0.25" opacity="0.15"/><line x1="-17.3" y1="14.07" x2="3.3" y2="-35.67" fill="#666" stroke="#666" stroke-miterlimit="10" stroke-width="0.25" opacity="0.15"/><line x1="-19.3" y1="14.07" x2="1.3" y2="-35.67" fill="#666" stroke="#666" stroke-miterlimit="10" stroke-width="0.25" opacity="0.15"/><line x1="0.7" y1="11.67" x2="21.3" y2="-38.07" fill="#666" stroke="#666" stroke-miterlimit="10" stroke-width="0.25" opacity="0.15"/><line x1="-1.3" y1="11.67" x2="19.3" y2="-38.07" fill="#666" stroke="#666" stroke-miterlimit="10" stroke-width="0.25" opacity="0.15"/><line x1="-3.3" y1="11.67" x2="17.3" y2="-38.07" fill="#666" stroke="#666" stroke-miterlimit="10" stroke-width="0.25" opacity="0.15"/><line x1="-5.3" y1="11.67" x2="15.3" y2="-38.07" fill="#666" stroke="#666" stroke-miterlimit="10" stroke-width="0.25" opacity="0.15"/><line x1="-7.3" y1="11.67" x2="13.3" y2="-38.07" fill="#666" stroke="#666" stroke-miterlimit="10" stroke-width="0.25" opacity="0.15"/><line x1="-9.3" y1="11.67" x2="11.3" y2="-38.07" fill="#666" stroke="#666" stroke-miterlimit="10" stroke-width="0.25" opacity="0.15"/><line x1="-11.3" y1="11.67" x2="9.3" y2="-38.07" fill="#666" stroke="#666" stroke-miterlimit="10" stroke-width="0.25" opacity="0.15"/><line x1="-13.3" y1="11.67" x2="7.3" y2="-38.07" fill="#666" stroke="#666" stroke-miterlimit="10" stroke-width="0.25" opacity="0.15"/><line x1="-15.3" y1="11.67" x2="5.3" y2="-38.07" fill="#666" stroke="#666" stroke-miterlimit="10" stroke-width="0.25" opacity="0.15"/><line x1="-17.3" y1="11.67" x2="3.3" y2="-38.07" fill="#666" stroke="#666" stroke-miterlimit="10" stroke-width="0.25" opacity="0.15"/><line x1="-19.3" y1="11.67" x2="1.3" y2="-38.07" fill="#666" stroke="#666" stroke-miterlimit="10" stroke-width="0.25" opacity="0.15"/><line x1="0.7" y1="9.27" x2="21.3" y2="-40.47" fill="#666" stroke="#666" stroke-miterlimit="10" stroke-width="0.25" opacity="0.15"/><line x1="-1.3" y1="9.27" x2="19.3" y2="-40.47" fill="#666" stroke="#666" stroke-miterlimit="10" stroke-width="0.25" opacity="0.15"/><line x1="-3.3" y1="9.27" x2="17.3" y2="-40.47" fill="#666" stroke="#666" stroke-miterlimit="10" stroke-width="0.25" opacity="0.15"/><line x1="-5.3" y1="9.27" x2="15.3" y2="-40.47" fill="#666" stroke="#666" stroke-miterlimit="10" stroke-width="0.25" opacity="0.15"/><line x1="-7.3" y1="9.27" x2="13.3" y2="-40.47" fill="#666" stroke="#666" stroke-miterlimit="10" stroke-width="0.25" opacity="0.15"/><line x1="-9.3" y1="9.27" x2="11.3" y2="-40.47" fill="#666" stroke="#666" stroke-miterlimit="10" stroke-width="0.25" opacity="0.15"/><line x1="-11.3" y1="9.27" x2="9.3" y2="-40.47" fill="#666" stroke="#666" stroke-miterlimit="10" stroke-width="0.25" opacity="0.15"/><line x1="-13.3" y1="9.27" x2="7.3" y2="-40.47" fill="#666" stroke="#666" stroke-miterlimit="10" stroke-width="0.25" opacity="0.15"/><line x1="-15.3" y1="9.27" x2="5.3" y2="-40.47" fill="#666" stroke="#666" stroke-miterlimit="10" stroke-width="0.25" opacity="0.15"/><line x1="-17.3" y1="9.27" x2="3.3" y2="-40.47" fill="#666" stroke="#666" stroke-miterlimit="10" stroke-width="0.25" opacity="0.15"/><line x1="-19.3" y1="9.27" x2="1.3" y2="-40.47" fill="#666" stroke="#666" stroke-miterlimit="10" stroke-width="0.25" opacity="0.15"/><line x1="0.7" y1="6.87" x2="21.3" y2="-42.87" fill="#666" stroke="#666" stroke-miterlimit="10" stroke-width="0.25" opacity="0.15"/><line x1="-1.3" y1="6.87" x2="19.3" y2="-42.87" fill="#666" stroke="#666" stroke-miterlimit="10" stroke-width="0.25" opacity="0.15"/><line x1="-3.3" y1="6.87" x2="17.3" y2="-42.87" fill="#666" stroke="#666" stroke-miterlimit="10" stroke-width="0.25" opacity="0.15"/><line x1="-5.3" y1="6.87" x2="15.3" y2="-42.87" fill="#666" stroke="#666" stroke-miterlimit="10" stroke-width="0.25" opacity="0.15"/><line x1="-7.3" y1="6.87" x2="13.3" y2="-42.87" fill="#666" stroke="#666" stroke-miterlimit="10" stroke-width="0.25" opacity="0.15"/><line x1="-9.3" y1="6.87" x2="11.3" y2="-42.87" fill="#666" stroke="#666" stroke-miterlimit="10" stroke-width="0.25" opacity="0.15"/><line x1="-11.3" y1="6.87" x2="9.3" y2="-42.87" fill="#666" stroke="#666" stroke-miterlimit="10" stroke-width="0.25" opacity="0.15"/><line x1="-13.3" y1="6.87" x2="7.3" y2="-42.87" fill="#666" stroke="#666" stroke-miterlimit="10" stroke-width="0.25" opacity="0.15"/><line x1="-15.3" y1="6.87" x2="5.3" y2="-42.87" fill="#666" stroke="#666" stroke-miterlimit="10" stroke-width="0.25" opacity="0.15"/><line x1="-17.3" y1="6.87" x2="3.3" y2="-42.87" fill="#666" stroke="#666" stroke-miterlimit="10" stroke-width="0.25" opacity="0.15"/><line x1="-19.3" y1="6.87" x2="1.3" y2="-42.87" fill="#666" stroke="#666" stroke-miterlimit="10" stroke-width="0.25" opacity="0.15"/><line x1="0.7" y1="4.47" x2="21.3" y2="-45.27" fill="#666" stroke="#666" stroke-miterlimit="10" stroke-width="0.25" opacity="0.15"/><line x1="-1.3" y1="4.47" x2="19.3" y2="-45.27" fill="#666" stroke="#666" stroke-miterlimit="10" stroke-width="0.25" opacity="0.15"/><line x1="-3.3" y1="4.47" x2="17.3" y2="-45.27" fill="#666" stroke="#666" stroke-miterlimit="10" stroke-width="0.25" opacity="0.15"/><line x1="-5.3" y1="4.47" x2="15.3" y2="-45.27" fill="#666" stroke="#666" stroke-miterlimit="10" stroke-width="0.25" opacity="0.15"/><line x1="-7.3" y1="4.47" x2="13.3" y2="-45.27" fill="#666" stroke="#666" stroke-miterlimit="10" stroke-width="0.25" opacity="0.15"/><line x1="-9.3" y1="4.47" x2="11.3" y2="-45.27" fill="#666" stroke="#666" stroke-miterlimit="10" stroke-width="0.25" opacity="0.15"/><line x1="-11.3" y1="4.47" x2="9.3" y2="-45.27" fill="#666" stroke="#666" stroke-miterlimit="10" stroke-width="0.25" opacity="0.15"/><line x1="-13.3" y1="4.47" x2="7.3" y2="-45.27" fill="#666" stroke="#666" stroke-miterlimit="10" stroke-width="0.25" opacity="0.15"/><line x1="-15.3" y1="4.47" x2="5.3" y2="-45.27" fill="#666" stroke="#666" stroke-miterlimit="10" stroke-width="0.25" opacity="0.15"/><line x1="-17.3" y1="4.47" x2="3.3" y2="-45.27" fill="#666" stroke="#666" stroke-miterlimit="10" stroke-width="0.25" opacity="0.15"/><line x1="-19.3" y1="4.47" x2="1.3" y2="-45.27" fill="#666" stroke="#666" stroke-miterlimit="10" stroke-width="0.25" opacity="0.15"/><line x1="0.7" y1="2.07" x2="21.3" y2="-47.67" fill="#666" stroke="#666" stroke-miterlimit="10" stroke-width="0.25" opacity="0.15"/><line x1="-1.3" y1="2.07" x2="19.3" y2="-47.67" fill="#666" stroke="#666" stroke-miterlimit="10" stroke-width="0.25" opacity="0.15"/><line x1="-3.3" y1="2.07" x2="17.3" y2="-47.67" fill="#666" stroke="#666" stroke-miterlimit="10" stroke-width="0.25" opacity="0.15"/><line x1="-5.3" y1="2.07" x2="15.3" y2="-47.67" fill="#666" stroke="#666" stroke-miterlimit="10" stroke-width="0.25" opacity="0.15"/><line x1="-7.3" y1="2.07" x2="13.3" y2="-47.67" fill="#666" stroke="#666" stroke-miterlimit="10" stroke-width="0.25" opacity="0.15"/><line x1="-9.3" y1="2.07" x2="11.3" y2="-47.67" fill="#666" stroke="#666" stroke-miterlimit="10" stroke-width="0.25" opacity="0.15"/><line x1="-11.3" y1="2.07" x2="9.3" y2="-47.67" fill="#666" stroke="#666" stroke-miterlimit="10" stroke-width="0.25" opacity="0.15"/><line x1="-13.3" y1="2.07" x2="7.3" y2="-47.67" fill="#666" stroke="#666" stroke-miterlimit="10" stroke-width="0.25" opacity="0.15"/><line x1="-15.3" y1="2.07" x2="5.3" y2="-47.67" fill="#666" stroke="#666" stroke-miterlimit="10" stroke-width="0.25" opacity="0.15"/><line x1="-17.3" y1="2.07" x2="3.3" y2="-47.67" fill="#666" stroke="#666" stroke-miterlimit="10" stroke-width="0.25" opacity="0.15"/><line x1="-19.3" y1="2.07" x2="1.3" y2="-47.67" fill="#666" stroke="#666" stroke-miterlimit="10" stroke-width="0.25" opacity="0.15"/></pattern></defs><g id="图层_2" data-name="图层 2"><g id="图层_1-2" data-name="图层 1"><rect width="296" height="6" opacity="0.5" fill="url(#斜线)"/></g></g></svg>