<svg xmlns="http://www.w3.org/2000/svg" xmlns:xlink="http://www.w3.org/1999/xlink" viewBox="0 0 262.96 3.46"><defs><pattern id="斜线" data-name="斜线" width="2.5" height="3" patternUnits="userSpaceOnUse" viewBox="0 0 2.5 3"><rect width="2.5" height="3" fill="none"/><line x1="0.95" y1="50.37" x2="21.55" y2="0.63" fill="#666" stroke="#666" stroke-miterlimit="10" stroke-width="0.35" opacity="0.15"/><line x1="-1.55" y1="50.37" x2="19.05" y2="0.63" fill="#666" stroke="#666" stroke-miterlimit="10" stroke-width="0.35" opacity="0.15"/><line x1="-4.05" y1="50.37" x2="16.55" y2="0.63" fill="#666" stroke="#666" stroke-miterlimit="10" stroke-width="0.35" opacity="0.15"/><line x1="-6.55" y1="50.37" x2="14.05" y2="0.63" fill="#666" stroke="#666" stroke-miterlimit="10" stroke-width="0.35" opacity="0.15"/><line x1="-9.05" y1="50.37" x2="11.55" y2="0.63" fill="#666" stroke="#666" stroke-miterlimit="10" stroke-width="0.35" opacity="0.15"/><line x1="-11.55" y1="50.37" x2="9.05" y2="0.63" fill="#666" stroke="#666" stroke-miterlimit="10" stroke-width="0.35" opacity="0.15"/><line x1="-14.05" y1="50.37" x2="6.55" y2="0.63" fill="#666" stroke="#666" stroke-miterlimit="10" stroke-width="0.35" opacity="0.15"/><line x1="-16.55" y1="50.37" x2="4.05" y2="0.63" fill="#666" stroke="#666" stroke-miterlimit="10" stroke-width="0.35" opacity="0.15"/><line x1="-19.05" y1="50.37" x2="1.55" y2="0.63" fill="#666" stroke="#666" stroke-miterlimit="10" stroke-width="0.35" opacity="0.15"/><line x1="0.95" y1="47.37" x2="21.55" y2="-2.37" fill="#666" stroke="#666" stroke-miterlimit="10" stroke-width="0.35" opacity="0.15"/><line x1="-1.55" y1="47.37" x2="19.05" y2="-2.37" fill="#666" stroke="#666" stroke-miterlimit="10" stroke-width="0.35" opacity="0.15"/><line x1="-4.05" y1="47.37" x2="16.55" y2="-2.37" fill="#666" stroke="#666" stroke-miterlimit="10" stroke-width="0.35" opacity="0.15"/><line x1="-6.55" y1="47.37" x2="14.05" y2="-2.37" fill="#666" stroke="#666" stroke-miterlimit="10" stroke-width="0.35" opacity="0.15"/><line x1="-9.05" y1="47.37" x2="11.55" y2="-2.37" fill="#666" stroke="#666" stroke-miterlimit="10" stroke-width="0.35" opacity="0.15"/><line x1="-11.55" y1="47.37" x2="9.05" y2="-2.37" fill="#666" stroke="#666" stroke-miterlimit="10" stroke-width="0.35" opacity="0.15"/><line x1="-14.05" y1="47.37" x2="6.55" y2="-2.37" fill="#666" stroke="#666" stroke-miterlimit="10" stroke-width="0.35" opacity="0.15"/><line x1="-16.55" y1="47.37" x2="4.05" y2="-2.37" fill="#666" stroke="#666" stroke-miterlimit="10" stroke-width="0.35" opacity="0.15"/><line x1="-19.05" y1="47.37" x2="1.55" y2="-2.37" fill="#666" stroke="#666" stroke-miterlimit="10" stroke-width="0.35" opacity="0.15"/><line x1="0.95" y1="44.37" x2="21.55" y2="-5.37" fill="#666" stroke="#666" stroke-miterlimit="10" stroke-width="0.35" opacity="0.15"/><line x1="-1.55" y1="44.37" x2="19.05" y2="-5.37" fill="#666" stroke="#666" stroke-miterlimit="10" stroke-width="0.35" opacity="0.15"/><line x1="-4.05" y1="44.37" x2="16.55" y2="-5.37" fill="#666" stroke="#666" stroke-miterlimit="10" stroke-width="0.35" opacity="0.15"/><line x1="-6.55" y1="44.37" x2="14.05" y2="-5.37" fill="#666" stroke="#666" stroke-miterlimit="10" stroke-width="0.35" opacity="0.15"/><line x1="-9.05" y1="44.37" x2="11.55" y2="-5.37" fill="#666" stroke="#666" stroke-miterlimit="10" stroke-width="0.35" opacity="0.15"/><line x1="-11.55" y1="44.37" x2="9.05" y2="-5.37" fill="#666" stroke="#666" stroke-miterlimit="10" stroke-width="0.35" opacity="0.15"/><line x1="-14.05" y1="44.37" x2="6.55" y2="-5.37" fill="#666" stroke="#666" stroke-miterlimit="10" stroke-width="0.35" opacity="0.15"/><line x1="-16.55" y1="44.37" x2="4.05" y2="-5.37" fill="#666" stroke="#666" stroke-miterlimit="10" stroke-width="0.35" opacity="0.15"/><line x1="-19.05" y1="44.37" x2="1.55" y2="-5.37" fill="#666" stroke="#666" stroke-miterlimit="10" stroke-width="0.35" opacity="0.15"/><line x1="0.95" y1="41.37" x2="21.55" y2="-8.37" fill="#666" stroke="#666" stroke-miterlimit="10" stroke-width="0.35" opacity="0.15"/><line x1="-1.55" y1="41.37" x2="19.05" y2="-8.37" fill="#666" stroke="#666" stroke-miterlimit="10" stroke-width="0.35" opacity="0.15"/><line x1="-4.05" y1="41.37" x2="16.55" y2="-8.37" fill="#666" stroke="#666" stroke-miterlimit="10" stroke-width="0.35" opacity="0.15"/><line x1="-6.55" y1="41.37" x2="14.05" y2="-8.37" fill="#666" stroke="#666" stroke-miterlimit="10" stroke-width="0.35" opacity="0.15"/><line x1="-9.05" y1="41.37" x2="11.55" y2="-8.37" fill="#666" stroke="#666" stroke-miterlimit="10" stroke-width="0.35" opacity="0.15"/><line x1="-11.55" y1="41.37" x2="9.05" y2="-8.37" fill="#666" stroke="#666" stroke-miterlimit="10" stroke-width="0.35" opacity="0.15"/><line x1="-14.05" y1="41.37" x2="6.55" y2="-8.37" fill="#666" stroke="#666" stroke-miterlimit="10" stroke-width="0.35" opacity="0.15"/><line x1="-16.55" y1="41.37" x2="4.05" y2="-8.37" fill="#666" stroke="#666" stroke-miterlimit="10" stroke-width="0.35" opacity="0.15"/><line x1="-19.05" y1="41.37" x2="1.55" y2="-8.37" fill="#666" stroke="#666" stroke-miterlimit="10" stroke-width="0.35" opacity="0.15"/><line x1="0.95" y1="38.37" x2="21.55" y2="-11.37" fill="#666" stroke="#666" stroke-miterlimit="10" stroke-width="0.35" opacity="0.15"/><line x1="-1.55" y1="38.37" x2="19.05" y2="-11.37" fill="#666" stroke="#666" stroke-miterlimit="10" stroke-width="0.35" opacity="0.15"/><line x1="-4.05" y1="38.37" x2="16.55" y2="-11.37" fill="#666" stroke="#666" stroke-miterlimit="10" stroke-width="0.35" opacity="0.15"/><line x1="-6.55" y1="38.37" x2="14.05" y2="-11.37" fill="#666" stroke="#666" stroke-miterlimit="10" stroke-width="0.35" opacity="0.15"/><line x1="-9.05" y1="38.37" x2="11.55" y2="-11.37" fill="#666" stroke="#666" stroke-miterlimit="10" stroke-width="0.35" opacity="0.15"/><line x1="-11.55" y1="38.37" x2="9.05" y2="-11.37" fill="#666" stroke="#666" stroke-miterlimit="10" stroke-width="0.35" opacity="0.15"/><line x1="-14.05" y1="38.37" x2="6.55" y2="-11.37" fill="#666" stroke="#666" stroke-miterlimit="10" stroke-width="0.35" opacity="0.15"/><line x1="-16.55" y1="38.37" x2="4.05" y2="-11.37" fill="#666" stroke="#666" stroke-miterlimit="10" stroke-width="0.35" opacity="0.15"/><line x1="-19.05" y1="38.37" x2="1.55" y2="-11.37" fill="#666" stroke="#666" stroke-miterlimit="10" stroke-width="0.35" opacity="0.15"/><line x1="0.95" y1="35.37" x2="21.55" y2="-14.37" fill="#666" stroke="#666" stroke-miterlimit="10" stroke-width="0.35" opacity="0.15"/><line x1="-1.55" y1="35.37" x2="19.05" y2="-14.37" fill="#666" stroke="#666" stroke-miterlimit="10" stroke-width="0.35" opacity="0.15"/><line x1="-4.05" y1="35.37" x2="16.55" y2="-14.37" fill="#666" stroke="#666" stroke-miterlimit="10" stroke-width="0.35" opacity="0.15"/><line x1="-6.55" y1="35.37" x2="14.05" y2="-14.37" fill="#666" stroke="#666" stroke-miterlimit="10" stroke-width="0.35" opacity="0.15"/><line x1="-9.05" y1="35.37" x2="11.55" y2="-14.37" fill="#666" stroke="#666" stroke-miterlimit="10" stroke-width="0.35" opacity="0.15"/><line x1="-11.55" y1="35.37" x2="9.05" y2="-14.37" fill="#666" stroke="#666" stroke-miterlimit="10" stroke-width="0.35" opacity="0.15"/><line x1="-14.05" y1="35.37" x2="6.55" y2="-14.37" fill="#666" stroke="#666" stroke-miterlimit="10" stroke-width="0.35" opacity="0.15"/><line x1="-16.55" y1="35.37" x2="4.05" y2="-14.37" fill="#666" stroke="#666" stroke-miterlimit="10" stroke-width="0.35" opacity="0.15"/><line x1="-19.05" y1="35.37" x2="1.55" y2="-14.37" fill="#666" stroke="#666" stroke-miterlimit="10" stroke-width="0.35" opacity="0.15"/><line x1="0.95" y1="32.37" x2="21.55" y2="-17.37" fill="#666" stroke="#666" stroke-miterlimit="10" stroke-width="0.35" opacity="0.15"/><line x1="-1.55" y1="32.37" x2="19.05" y2="-17.37" fill="#666" stroke="#666" stroke-miterlimit="10" stroke-width="0.35" opacity="0.15"/><line x1="-4.05" y1="32.37" x2="16.55" y2="-17.37" fill="#666" stroke="#666" stroke-miterlimit="10" stroke-width="0.35" opacity="0.15"/><line x1="-6.55" y1="32.37" x2="14.05" y2="-17.37" fill="#666" stroke="#666" stroke-miterlimit="10" stroke-width="0.35" opacity="0.15"/><line x1="-9.05" y1="32.37" x2="11.55" y2="-17.37" fill="#666" stroke="#666" stroke-miterlimit="10" stroke-width="0.35" opacity="0.15"/><line x1="-11.55" y1="32.37" x2="9.05" y2="-17.37" fill="#666" stroke="#666" stroke-miterlimit="10" stroke-width="0.35" opacity="0.15"/><line x1="-14.05" y1="32.37" x2="6.55" y2="-17.37" fill="#666" stroke="#666" stroke-miterlimit="10" stroke-width="0.35" opacity="0.15"/><line x1="-16.55" y1="32.37" x2="4.05" y2="-17.37" fill="#666" stroke="#666" stroke-miterlimit="10" stroke-width="0.35" opacity="0.15"/><line x1="-19.05" y1="32.37" x2="1.55" y2="-17.37" fill="#666" stroke="#666" stroke-miterlimit="10" stroke-width="0.35" opacity="0.15"/><line x1="0.95" y1="29.37" x2="21.55" y2="-20.37" fill="#666" stroke="#666" stroke-miterlimit="10" stroke-width="0.35" opacity="0.15"/><line x1="-1.55" y1="29.37" x2="19.05" y2="-20.37" fill="#666" stroke="#666" stroke-miterlimit="10" stroke-width="0.35" opacity="0.15"/><line x1="-4.05" y1="29.37" x2="16.55" y2="-20.37" fill="#666" stroke="#666" stroke-miterlimit="10" stroke-width="0.35" opacity="0.15"/><line x1="-6.55" y1="29.37" x2="14.05" y2="-20.37" fill="#666" stroke="#666" stroke-miterlimit="10" stroke-width="0.35" opacity="0.15"/><line x1="-9.05" y1="29.37" x2="11.55" y2="-20.37" fill="#666" stroke="#666" stroke-miterlimit="10" stroke-width="0.35" opacity="0.15"/><line x1="-11.55" y1="29.37" x2="9.05" y2="-20.37" fill="#666" stroke="#666" stroke-miterlimit="10" stroke-width="0.35" opacity="0.15"/><line x1="-14.05" y1="29.37" x2="6.55" y2="-20.37" fill="#666" stroke="#666" stroke-miterlimit="10" stroke-width="0.35" opacity="0.15"/><line x1="-16.55" y1="29.37" x2="4.05" y2="-20.37" fill="#666" stroke="#666" stroke-miterlimit="10" stroke-width="0.35" opacity="0.15"/><line x1="-19.05" y1="29.37" x2="1.55" y2="-20.37" fill="#666" stroke="#666" stroke-miterlimit="10" stroke-width="0.35" opacity="0.15"/><line x1="0.95" y1="26.37" x2="21.55" y2="-23.37" fill="#666" stroke="#666" stroke-miterlimit="10" stroke-width="0.35" opacity="0.15"/><line x1="-1.55" y1="26.37" x2="19.05" y2="-23.37" fill="#666" stroke="#666" stroke-miterlimit="10" stroke-width="0.35" opacity="0.15"/><line x1="-4.05" y1="26.37" x2="16.55" y2="-23.37" fill="#666" stroke="#666" stroke-miterlimit="10" stroke-width="0.35" opacity="0.15"/><line x1="-6.55" y1="26.37" x2="14.05" y2="-23.37" fill="#666" stroke="#666" stroke-miterlimit="10" stroke-width="0.35" opacity="0.15"/><line x1="-9.05" y1="26.37" x2="11.55" y2="-23.37" fill="#666" stroke="#666" stroke-miterlimit="10" stroke-width="0.35" opacity="0.15"/><line x1="-11.55" y1="26.37" x2="9.05" y2="-23.37" fill="#666" stroke="#666" stroke-miterlimit="10" stroke-width="0.35" opacity="0.15"/><line x1="-14.05" y1="26.37" x2="6.55" y2="-23.37" fill="#666" stroke="#666" stroke-miterlimit="10" stroke-width="0.35" opacity="0.15"/><line x1="-16.55" y1="26.37" x2="4.05" y2="-23.37" fill="#666" stroke="#666" stroke-miterlimit="10" stroke-width="0.35" opacity="0.15"/><line x1="-19.05" y1="26.37" x2="1.55" y2="-23.37" fill="#666" stroke="#666" stroke-miterlimit="10" stroke-width="0.35" opacity="0.15"/><line x1="0.95" y1="23.37" x2="21.55" y2="-26.37" fill="#666" stroke="#666" stroke-miterlimit="10" stroke-width="0.35" opacity="0.15"/><line x1="-1.55" y1="23.37" x2="19.05" y2="-26.37" fill="#666" stroke="#666" stroke-miterlimit="10" stroke-width="0.35" opacity="0.15"/><line x1="-4.05" y1="23.37" x2="16.55" y2="-26.37" fill="#666" stroke="#666" stroke-miterlimit="10" stroke-width="0.35" opacity="0.15"/><line x1="-6.55" y1="23.37" x2="14.05" y2="-26.37" fill="#666" stroke="#666" stroke-miterlimit="10" stroke-width="0.35" opacity="0.15"/><line x1="-9.05" y1="23.37" x2="11.55" y2="-26.37" fill="#666" stroke="#666" stroke-miterlimit="10" stroke-width="0.35" opacity="0.15"/><line x1="-11.55" y1="23.37" x2="9.05" y2="-26.37" fill="#666" stroke="#666" stroke-miterlimit="10" stroke-width="0.35" opacity="0.15"/><line x1="-14.05" y1="23.37" x2="6.55" y2="-26.37" fill="#666" stroke="#666" stroke-miterlimit="10" stroke-width="0.35" opacity="0.15"/><line x1="-16.55" y1="23.37" x2="4.05" y2="-26.37" fill="#666" stroke="#666" stroke-miterlimit="10" stroke-width="0.35" opacity="0.15"/><line x1="-19.05" y1="23.37" x2="1.55" y2="-26.37" fill="#666" stroke="#666" stroke-miterlimit="10" stroke-width="0.35" opacity="0.15"/><line x1="0.95" y1="20.37" x2="21.55" y2="-29.37" fill="#666" stroke="#666" stroke-miterlimit="10" stroke-width="0.35" opacity="0.15"/><line x1="-1.55" y1="20.37" x2="19.05" y2="-29.37" fill="#666" stroke="#666" stroke-miterlimit="10" stroke-width="0.35" opacity="0.15"/><line x1="-4.05" y1="20.37" x2="16.55" y2="-29.37" fill="#666" stroke="#666" stroke-miterlimit="10" stroke-width="0.35" opacity="0.15"/><line x1="-6.55" y1="20.37" x2="14.05" y2="-29.37" fill="#666" stroke="#666" stroke-miterlimit="10" stroke-width="0.35" opacity="0.15"/><line x1="-9.05" y1="20.37" x2="11.55" y2="-29.37" fill="#666" stroke="#666" stroke-miterlimit="10" stroke-width="0.35" opacity="0.15"/><line x1="-11.55" y1="20.37" x2="9.05" y2="-29.37" fill="#666" stroke="#666" stroke-miterlimit="10" stroke-width="0.35" opacity="0.15"/><line x1="-14.05" y1="20.37" x2="6.55" y2="-29.37" fill="#666" stroke="#666" stroke-miterlimit="10" stroke-width="0.35" opacity="0.15"/><line x1="-16.55" y1="20.37" x2="4.05" y2="-29.37" fill="#666" stroke="#666" stroke-miterlimit="10" stroke-width="0.35" opacity="0.15"/><line x1="-19.05" y1="20.37" x2="1.55" y2="-29.37" fill="#666" stroke="#666" stroke-miterlimit="10" stroke-width="0.35" opacity="0.15"/><line x1="0.95" y1="17.37" x2="21.55" y2="-32.37" fill="#666" stroke="#666" stroke-miterlimit="10" stroke-width="0.35" opacity="0.15"/><line x1="-1.55" y1="17.37" x2="19.05" y2="-32.37" fill="#666" stroke="#666" stroke-miterlimit="10" stroke-width="0.35" opacity="0.15"/><line x1="-4.05" y1="17.37" x2="16.55" y2="-32.37" fill="#666" stroke="#666" stroke-miterlimit="10" stroke-width="0.35" opacity="0.15"/><line x1="-6.55" y1="17.37" x2="14.05" y2="-32.37" fill="#666" stroke="#666" stroke-miterlimit="10" stroke-width="0.35" opacity="0.15"/><line x1="-9.05" y1="17.37" x2="11.55" y2="-32.37" fill="#666" stroke="#666" stroke-miterlimit="10" stroke-width="0.35" opacity="0.15"/><line x1="-11.55" y1="17.37" x2="9.05" y2="-32.37" fill="#666" stroke="#666" stroke-miterlimit="10" stroke-width="0.35" opacity="0.15"/><line x1="-14.05" y1="17.37" x2="6.55" y2="-32.37" fill="#666" stroke="#666" stroke-miterlimit="10" stroke-width="0.35" opacity="0.15"/><line x1="-16.55" y1="17.37" x2="4.05" y2="-32.37" fill="#666" stroke="#666" stroke-miterlimit="10" stroke-width="0.35" opacity="0.15"/><line x1="-19.05" y1="17.37" x2="1.55" y2="-32.37" fill="#666" stroke="#666" stroke-miterlimit="10" stroke-width="0.35" opacity="0.15"/><line x1="0.95" y1="14.37" x2="21.55" y2="-35.37" fill="#666" stroke="#666" stroke-miterlimit="10" stroke-width="0.35" opacity="0.15"/><line x1="-1.55" y1="14.37" x2="19.05" y2="-35.37" fill="#666" stroke="#666" stroke-miterlimit="10" stroke-width="0.35" opacity="0.15"/><line x1="-4.05" y1="14.37" x2="16.55" y2="-35.37" fill="#666" stroke="#666" stroke-miterlimit="10" stroke-width="0.35" opacity="0.15"/><line x1="-6.55" y1="14.37" x2="14.05" y2="-35.37" fill="#666" stroke="#666" stroke-miterlimit="10" stroke-width="0.35" opacity="0.15"/><line x1="-9.05" y1="14.37" x2="11.55" y2="-35.37" fill="#666" stroke="#666" stroke-miterlimit="10" stroke-width="0.35" opacity="0.15"/><line x1="-11.55" y1="14.37" x2="9.05" y2="-35.37" fill="#666" stroke="#666" stroke-miterlimit="10" stroke-width="0.35" opacity="0.15"/><line x1="-14.05" y1="14.37" x2="6.55" y2="-35.37" fill="#666" stroke="#666" stroke-miterlimit="10" stroke-width="0.35" opacity="0.15"/><line x1="-16.55" y1="14.37" x2="4.05" y2="-35.37" fill="#666" stroke="#666" stroke-miterlimit="10" stroke-width="0.35" opacity="0.15"/><line x1="-19.05" y1="14.37" x2="1.55" y2="-35.37" fill="#666" stroke="#666" stroke-miterlimit="10" stroke-width="0.35" opacity="0.15"/><line x1="0.95" y1="11.37" x2="21.55" y2="-38.37" fill="#666" stroke="#666" stroke-miterlimit="10" stroke-width="0.35" opacity="0.15"/><line x1="-1.55" y1="11.37" x2="19.05" y2="-38.37" fill="#666" stroke="#666" stroke-miterlimit="10" stroke-width="0.35" opacity="0.15"/><line x1="-4.05" y1="11.37" x2="16.55" y2="-38.37" fill="#666" stroke="#666" stroke-miterlimit="10" stroke-width="0.35" opacity="0.15"/><line x1="-6.55" y1="11.37" x2="14.05" y2="-38.37" fill="#666" stroke="#666" stroke-miterlimit="10" stroke-width="0.35" opacity="0.15"/><line x1="-9.05" y1="11.37" x2="11.55" y2="-38.37" fill="#666" stroke="#666" stroke-miterlimit="10" stroke-width="0.35" opacity="0.15"/><line x1="-11.55" y1="11.37" x2="9.05" y2="-38.37" fill="#666" stroke="#666" stroke-miterlimit="10" stroke-width="0.35" opacity="0.15"/><line x1="-14.05" y1="11.37" x2="6.55" y2="-38.37" fill="#666" stroke="#666" stroke-miterlimit="10" stroke-width="0.35" opacity="0.15"/><line x1="-16.55" y1="11.37" x2="4.05" y2="-38.37" fill="#666" stroke="#666" stroke-miterlimit="10" stroke-width="0.35" opacity="0.15"/><line x1="-19.05" y1="11.37" x2="1.55" y2="-38.37" fill="#666" stroke="#666" stroke-miterlimit="10" stroke-width="0.35" opacity="0.15"/><line x1="0.95" y1="8.37" x2="21.55" y2="-41.37" fill="#666" stroke="#666" stroke-miterlimit="10" stroke-width="0.35" opacity="0.15"/><line x1="-1.55" y1="8.37" x2="19.05" y2="-41.37" fill="#666" stroke="#666" stroke-miterlimit="10" stroke-width="0.35" opacity="0.15"/><line x1="-4.05" y1="8.37" x2="16.55" y2="-41.37" fill="#666" stroke="#666" stroke-miterlimit="10" stroke-width="0.35" opacity="0.15"/><line x1="-6.55" y1="8.37" x2="14.05" y2="-41.37" fill="#666" stroke="#666" stroke-miterlimit="10" stroke-width="0.35" opacity="0.15"/><line x1="-9.05" y1="8.37" x2="11.55" y2="-41.37" fill="#666" stroke="#666" stroke-miterlimit="10" stroke-width="0.35" opacity="0.15"/><line x1="-11.55" y1="8.37" x2="9.05" y2="-41.37" fill="#666" stroke="#666" stroke-miterlimit="10" stroke-width="0.35" opacity="0.15"/><line x1="-14.05" y1="8.37" x2="6.55" y2="-41.37" fill="#666" stroke="#666" stroke-miterlimit="10" stroke-width="0.35" opacity="0.15"/><line x1="-16.55" y1="8.37" x2="4.05" y2="-41.37" fill="#666" stroke="#666" stroke-miterlimit="10" stroke-width="0.35" opacity="0.15"/><line x1="-19.05" y1="8.37" x2="1.55" y2="-41.37" fill="#666" stroke="#666" stroke-miterlimit="10" stroke-width="0.35" opacity="0.15"/><line x1="0.95" y1="5.37" x2="21.55" y2="-44.37" fill="#666" stroke="#666" stroke-miterlimit="10" stroke-width="0.35" opacity="0.15"/><line x1="-1.55" y1="5.37" x2="19.05" y2="-44.37" fill="#666" stroke="#666" stroke-miterlimit="10" stroke-width="0.35" opacity="0.15"/><line x1="-4.05" y1="5.37" x2="16.55" y2="-44.37" fill="#666" stroke="#666" stroke-miterlimit="10" stroke-width="0.35" opacity="0.15"/><line x1="-6.55" y1="5.37" x2="14.05" y2="-44.37" fill="#666" stroke="#666" stroke-miterlimit="10" stroke-width="0.35" opacity="0.15"/><line x1="-9.05" y1="5.37" x2="11.55" y2="-44.37" fill="#666" stroke="#666" stroke-miterlimit="10" stroke-width="0.35" opacity="0.15"/><line x1="-11.55" y1="5.37" x2="9.05" y2="-44.37" fill="#666" stroke="#666" stroke-miterlimit="10" stroke-width="0.35" opacity="0.15"/><line x1="-14.05" y1="5.37" x2="6.55" y2="-44.37" fill="#666" stroke="#666" stroke-miterlimit="10" stroke-width="0.35" opacity="0.15"/><line x1="-16.55" y1="5.37" x2="4.05" y2="-44.37" fill="#666" stroke="#666" stroke-miterlimit="10" stroke-width="0.35" opacity="0.15"/><line x1="-19.05" y1="5.37" x2="1.55" y2="-44.37" fill="#666" stroke="#666" stroke-miterlimit="10" stroke-width="0.35" opacity="0.15"/><line x1="0.95" y1="2.37" x2="21.55" y2="-47.37" fill="#666" stroke="#666" stroke-miterlimit="10" stroke-width="0.35" opacity="0.15"/><line x1="-1.55" y1="2.37" x2="19.05" y2="-47.37" fill="#666" stroke="#666" stroke-miterlimit="10" stroke-width="0.35" opacity="0.15"/><line x1="-4.05" y1="2.37" x2="16.55" y2="-47.37" fill="#666" stroke="#666" stroke-miterlimit="10" stroke-width="0.35" opacity="0.15"/><line x1="-6.55" y1="2.37" x2="14.05" y2="-47.37" fill="#666" stroke="#666" stroke-miterlimit="10" stroke-width="0.35" opacity="0.15"/><line x1="-9.05" y1="2.37" x2="11.55" y2="-47.37" fill="#666" stroke="#666" stroke-miterlimit="10" stroke-width="0.35" opacity="0.15"/><line x1="-11.55" y1="2.37" x2="9.05" y2="-47.37" fill="#666" stroke="#666" stroke-miterlimit="10" stroke-width="0.35" opacity="0.15"/><line x1="-14.05" y1="2.37" x2="6.55" y2="-47.37" fill="#666" stroke="#666" stroke-miterlimit="10" stroke-width="0.35" opacity="0.15"/><line x1="-16.55" y1="2.37" x2="4.05" y2="-47.37" fill="#666" stroke="#666" stroke-miterlimit="10" stroke-width="0.35" opacity="0.15"/><line x1="-19.05" y1="2.37" x2="1.55" y2="-47.37" fill="#666" stroke="#666" stroke-miterlimit="10" stroke-width="0.35" opacity="0.15"/></pattern></defs><g id="图层_2" data-name="图层 2"><g id="图层_1-2" data-name="图层 1"><rect x="28.48" width="234.48" height="3.46" opacity="0.3" fill="url(#斜线)"/><rect width="28.52" height="3.46"/></g></g></svg>