<svg xmlns="http://www.w3.org/2000/svg" xmlns:xlink="http://www.w3.org/1999/xlink" viewBox="0 0 91.44 27.64"><defs><pattern id="斜线" data-name="斜线" width="2.5" height="3" patternUnits="userSpaceOnUse" viewBox="0 0 2.5 3"><rect width="2.5" height="3" fill="none"/><line x1="0.95" y1="50.37" x2="21.55" y2="0.63" fill="#666" stroke="#666" stroke-miterlimit="10" stroke-width="0.35" opacity="0.15"/><line x1="-1.55" y1="50.37" x2="19.05" y2="0.63" fill="#666" stroke="#666" stroke-miterlimit="10" stroke-width="0.35" opacity="0.15"/><line x1="-4.05" y1="50.37" x2="16.55" y2="0.63" fill="#666" stroke="#666" stroke-miterlimit="10" stroke-width="0.35" opacity="0.15"/><line x1="-6.55" y1="50.37" x2="14.05" y2="0.63" fill="#666" stroke="#666" stroke-miterlimit="10" stroke-width="0.35" opacity="0.15"/><line x1="-9.05" y1="50.37" x2="11.55" y2="0.63" fill="#666" stroke="#666" stroke-miterlimit="10" stroke-width="0.35" opacity="0.15"/><line x1="-11.55" y1="50.37" x2="9.05" y2="0.63" fill="#666" stroke="#666" stroke-miterlimit="10" stroke-width="0.35" opacity="0.15"/><line x1="-14.05" y1="50.37" x2="6.55" y2="0.63" fill="#666" stroke="#666" stroke-miterlimit="10" stroke-width="0.35" opacity="0.15"/><line x1="-16.55" y1="50.37" x2="4.05" y2="0.63" fill="#666" stroke="#666" stroke-miterlimit="10" stroke-width="0.35" opacity="0.15"/><line x1="-19.05" y1="50.37" x2="1.55" y2="0.63" fill="#666" stroke="#666" stroke-miterlimit="10" stroke-width="0.35" opacity="0.15"/><line x1="0.95" y1="47.37" x2="21.55" y2="-2.37" fill="#666" stroke="#666" stroke-miterlimit="10" stroke-width="0.35" opacity="0.15"/><line x1="-1.55" y1="47.37" x2="19.05" y2="-2.37" fill="#666" stroke="#666" stroke-miterlimit="10" stroke-width="0.35" opacity="0.15"/><line x1="-4.05" y1="47.37" x2="16.55" y2="-2.37" fill="#666" stroke="#666" stroke-miterlimit="10" stroke-width="0.35" opacity="0.15"/><line x1="-6.55" y1="47.37" x2="14.05" y2="-2.37" fill="#666" stroke="#666" stroke-miterlimit="10" stroke-width="0.35" opacity="0.15"/><line x1="-9.05" y1="47.37" x2="11.55" y2="-2.37" fill="#666" stroke="#666" stroke-miterlimit="10" stroke-width="0.35" opacity="0.15"/><line x1="-11.55" y1="47.37" x2="9.05" y2="-2.37" fill="#666" stroke="#666" stroke-miterlimit="10" stroke-width="0.35" opacity="0.15"/><line x1="-14.05" y1="47.37" x2="6.55" y2="-2.37" fill="#666" stroke="#666" stroke-miterlimit="10" stroke-width="0.35" opacity="0.15"/><line x1="-16.55" y1="47.37" x2="4.05" y2="-2.37" fill="#666" stroke="#666" stroke-miterlimit="10" stroke-width="0.35" opacity="0.15"/><line x1="-19.05" y1="47.37" x2="1.55" y2="-2.37" fill="#666" stroke="#666" stroke-miterlimit="10" stroke-width="0.35" opacity="0.15"/><line x1="0.95" y1="44.37" x2="21.55" y2="-5.37" fill="#666" stroke="#666" stroke-miterlimit="10" stroke-width="0.35" opacity="0.15"/><line x1="-1.55" y1="44.37" x2="19.05" y2="-5.37" fill="#666" stroke="#666" stroke-miterlimit="10" stroke-width="0.35" opacity="0.15"/><line x1="-4.05" y1="44.37" x2="16.55" y2="-5.37" fill="#666" stroke="#666" stroke-miterlimit="10" stroke-width="0.35" opacity="0.15"/><line x1="-6.55" y1="44.37" x2="14.05" y2="-5.37" fill="#666" stroke="#666" stroke-miterlimit="10" stroke-width="0.35" opacity="0.15"/><line x1="-9.05" y1="44.37" x2="11.55" y2="-5.37" fill="#666" stroke="#666" stroke-miterlimit="10" stroke-width="0.35" opacity="0.15"/><line x1="-11.55" y1="44.37" x2="9.05" y2="-5.37" fill="#666" stroke="#666" stroke-miterlimit="10" stroke-width="0.35" opacity="0.15"/><line x1="-14.05" y1="44.37" x2="6.55" y2="-5.37" fill="#666" stroke="#666" stroke-miterlimit="10" stroke-width="0.35" opacity="0.15"/><line x1="-16.55" y1="44.37" x2="4.05" y2="-5.37" fill="#666" stroke="#666" stroke-miterlimit="10" stroke-width="0.35" opacity="0.15"/><line x1="-19.05" y1="44.37" x2="1.55" y2="-5.37" fill="#666" stroke="#666" stroke-miterlimit="10" stroke-width="0.35" opacity="0.15"/><line x1="0.95" y1="41.37" x2="21.55" y2="-8.37" fill="#666" stroke="#666" stroke-miterlimit="10" stroke-width="0.35" opacity="0.15"/><line x1="-1.55" y1="41.37" x2="19.05" y2="-8.37" fill="#666" stroke="#666" stroke-miterlimit="10" stroke-width="0.35" opacity="0.15"/><line x1="-4.05" y1="41.37" x2="16.55" y2="-8.37" fill="#666" stroke="#666" stroke-miterlimit="10" stroke-width="0.35" opacity="0.15"/><line x1="-6.55" y1="41.37" x2="14.05" y2="-8.37" fill="#666" stroke="#666" stroke-miterlimit="10" stroke-width="0.35" opacity="0.15"/><line x1="-9.05" y1="41.37" x2="11.55" y2="-8.37" fill="#666" stroke="#666" stroke-miterlimit="10" stroke-width="0.35" opacity="0.15"/><line x1="-11.55" y1="41.37" x2="9.05" y2="-8.37" fill="#666" stroke="#666" stroke-miterlimit="10" stroke-width="0.35" opacity="0.15"/><line x1="-14.05" y1="41.37" x2="6.55" y2="-8.37" fill="#666" stroke="#666" stroke-miterlimit="10" stroke-width="0.35" opacity="0.15"/><line x1="-16.55" y1="41.37" x2="4.05" y2="-8.37" fill="#666" stroke="#666" stroke-miterlimit="10" stroke-width="0.35" opacity="0.15"/><line x1="-19.05" y1="41.37" x2="1.55" y2="-8.37" fill="#666" stroke="#666" stroke-miterlimit="10" stroke-width="0.35" opacity="0.15"/><line x1="0.95" y1="38.37" x2="21.55" y2="-11.37" fill="#666" stroke="#666" stroke-miterlimit="10" stroke-width="0.35" opacity="0.15"/><line x1="-1.55" y1="38.37" x2="19.05" y2="-11.37" fill="#666" stroke="#666" stroke-miterlimit="10" stroke-width="0.35" opacity="0.15"/><line x1="-4.05" y1="38.37" x2="16.55" y2="-11.37" fill="#666" stroke="#666" stroke-miterlimit="10" stroke-width="0.35" opacity="0.15"/><line x1="-6.55" y1="38.37" x2="14.05" y2="-11.37" fill="#666" stroke="#666" stroke-miterlimit="10" stroke-width="0.35" opacity="0.15"/><line x1="-9.05" y1="38.37" x2="11.55" y2="-11.37" fill="#666" stroke="#666" stroke-miterlimit="10" stroke-width="0.35" opacity="0.15"/><line x1="-11.55" y1="38.37" x2="9.05" y2="-11.37" fill="#666" stroke="#666" stroke-miterlimit="10" stroke-width="0.35" opacity="0.15"/><line x1="-14.05" y1="38.37" x2="6.55" y2="-11.37" fill="#666" stroke="#666" stroke-miterlimit="10" stroke-width="0.35" opacity="0.15"/><line x1="-16.55" y1="38.37" x2="4.05" y2="-11.37" fill="#666" stroke="#666" stroke-miterlimit="10" stroke-width="0.35" opacity="0.15"/><line x1="-19.05" y1="38.37" x2="1.55" y2="-11.37" fill="#666" stroke="#666" stroke-miterlimit="10" stroke-width="0.35" opacity="0.15"/><line x1="0.95" y1="35.37" x2="21.55" y2="-14.37" fill="#666" stroke="#666" stroke-miterlimit="10" stroke-width="0.35" opacity="0.15"/><line x1="-1.55" y1="35.37" x2="19.05" y2="-14.37" fill="#666" stroke="#666" stroke-miterlimit="10" stroke-width="0.35" opacity="0.15"/><line x1="-4.05" y1="35.37" x2="16.55" y2="-14.37" fill="#666" stroke="#666" stroke-miterlimit="10" stroke-width="0.35" opacity="0.15"/><line x1="-6.55" y1="35.37" x2="14.05" y2="-14.37" fill="#666" stroke="#666" stroke-miterlimit="10" stroke-width="0.35" opacity="0.15"/><line x1="-9.05" y1="35.37" x2="11.55" y2="-14.37" fill="#666" stroke="#666" stroke-miterlimit="10" stroke-width="0.35" opacity="0.15"/><line x1="-11.55" y1="35.37" x2="9.05" y2="-14.37" fill="#666" stroke="#666" stroke-miterlimit="10" stroke-width="0.35" opacity="0.15"/><line x1="-14.05" y1="35.37" x2="6.55" y2="-14.37" fill="#666" stroke="#666" stroke-miterlimit="10" stroke-width="0.35" opacity="0.15"/><line x1="-16.55" y1="35.37" x2="4.05" y2="-14.37" fill="#666" stroke="#666" stroke-miterlimit="10" stroke-width="0.35" opacity="0.15"/><line x1="-19.05" y1="35.37" x2="1.55" y2="-14.37" fill="#666" stroke="#666" stroke-miterlimit="10" stroke-width="0.35" opacity="0.15"/><line x1="0.95" y1="32.37" x2="21.55" y2="-17.37" fill="#666" stroke="#666" stroke-miterlimit="10" stroke-width="0.35" opacity="0.15"/><line x1="-1.55" y1="32.37" x2="19.05" y2="-17.37" fill="#666" stroke="#666" stroke-miterlimit="10" stroke-width="0.35" opacity="0.15"/><line x1="-4.05" y1="32.37" x2="16.55" y2="-17.37" fill="#666" stroke="#666" stroke-miterlimit="10" stroke-width="0.35" opacity="0.15"/><line x1="-6.55" y1="32.37" x2="14.05" y2="-17.37" fill="#666" stroke="#666" stroke-miterlimit="10" stroke-width="0.35" opacity="0.15"/><line x1="-9.05" y1="32.37" x2="11.55" y2="-17.37" fill="#666" stroke="#666" stroke-miterlimit="10" stroke-width="0.35" opacity="0.15"/><line x1="-11.55" y1="32.37" x2="9.05" y2="-17.37" fill="#666" stroke="#666" stroke-miterlimit="10" stroke-width="0.35" opacity="0.15"/><line x1="-14.05" y1="32.37" x2="6.55" y2="-17.37" fill="#666" stroke="#666" stroke-miterlimit="10" stroke-width="0.35" opacity="0.15"/><line x1="-16.55" y1="32.37" x2="4.05" y2="-17.37" fill="#666" stroke="#666" stroke-miterlimit="10" stroke-width="0.35" opacity="0.15"/><line x1="-19.05" y1="32.37" x2="1.55" y2="-17.37" fill="#666" stroke="#666" stroke-miterlimit="10" stroke-width="0.35" opacity="0.15"/><line x1="0.95" y1="29.37" x2="21.55" y2="-20.37" fill="#666" stroke="#666" stroke-miterlimit="10" stroke-width="0.35" opacity="0.15"/><line x1="-1.55" y1="29.37" x2="19.05" y2="-20.37" fill="#666" stroke="#666" stroke-miterlimit="10" stroke-width="0.35" opacity="0.15"/><line x1="-4.05" y1="29.37" x2="16.55" y2="-20.37" fill="#666" stroke="#666" stroke-miterlimit="10" stroke-width="0.35" opacity="0.15"/><line x1="-6.55" y1="29.37" x2="14.05" y2="-20.37" fill="#666" stroke="#666" stroke-miterlimit="10" stroke-width="0.35" opacity="0.15"/><line x1="-9.05" y1="29.37" x2="11.55" y2="-20.37" fill="#666" stroke="#666" stroke-miterlimit="10" stroke-width="0.35" opacity="0.15"/><line x1="-11.55" y1="29.37" x2="9.05" y2="-20.37" fill="#666" stroke="#666" stroke-miterlimit="10" stroke-width="0.35" opacity="0.15"/><line x1="-14.05" y1="29.37" x2="6.55" y2="-20.37" fill="#666" stroke="#666" stroke-miterlimit="10" stroke-width="0.35" opacity="0.15"/><line x1="-16.55" y1="29.37" x2="4.05" y2="-20.37" fill="#666" stroke="#666" stroke-miterlimit="10" stroke-width="0.35" opacity="0.15"/><line x1="-19.05" y1="29.37" x2="1.55" y2="-20.37" fill="#666" stroke="#666" stroke-miterlimit="10" stroke-width="0.35" opacity="0.15"/><line x1="0.95" y1="26.37" x2="21.55" y2="-23.37" fill="#666" stroke="#666" stroke-miterlimit="10" stroke-width="0.35" opacity="0.15"/><line x1="-1.55" y1="26.37" x2="19.05" y2="-23.37" fill="#666" stroke="#666" stroke-miterlimit="10" stroke-width="0.35" opacity="0.15"/><line x1="-4.05" y1="26.37" x2="16.55" y2="-23.37" fill="#666" stroke="#666" stroke-miterlimit="10" stroke-width="0.35" opacity="0.15"/><line x1="-6.55" y1="26.37" x2="14.05" y2="-23.37" fill="#666" stroke="#666" stroke-miterlimit="10" stroke-width="0.35" opacity="0.15"/><line x1="-9.05" y1="26.37" x2="11.55" y2="-23.37" fill="#666" stroke="#666" stroke-miterlimit="10" stroke-width="0.35" opacity="0.15"/><line x1="-11.55" y1="26.37" x2="9.05" y2="-23.37" fill="#666" stroke="#666" stroke-miterlimit="10" stroke-width="0.35" opacity="0.15"/><line x1="-14.05" y1="26.37" x2="6.55" y2="-23.37" fill="#666" stroke="#666" stroke-miterlimit="10" stroke-width="0.35" opacity="0.15"/><line x1="-16.55" y1="26.37" x2="4.05" y2="-23.37" fill="#666" stroke="#666" stroke-miterlimit="10" stroke-width="0.35" opacity="0.15"/><line x1="-19.05" y1="26.37" x2="1.55" y2="-23.37" fill="#666" stroke="#666" stroke-miterlimit="10" stroke-width="0.35" opacity="0.15"/><line x1="0.95" y1="23.37" x2="21.55" y2="-26.37" fill="#666" stroke="#666" stroke-miterlimit="10" stroke-width="0.35" opacity="0.15"/><line x1="-1.55" y1="23.37" x2="19.05" y2="-26.37" fill="#666" stroke="#666" stroke-miterlimit="10" stroke-width="0.35" opacity="0.15"/><line x1="-4.05" y1="23.37" x2="16.55" y2="-26.37" fill="#666" stroke="#666" stroke-miterlimit="10" stroke-width="0.35" opacity="0.15"/><line x1="-6.55" y1="23.37" x2="14.05" y2="-26.37" fill="#666" stroke="#666" stroke-miterlimit="10" stroke-width="0.35" opacity="0.15"/><line x1="-9.05" y1="23.37" x2="11.55" y2="-26.37" fill="#666" stroke="#666" stroke-miterlimit="10" stroke-width="0.35" opacity="0.15"/><line x1="-11.55" y1="23.37" x2="9.05" y2="-26.37" fill="#666" stroke="#666" stroke-miterlimit="10" stroke-width="0.35" opacity="0.15"/><line x1="-14.05" y1="23.37" x2="6.55" y2="-26.37" fill="#666" stroke="#666" stroke-miterlimit="10" stroke-width="0.35" opacity="0.15"/><line x1="-16.55" y1="23.37" x2="4.05" y2="-26.37" fill="#666" stroke="#666" stroke-miterlimit="10" stroke-width="0.35" opacity="0.15"/><line x1="-19.05" y1="23.37" x2="1.55" y2="-26.37" fill="#666" stroke="#666" stroke-miterlimit="10" stroke-width="0.35" opacity="0.15"/><line x1="0.95" y1="20.37" x2="21.55" y2="-29.37" fill="#666" stroke="#666" stroke-miterlimit="10" stroke-width="0.35" opacity="0.15"/><line x1="-1.55" y1="20.37" x2="19.05" y2="-29.37" fill="#666" stroke="#666" stroke-miterlimit="10" stroke-width="0.35" opacity="0.15"/><line x1="-4.05" y1="20.37" x2="16.55" y2="-29.37" fill="#666" stroke="#666" stroke-miterlimit="10" stroke-width="0.35" opacity="0.15"/><line x1="-6.55" y1="20.37" x2="14.05" y2="-29.37" fill="#666" stroke="#666" stroke-miterlimit="10" stroke-width="0.35" opacity="0.15"/><line x1="-9.05" y1="20.37" x2="11.55" y2="-29.37" fill="#666" stroke="#666" stroke-miterlimit="10" stroke-width="0.35" opacity="0.15"/><line x1="-11.55" y1="20.37" x2="9.05" y2="-29.37" fill="#666" stroke="#666" stroke-miterlimit="10" stroke-width="0.35" opacity="0.15"/><line x1="-14.05" y1="20.37" x2="6.55" y2="-29.37" fill="#666" stroke="#666" stroke-miterlimit="10" stroke-width="0.35" opacity="0.15"/><line x1="-16.55" y1="20.37" x2="4.05" y2="-29.37" fill="#666" stroke="#666" stroke-miterlimit="10" stroke-width="0.35" opacity="0.15"/><line x1="-19.05" y1="20.37" x2="1.55" y2="-29.37" fill="#666" stroke="#666" stroke-miterlimit="10" stroke-width="0.35" opacity="0.15"/><line x1="0.95" y1="17.37" x2="21.55" y2="-32.37" fill="#666" stroke="#666" stroke-miterlimit="10" stroke-width="0.35" opacity="0.15"/><line x1="-1.55" y1="17.37" x2="19.05" y2="-32.37" fill="#666" stroke="#666" stroke-miterlimit="10" stroke-width="0.35" opacity="0.15"/><line x1="-4.05" y1="17.37" x2="16.55" y2="-32.37" fill="#666" stroke="#666" stroke-miterlimit="10" stroke-width="0.35" opacity="0.15"/><line x1="-6.55" y1="17.37" x2="14.05" y2="-32.37" fill="#666" stroke="#666" stroke-miterlimit="10" stroke-width="0.35" opacity="0.15"/><line x1="-9.05" y1="17.37" x2="11.55" y2="-32.37" fill="#666" stroke="#666" stroke-miterlimit="10" stroke-width="0.35" opacity="0.15"/><line x1="-11.55" y1="17.37" x2="9.05" y2="-32.37" fill="#666" stroke="#666" stroke-miterlimit="10" stroke-width="0.35" opacity="0.15"/><line x1="-14.05" y1="17.37" x2="6.55" y2="-32.37" fill="#666" stroke="#666" stroke-miterlimit="10" stroke-width="0.35" opacity="0.15"/><line x1="-16.55" y1="17.37" x2="4.05" y2="-32.37" fill="#666" stroke="#666" stroke-miterlimit="10" stroke-width="0.35" opacity="0.15"/><line x1="-19.05" y1="17.37" x2="1.55" y2="-32.37" fill="#666" stroke="#666" stroke-miterlimit="10" stroke-width="0.35" opacity="0.15"/><line x1="0.95" y1="14.37" x2="21.55" y2="-35.37" fill="#666" stroke="#666" stroke-miterlimit="10" stroke-width="0.35" opacity="0.15"/><line x1="-1.55" y1="14.37" x2="19.05" y2="-35.37" fill="#666" stroke="#666" stroke-miterlimit="10" stroke-width="0.35" opacity="0.15"/><line x1="-4.05" y1="14.37" x2="16.55" y2="-35.37" fill="#666" stroke="#666" stroke-miterlimit="10" stroke-width="0.35" opacity="0.15"/><line x1="-6.55" y1="14.37" x2="14.05" y2="-35.37" fill="#666" stroke="#666" stroke-miterlimit="10" stroke-width="0.35" opacity="0.15"/><line x1="-9.05" y1="14.37" x2="11.55" y2="-35.37" fill="#666" stroke="#666" stroke-miterlimit="10" stroke-width="0.35" opacity="0.15"/><line x1="-11.55" y1="14.37" x2="9.05" y2="-35.37" fill="#666" stroke="#666" stroke-miterlimit="10" stroke-width="0.35" opacity="0.15"/><line x1="-14.05" y1="14.37" x2="6.55" y2="-35.37" fill="#666" stroke="#666" stroke-miterlimit="10" stroke-width="0.35" opacity="0.15"/><line x1="-16.55" y1="14.37" x2="4.05" y2="-35.37" fill="#666" stroke="#666" stroke-miterlimit="10" stroke-width="0.35" opacity="0.15"/><line x1="-19.05" y1="14.37" x2="1.55" y2="-35.37" fill="#666" stroke="#666" stroke-miterlimit="10" stroke-width="0.35" opacity="0.15"/><line x1="0.95" y1="11.37" x2="21.55" y2="-38.37" fill="#666" stroke="#666" stroke-miterlimit="10" stroke-width="0.35" opacity="0.15"/><line x1="-1.55" y1="11.37" x2="19.05" y2="-38.37" fill="#666" stroke="#666" stroke-miterlimit="10" stroke-width="0.35" opacity="0.15"/><line x1="-4.05" y1="11.37" x2="16.55" y2="-38.37" fill="#666" stroke="#666" stroke-miterlimit="10" stroke-width="0.35" opacity="0.15"/><line x1="-6.55" y1="11.37" x2="14.05" y2="-38.37" fill="#666" stroke="#666" stroke-miterlimit="10" stroke-width="0.35" opacity="0.15"/><line x1="-9.05" y1="11.37" x2="11.55" y2="-38.37" fill="#666" stroke="#666" stroke-miterlimit="10" stroke-width="0.35" opacity="0.15"/><line x1="-11.55" y1="11.37" x2="9.05" y2="-38.37" fill="#666" stroke="#666" stroke-miterlimit="10" stroke-width="0.35" opacity="0.15"/><line x1="-14.05" y1="11.37" x2="6.55" y2="-38.37" fill="#666" stroke="#666" stroke-miterlimit="10" stroke-width="0.35" opacity="0.15"/><line x1="-16.55" y1="11.37" x2="4.05" y2="-38.37" fill="#666" stroke="#666" stroke-miterlimit="10" stroke-width="0.35" opacity="0.15"/><line x1="-19.05" y1="11.37" x2="1.55" y2="-38.37" fill="#666" stroke="#666" stroke-miterlimit="10" stroke-width="0.35" opacity="0.15"/><line x1="0.95" y1="8.37" x2="21.55" y2="-41.37" fill="#666" stroke="#666" stroke-miterlimit="10" stroke-width="0.35" opacity="0.15"/><line x1="-1.55" y1="8.37" x2="19.05" y2="-41.37" fill="#666" stroke="#666" stroke-miterlimit="10" stroke-width="0.35" opacity="0.15"/><line x1="-4.05" y1="8.37" x2="16.55" y2="-41.37" fill="#666" stroke="#666" stroke-miterlimit="10" stroke-width="0.35" opacity="0.15"/><line x1="-6.55" y1="8.37" x2="14.05" y2="-41.37" fill="#666" stroke="#666" stroke-miterlimit="10" stroke-width="0.35" opacity="0.15"/><line x1="-9.05" y1="8.37" x2="11.55" y2="-41.37" fill="#666" stroke="#666" stroke-miterlimit="10" stroke-width="0.35" opacity="0.15"/><line x1="-11.55" y1="8.37" x2="9.05" y2="-41.37" fill="#666" stroke="#666" stroke-miterlimit="10" stroke-width="0.35" opacity="0.15"/><line x1="-14.05" y1="8.37" x2="6.55" y2="-41.37" fill="#666" stroke="#666" stroke-miterlimit="10" stroke-width="0.35" opacity="0.15"/><line x1="-16.55" y1="8.37" x2="4.05" y2="-41.37" fill="#666" stroke="#666" stroke-miterlimit="10" stroke-width="0.35" opacity="0.15"/><line x1="-19.05" y1="8.37" x2="1.55" y2="-41.37" fill="#666" stroke="#666" stroke-miterlimit="10" stroke-width="0.35" opacity="0.15"/><line x1="0.95" y1="5.37" x2="21.55" y2="-44.37" fill="#666" stroke="#666" stroke-miterlimit="10" stroke-width="0.35" opacity="0.15"/><line x1="-1.55" y1="5.37" x2="19.05" y2="-44.37" fill="#666" stroke="#666" stroke-miterlimit="10" stroke-width="0.35" opacity="0.15"/><line x1="-4.05" y1="5.37" x2="16.55" y2="-44.37" fill="#666" stroke="#666" stroke-miterlimit="10" stroke-width="0.35" opacity="0.15"/><line x1="-6.55" y1="5.37" x2="14.05" y2="-44.37" fill="#666" stroke="#666" stroke-miterlimit="10" stroke-width="0.35" opacity="0.15"/><line x1="-9.05" y1="5.37" x2="11.55" y2="-44.37" fill="#666" stroke="#666" stroke-miterlimit="10" stroke-width="0.35" opacity="0.15"/><line x1="-11.55" y1="5.37" x2="9.05" y2="-44.37" fill="#666" stroke="#666" stroke-miterlimit="10" stroke-width="0.35" opacity="0.15"/><line x1="-14.05" y1="5.37" x2="6.55" y2="-44.37" fill="#666" stroke="#666" stroke-miterlimit="10" stroke-width="0.35" opacity="0.15"/><line x1="-16.55" y1="5.37" x2="4.05" y2="-44.37" fill="#666" stroke="#666" stroke-miterlimit="10" stroke-width="0.35" opacity="0.15"/><line x1="-19.05" y1="5.37" x2="1.55" y2="-44.37" fill="#666" stroke="#666" stroke-miterlimit="10" stroke-width="0.35" opacity="0.15"/><line x1="0.95" y1="2.37" x2="21.55" y2="-47.37" fill="#666" stroke="#666" stroke-miterlimit="10" stroke-width="0.35" opacity="0.15"/><line x1="-1.55" y1="2.37" x2="19.05" y2="-47.37" fill="#666" stroke="#666" stroke-miterlimit="10" stroke-width="0.35" opacity="0.15"/><line x1="-4.05" y1="2.37" x2="16.55" y2="-47.37" fill="#666" stroke="#666" stroke-miterlimit="10" stroke-width="0.35" opacity="0.15"/><line x1="-6.55" y1="2.37" x2="14.05" y2="-47.37" fill="#666" stroke="#666" stroke-miterlimit="10" stroke-width="0.35" opacity="0.15"/><line x1="-9.05" y1="2.37" x2="11.55" y2="-47.37" fill="#666" stroke="#666" stroke-miterlimit="10" stroke-width="0.35" opacity="0.15"/><line x1="-11.55" y1="2.37" x2="9.05" y2="-47.37" fill="#666" stroke="#666" stroke-miterlimit="10" stroke-width="0.35" opacity="0.15"/><line x1="-14.05" y1="2.37" x2="6.55" y2="-47.37" fill="#666" stroke="#666" stroke-miterlimit="10" stroke-width="0.35" opacity="0.15"/><line x1="-16.55" y1="2.37" x2="4.05" y2="-47.37" fill="#666" stroke="#666" stroke-miterlimit="10" stroke-width="0.35" opacity="0.15"/><line x1="-19.05" y1="2.37" x2="1.55" y2="-47.37" fill="#666" stroke="#666" stroke-miterlimit="10" stroke-width="0.35" opacity="0.15"/></pattern></defs><g id="图层_2" data-name="图层 2"><g id="图层_1-2" data-name="图层 1"><g opacity="0.4"><path d="M81.93,12.45v4.32h4.76v5.3a5.36,5.36,0,0,1-3.35,1c-5.26,0-7.92-3.49-7.92-9.32S78.48,4.54,83,4.54A7.12,7.12,0,0,1,88.2,6.77L91,3.42A11.22,11.22,0,0,0,82.8,0C75.71,0,70,5.15,70,13.93S75.56,27.64,82.8,27.64a12.52,12.52,0,0,0,8.64-3.2v-12ZM29.74.47H24.48V27.14H40.57V22.71H29.74ZM54.25,0c-7,0-11.91,5-11.91,13.71S47.2,27.64,54.25,27.64s11.88-5.29,11.88-13.93S61.31,0,54.25,0Zm0,23.07c-4,0-6.51-3.67-6.51-9.36s2.51-9.17,6.51-9.17S60.77,8,60.77,13.71,58.21,23.07,54.25,23.07ZM14.76,13v-.14a6.08,6.08,0,0,0,3.63-5.79c0-4.94-4.17-6.59-9.64-6.59H0V27.14H9.47c5.83,0,10.26-2.48,10.26-7.85A6.06,6.06,0,0,0,14.76,13ZM5.26,4.54h3.2c3.24,0,4.79.93,4.79,3.31,0,2.16-1.44,3.49-4.86,3.49H5.26ZM9,23.07H5.26V15.26H9c3.67,0,5.61,1.12,5.61,3.71C14.61,21.78,12.63,23.07,9,23.07Z" fill="url(#斜线)"/></g></g></g></svg>