<svg xmlns="http://www.w3.org/2000/svg" xmlns:xlink="http://www.w3.org/1999/xlink" viewBox="0 0 449 96"><defs><pattern id="斜线" data-name="斜线" width="6" height="6" patternUnits="userSpaceOnUse" viewBox="0 0 6 6"><rect width="6" height="6" fill="none"/><line x1="1.97" y1="40.03" x2="40.03" y2="1.97" stroke="#000" stroke-miterlimit="10"/><line x1="-4.03" y1="40.03" x2="34.03" y2="1.97" stroke="#000" stroke-miterlimit="10"/><line x1="-10.03" y1="40.03" x2="28.03" y2="1.97" stroke="#000" stroke-miterlimit="10"/><line x1="-16.03" y1="40.03" x2="22.03" y2="1.97" stroke="#000" stroke-miterlimit="10"/><line x1="-22.03" y1="40.03" x2="16.03" y2="1.97" stroke="#000" stroke-miterlimit="10"/><line x1="-28.03" y1="40.03" x2="10.03" y2="1.97" stroke="#000" stroke-miterlimit="10"/><line x1="-34.03" y1="40.03" x2="4.03" y2="1.97" stroke="#000" stroke-miterlimit="10"/><line x1="1.97" y1="34.03" x2="40.03" y2="-4.03" stroke="#000" stroke-miterlimit="10"/><line x1="-4.03" y1="34.03" x2="34.03" y2="-4.03" stroke="#000" stroke-miterlimit="10"/><line x1="-10.03" y1="34.03" x2="28.03" y2="-4.03" stroke="#000" stroke-miterlimit="10"/><line x1="-16.03" y1="34.03" x2="22.03" y2="-4.03" stroke="#000" stroke-miterlimit="10"/><line x1="-22.03" y1="34.03" x2="16.03" y2="-4.03" stroke="#000" stroke-miterlimit="10"/><line x1="-28.03" y1="34.03" x2="10.03" y2="-4.03" stroke="#000" stroke-miterlimit="10"/><line x1="-34.03" y1="34.03" x2="4.03" y2="-4.03" stroke="#000" stroke-miterlimit="10"/><line x1="1.97" y1="28.03" x2="40.03" y2="-10.03" stroke="#000" stroke-miterlimit="10"/><line x1="-4.03" y1="28.03" x2="34.03" y2="-10.03" stroke="#000" stroke-miterlimit="10"/><line x1="-10.03" y1="28.03" x2="28.03" y2="-10.03" stroke="#000" stroke-miterlimit="10"/><line x1="-16.03" y1="28.03" x2="22.03" y2="-10.03" stroke="#000" stroke-miterlimit="10"/><line x1="-22.03" y1="28.03" x2="16.03" y2="-10.03" stroke="#000" stroke-miterlimit="10"/><line x1="-28.03" y1="28.03" x2="10.03" y2="-10.03" stroke="#000" stroke-miterlimit="10"/><line x1="-34.03" y1="28.03" x2="4.03" y2="-10.03" stroke="#000" stroke-miterlimit="10"/><line x1="1.97" y1="22.03" x2="40.03" y2="-16.03" stroke="#000" stroke-miterlimit="10"/><line x1="-4.03" y1="22.03" x2="34.03" y2="-16.03" stroke="#000" stroke-miterlimit="10"/><line x1="-10.03" y1="22.03" x2="28.03" y2="-16.03" stroke="#000" stroke-miterlimit="10"/><line x1="-16.03" y1="22.03" x2="22.03" y2="-16.03" stroke="#000" stroke-miterlimit="10"/><line x1="-22.03" y1="22.03" x2="16.03" y2="-16.03" stroke="#000" stroke-miterlimit="10"/><line x1="-28.03" y1="22.03" x2="10.03" y2="-16.03" stroke="#000" stroke-miterlimit="10"/><line x1="-34.03" y1="22.03" x2="4.03" y2="-16.03" stroke="#000" stroke-miterlimit="10"/><line x1="1.97" y1="16.03" x2="40.03" y2="-22.03" stroke="#000" stroke-miterlimit="10"/><line x1="-4.03" y1="16.03" x2="34.03" y2="-22.03" stroke="#000" stroke-miterlimit="10"/><line x1="-10.03" y1="16.03" x2="28.03" y2="-22.03" stroke="#000" stroke-miterlimit="10"/><line x1="-16.03" y1="16.03" x2="22.03" y2="-22.03" stroke="#000" stroke-miterlimit="10"/><line x1="-22.03" y1="16.03" x2="16.03" y2="-22.03" stroke="#000" stroke-miterlimit="10"/><line x1="-28.03" y1="16.03" x2="10.03" y2="-22.03" stroke="#000" stroke-miterlimit="10"/><line x1="-34.03" y1="16.03" x2="4.03" y2="-22.03" stroke="#000" stroke-miterlimit="10"/><line x1="1.97" y1="10.03" x2="40.03" y2="-28.03" stroke="#000" stroke-miterlimit="10"/><line x1="-4.03" y1="10.03" x2="34.03" y2="-28.03" stroke="#000" stroke-miterlimit="10"/><line x1="-10.03" y1="10.03" x2="28.03" y2="-28.03" stroke="#000" stroke-miterlimit="10"/><line x1="-16.03" y1="10.03" x2="22.03" y2="-28.03" stroke="#000" stroke-miterlimit="10"/><line x1="-22.03" y1="10.03" x2="16.03" y2="-28.03" stroke="#000" stroke-miterlimit="10"/><line x1="-28.03" y1="10.03" x2="10.03" y2="-28.03" stroke="#000" stroke-miterlimit="10"/><line x1="-34.03" y1="10.03" x2="4.03" y2="-28.03" stroke="#000" stroke-miterlimit="10"/><line x1="1.97" y1="4.03" x2="40.03" y2="-34.03" stroke="#000" stroke-miterlimit="10"/><line x1="-4.03" y1="4.03" x2="34.03" y2="-34.03" stroke="#000" stroke-miterlimit="10"/><line x1="-10.03" y1="4.03" x2="28.03" y2="-34.03" stroke="#000" stroke-miterlimit="10"/><line x1="-16.03" y1="4.03" x2="22.03" y2="-34.03" stroke="#000" stroke-miterlimit="10"/><line x1="-22.03" y1="4.03" x2="16.03" y2="-34.03" stroke="#000" stroke-miterlimit="10"/><line x1="-28.03" y1="4.03" x2="10.03" y2="-34.03" stroke="#000" stroke-miterlimit="10"/><line x1="-34.03" y1="4.03" x2="4.03" y2="-34.03" stroke="#000" stroke-miterlimit="10"/></pattern></defs><g id="图层_2" data-name="图层 2"><g id="图层_1-2" data-name="图层 1"><rect width="449" height="96" fill="url(#斜线)"/></g></g></svg>