<svg width="513" height="512" viewBox="0 0 513 512" fill="none" xmlns="http://www.w3.org/2000/svg">
<path d="M317.135 112.382C308.181 114.546 302.063 119.396 299.377 126.559C297.511 131.559 297.511 137.379 298.78 193.863C299.675 232.888 299.675 233.634 298.183 234.977C297.436 235.723 292.064 238.783 286.319 241.767C280.573 244.752 273.335 248.632 270.276 250.348C267.217 252.064 261.994 254.9 258.71 256.691C255.427 258.481 251.249 260.72 249.383 261.764C247.518 262.809 238.639 267.659 229.61 272.584C199.316 289.149 189.317 294.894 187.004 297.058C183.795 300.117 182.229 305.117 182.229 312.28C182.229 317.279 182.602 318.995 184.318 322.726C188.422 331.307 195.883 336.083 205.36 336.157C211.553 336.157 212.597 335.784 225.879 328.248C240.728 319.891 262.889 308.997 266.844 308.176C269.604 307.654 272.216 307.579 275.201 308.101C279.379 308.773 291.467 312.653 297.213 315.115L299.899 316.309L300.347 329.218C300.645 336.306 301.093 351.752 301.317 363.541C301.913 388.165 302.063 388.762 308.629 392.866C312.136 395.03 312.733 395.104 321.687 395.328C336.013 395.776 343.176 393.537 347.355 387.493C350.414 383.091 350.787 379.36 350.862 357.945C350.862 346.977 351.16 338.023 351.533 338.023C352.28 338.023 362.577 342.5 379.589 350.334C386.156 353.319 393.244 356.527 395.259 357.423C397.348 358.318 401.303 360.109 404.213 361.378C408.764 363.467 410.182 363.765 415.778 363.765C421.151 363.765 422.718 363.467 425.852 361.751C431 359.064 435.029 354.886 437.566 349.513C440.253 343.768 440.924 338.619 439.656 332.725C437.939 324.815 433.537 320.413 422.494 315.638C419.435 314.294 414.361 312.056 411.301 310.638C408.242 309.221 397.124 304.147 386.678 299.446C376.232 294.745 364.815 289.596 361.457 287.955C358.025 286.388 354.966 285.045 354.667 285.045C354.294 285.045 353.548 284.448 352.951 283.702C351.907 282.582 351.832 274.449 352.503 207.22C353.25 136.185 353.175 131.782 351.981 128.499C349.071 120.739 342.505 114.621 334.745 112.233C330.342 110.964 322.731 110.964 317.135 112.382Z" fill="black"></path>
<path d="M110.224 128.275C106.642 129.842 102.837 134.021 101.792 137.453C101.344 138.796 100.449 145.139 99.7773 151.481C99.1057 157.824 97.7626 170.583 96.7926 179.836C95.748 189.088 94.6287 200.131 94.181 204.459C93.7333 208.787 92.9125 216.472 92.3156 221.621C91.0471 232.589 90.0771 241.469 88.9579 252.214C88.5102 256.541 87.6148 264.078 87.0178 269.002C86.4955 273.927 85.6747 280.941 85.227 284.672C83.6601 299.147 82.0932 312.056 80.7501 323.472C79.9293 330.039 78.5862 341.455 77.6908 348.842C76.87 356.229 75.8254 364.586 75.4523 367.496C73.8107 380.852 74.7807 385.777 80.1531 391.15C85.5255 396.522 97.0165 400.7 106.493 400.7C115.148 400.7 121.64 396.522 123.878 389.508C124.55 387.269 127.758 363.019 130.818 336.53C131.265 332.65 132.161 328.621 132.832 327.576C133.429 326.532 138.056 320.861 142.98 314.891C154.023 301.684 171.036 284.522 184.467 273.032C195.958 263.182 218.865 245.946 233.714 236.022C244.086 229.008 246.175 226.844 248.264 220.949C250.428 214.756 249.16 204.981 245.354 199.236C242.966 195.654 237.967 191.625 233.863 190.058C229.983 188.491 222.596 188.416 219.313 189.834C216.701 190.879 197.376 203.787 192.302 207.891C190.66 209.16 185.288 213.114 180.363 216.547C175.438 220.054 166.186 226.62 159.844 231.321C153.501 235.947 147.83 239.753 147.159 239.827C146.487 239.902 146.114 239.379 146.189 238.409C146.562 234.828 153.427 182.82 154.62 174.239C156.486 161.181 158.351 145.363 158.351 142.229C158.351 138.349 157.157 135.513 154.471 133.126C151.039 129.917 148.203 129.171 136.19 127.977C120.371 126.485 113.954 126.559 110.224 128.275Z" fill="black"></path>
</svg>
